SplineFontDB: 3.0
FontName: Manjari
FullName: Manjari
FamilyName: Manjari
Weight: Book
Copyright: Digitized data copyright (c) 2014, Santhosh Thottingal, Kavya Manohar,\nSwathanthra Malayalam Computing(http://smc.org.in)
Version: 1.0.0-alpha.20150905
ItalicAngle: 0
UnderlinePosition: -600
UnderlineWidth: 100
Ascent: 1434
Descent: 614
InvalidEm: 0
sfntRevision: 0x00060000
LayerCount: 2
Layer: 0 0 "Back" 1
Layer: 1 0 "Fore" 0
XUID: [1021 348 -393509193 4873957]
FSType: 0
OS2Version: 1
OS2_WeightWidthSlopeOnly: 0
OS2_UseTypoMetrics: 1
CreationTime: 1201144287
ModificationTime: 1443958506
PfmFamily: 17
TTFWeight: 400
TTFWidth: 5
LineGap: 0
VLineGap: 0
Panose: 2 0 5 3 0 0 0 0 0 0
OS2TypoAscent: 1434
OS2TypoAOffset: 0
OS2TypoDescent: -614
OS2TypoDOffset: 0
OS2TypoLinegap: 0
OS2WinAscent: 1465
OS2WinAOffset: 0
OS2WinDescent: 1414
OS2WinDOffset: 0
HheadAscent: 1465
HheadAOffset: 0
HheadDescent: -1414
HheadDOffset: 0
OS2SubXSize: 1331
OS2SubYSize: 1433
OS2SubXOff: 274
OS2SubYOff: 286
OS2SupXSize: 1331
OS2SupYSize: 1433
OS2SupXOff: -944
OS2SupYOff: 983
OS2StrikeYSize: 102
OS2StrikeYPos: 530
OS2Vendor: 'SMC '
OS2CodePages: 00000001.00000000
OS2UnicodeRanges: 80800003.00002000.00000000.00000000
MarkAttachClasses: 1
DEI: 91125
LangName: 1100 "" "" "" "" "" "" "" "" "" "" "" "" "" "" "" "" "" "" "+DS4NHg1NDRwNMA0/"

StartChar: .notdef
Encoding: 175 -1 0
Width: 692
GlyphClass: 2
Flags: HW
LayerCount: 2
Fore
SplineSet
102 55 m 1
 552 55 l 1
 552 1063 l 1
 102 1063 l 1
 102 55 l 1
45 1 m 1
 45 1119 l 1
 606 1119 l 1
 606 1 l 1
 45 1 l 1
EndSplineSet
EndChar

StartChar: exclam
Encoding: 1 33 4
Width: 445
GlyphClass: 2
Flags: HW
LayerCount: 2
Fore
SplineSet
274.416015625 206.87109375 m 0
 328.285807292 123.534505208 351.574869792 49.65234375 344.283203125 -14.775390625 c 0
 334.314232442 -102.855685448 240.855183897 -174.196243518 165.403320312 -101.483398438 c 0
 90.2405434357 -29.0513351095 112.553818641 87.9743288309 174.1953125 198.279296875 c 0
 185.39878573 222.94140625 201.932075912 235.272460938 223.795183047 235.272460938 c 0
 245.658290182 235.272460938 262.531901042 225.805338542 274.416015625 206.87109375 c 0
159.508789062 1123.7890625 m 0
 162.38584076 1153.86857523 186.409577994 1185.96191406 217.678710938 1185.96191406 c 0
 247.65008509 1185.96191406 271.375769355 1157.7274937 276.50390625 1131.875 c 0
 323.802083333 907.800130208 343.254394531 716.861165364 334.860839844 559.058105469 c 0
 326.467285156 401.255045573 287.704915364 321.768391927 218.573730469 320.598144531 c 0
 149.442545573 319.427897136 110.582356771 397.475911459 101.993164062 554.7421875 c 0
 93.4046223957 712.008463541 112.576497396 901.690755208 159.508789062 1123.7890625 c 0
EndSplineSet
EndChar

StartChar: numbersign
Encoding: 3 35 6
Width: 942
GlyphClass: 2
Flags: HW
LayerCount: 2
Fore
SplineSet
446 781 m 1
 384 450 l 1
 633 450 l 1
 692 781 l 1
 446 781 l 1
807 781 m 1
 746 450 l 1
 938 450 l 1
 938 349 l 1
 728 349 l 1
 659 -28 l 1
 544 -28 l 1
 612 349 l 1
 366 349 l 1
 296 -28 l 1
 183 -28 l 1
 251 349 l 1
 68 349 l 1
 68 450 l 1
 272 450 l 1
 330 781 l 1
 134 781 l 1
 134 882 l 1
 350 882 l 1
 413 1231 l 1
 530 1231 l 1
 462 882 l 1
 711 882 l 1
 774 1231 l 1
 891 1231 l 1
 824 882 l 1
 996 882 l 1
 996 781 l 1
 807 781 l 1
EndSplineSet
EndChar

StartChar: dollar
Encoding: 4 36 7
Width: 1155
GlyphClass: 2
Flags: HW
LayerCount: 2
Fore
SplineSet
482.808921317 1215.60177451 m 1
 373.511157734 1196.17628989 278.973154362 1113.8958803 278.973154362 995.628440161 c 0
 278.973154362 883.278980668 369.442923414 824.844644925 482.230925983 787.885227394 c 1
 482.808921317 1215.60177451 l 1
631.353615902 138.675767261 m 1
 763.941022668 146.381920229 896.906222533 218.122755868 896.906222533 354.004794018 c 0
 896.906222533 499.21535325 771.216013711 558.436246299 631.971467381 595.88586161 c 1
 631.353615902 138.675767261 l 1
93.2366857888 266.225842408 m 0
 93.2366857888 308.454009903 141.295685734 339.159873577 174.107520513 339.159873577 c 0
 189.252830413 339.159873577 204.464832312 333.942795019 218 322 c 0
 278.417883739 250.25376306 370.250510123 184.362300581 481.375169934 154.625750825 c 1
 482.018882012 630.972688784 l 1
 294.111440343 676.705458461 125.733675857 777.986790714 125.733675857 998.173004829 c 0
 125.733675857 1197.74852269 286.56844152 1348.06918901 483.883034512 1368.84407196 c 1
 489.363605955 1402.71974646 519.573396161 1432.99999999 552.5 1433 c 0
 600.823560338 1433 631.783391206 1402.01950053 632.964935323 1360.47469733 c 1
 789.620773754 1327.0993403 919.059219774 1220.85618055 968 1102 c 0
 971.512195122 1093.2195122 973.268292683 1084.810232 973.268292683 1076.77215943 c 0
 973.268292683 1043.2826324 928.260008103 1005.89256286 894.020700993 1005.89256286 c 0
 856.027461847 1005.89256286 830.651085454 1046.08848036 805 1082 c 0
 759.813179589 1145.26136762 702.464579064 1187.08163057 632.797060271 1206.82460062 c 1
 632.177466362 748.325108117 l 1
 839.624929113 693.344020513 1049.17834046 594.710462607 1049.17834046 354.957351435 c 0
 1049.17834046 133.080581837 842.981546309 0.974544422014 631.150944611 -11.3009877354 c 1
 631 -123 l 1
 631 -124 l 2
 631 -164.995117188 596.993164062 -199 556 -199 c 0
 515.004882812 -199 481 -164.993164062 481 -124 c 2
 481 -123 l 1
 481.166507067 0.215229487555 l 1
 363.292267214 25.1418325835 254.843469835 85.5238672136 163.5 163.5 c 0
 131.207719263 191.066581117 93.2366857888 228.91289735 93.2366857888 266.225842408 c 0
EndSplineSet
EndChar

StartChar: percent
Encoding: 5 37 8
Width: 1584
GlyphClass: 2
Flags: HW
LayerCount: 2
Fore
SplineSet
1369.109375 1431.71875 m 0
 1411.5957991 1402.97819985 1412.88842167 1354.00799064 1392.39941406 1324.12402344 c 1
 436.744140625 15.431640625 l 2
 436.478515625 15.0478515625 434.384765625 11.95703125 430.461914062 6.1591796875 c 0
 410.890625 -22.7724609375 361.336914062 -24.4892578125 337.506835938 -8.5693359375 c 0
 298.450588759 17.5215501257 287.258853292 63.0059485873 312.501953125 99.478515625 c 1
 1268.15722656 1408.17089844 l 2
 1291.47559159 1439.81725097 1335.79294958 1454.25624101 1369.109375 1431.71875 c 0
1099 635.5 m 1
 1266.3359375 666.698242188 1403.59765625 554.905273438 1454 444.5 c 0
 1515.90917969 308.890625 1476.38183594 166.966796875 1395.5 79 c 0
 1315.59082031 -7.908203125 1172.15625 -63.3857421875 1023.5 -2 c 0
 913.327148438 43.494140625 801.15234375 174.717773438 820 325.5 c 0
 840.666992188 495.5 933.666992188 598.833007812 1099 635.5 c 1
1342 275 m 0
 1356.69042969 368.852539062 1306.19335938 436.924804688 1245 474.5 c 0
 1164.265625 524.07421875 1066.79492188 497.294921875 1012 442.5 c 0
 1009.33300781 435.833007812 1005.66699219 429.5 1001 423.5 c 0
 881.925945946 276.224322015 1027.45204994 76.0677048026 1194 117 c 0
 1269.04492188 135.443359375 1329.6015625 195.787109375 1342 275 c 0
455 1345 m 1
 622.3359375 1376.19824219 759.59765625 1264.40527344 810 1154 c 0
 871.909179688 1018.390625 832.381835938 876.466796875 751.5 788.5 c 0
 671.590820312 701.591796875 528.15625 646.114257812 379.5 707.5 c 0
 269.327148438 752.994140625 157.15234375 884.217773438 176 1035 c 0
 196.666992188 1205 289.666992188 1308.33300781 455 1345 c 1
698 984.5 m 0
 712.690429688 1078.35253906 662.193359375 1146.42480469 601 1184 c 0
 520.265625 1233.57421875 422.794921875 1206.79492188 368 1152 c 0
 365.333007812 1145.33300781 361.666992188 1139 357 1133 c 0
 237.925945946 985.724322015 383.452049936 785.567704803 550 826.5 c 0
 625.044921875 844.943359375 685.6015625 905.287109375 698 984.5 c 0
EndSplineSet
EndChar

StartChar: ampersand
Encoding: 6 38 9
Width: 1216
GlyphClass: 2
Flags: HW
LayerCount: 2
Fore
SplineSet
493 659 m 1
 372.976707453 594.701807564 239.152941176 506.591557642 239.152941176 377.916401385 c 0
 239.152941176 366.897623992 240.101960784 355.75882353 242 344.5 c 0
 261.628731147 228.0659357 355.599553302 134.555994412 495.227028467 134.555994412 c 0
 616.735415103 134.555994412 721.959860368 218.041096639 776 293 c 1
 685.333333333 411 591 533 493 659 c 1
530 840 m 1
 653.368747412 913.082573195 718.071737122 991.496033697 718.071737122 1079.5297057 c 0
 718.071737122 1168.91216428 647.325434145 1239.13084112 559.697936534 1239.13084112 c 0
 470.362397919 1239.13084112 394.902222006 1175.5135108 394.902222006 1078.13962596 c 0
 394.902222006 1003.53883532 439.970699624 955.751957626 530 840 c 1
858.169508893 1074.65576127 m 0
 858.169508893 936.76706449 776.04295837 824.975182402 616 728 c 1
 707.333333333 610.666666667 784 511.666666667 846 431 c 1
 870 498.333333333 883.333333333 569 886 643 c 0
 887.311132684 679.711715141 918.549567139 712 956.5 712 c 0
 986.959853274 712 1026 682.361743725 1026 655 c 0
 1026 531 999 414 945 304 c 1
 1048.33333333 170 1102.66666667 99.5 1108 92.5 c 0
 1113.33333333 85.5 1116 73 1116 55 c 0
 1116 16.7729786585 1082.70655008 -13 1043 -13 c 0
 1021.66666667 -13 1003.5 -3 988.5 17 c 0
 937.5 85 896 139 864 179 c 1
 780.407794378 78.0379854181 656.797840302 -5.55637663254 494.482022451 -5.55637663254 c 0
 276.666236671 -5.55637663254 100.709074901 154.119877111 100.709074901 369.439763928 c 0
 100.709074901 575.91165051 215.374339057 669.095882146 406 772 c 1
 347.470540595 853.941243165 256.112104976 959.190329337 256.112104976 1083.23331548 c 0
 256.112104976 1248.16447343 398.38155172 1380.65441176 551.429311125 1380.65441176 c 0
 725.773239686 1380.65441176 858.169508893 1248.7166772 858.169508893 1074.65576127 c 0
EndSplineSet
EndChar

StartChar: quotesingle
Encoding: 7 39 10
Width: 382
GlyphClass: 2
Flags: HW
LayerCount: 2
Fore
SplineSet
185 957 m 0
 144.00534699 957 110 992.032682971 110 1033 c 1
 100 1351 l 1
 100 1392.32837086 145.590557248 1425.8725842 187 1426.5 c 0
 228.871627672 1427.1344186 283.355801362 1392.02984221 282 1350 c 1
 260 1033 l 1
 260 992.031399323 225.993461051 957 185 957 c 0
EndSplineSet
EndChar

StartChar: parenleft
Encoding: 8 40 11
Width: 705
GlyphClass: 2
Flags: HW
LayerCount: 2
Fore
SplineSet
606 -276.5 m 0
 606 -319.269408952 574.135670927 -355 533 -355 c 0
 513.666666667 -355 497.333333333 -349.333333333 484 -338 c 0
 277.556243468 -178.842243567 100 99.305732498 100 440.5 c 0
 100 780.72813754 273.447291559 1058.51822732 478 1218 c 0
 491.333333333 1229.33333333 507.666666667 1235 527 1235 c 0
 567.873064548 1235 600 1199.34951452 600 1157 c 0
 600 1134.33333333 590 1115.33333333 570 1100 c 0
 399.167511742 966.10426596 250 726.144570561 250 441 c 0
 250 155.315876492 402.660506912 -86.7241253451 575 -220 c 0
 595.666666667 -234.666666667 606 -253.5 606 -276.5 c 0
EndSplineSet
EndChar

StartChar: asterisk
Encoding: 10 42 13
Width: 955
GlyphClass: 2
Flags: HW
LayerCount: 2
Fore
SplineSet
1.255859375 1235.97791297 m 0
 1.255859375 1275.91904768 29.1879757545 1312.00585938 66.6294493698 1312.00585938 c 0
 83.1882140021 1312.00585938 97.1681761915 1308.41601563 108.569335938 1301.23632812 c 2
 414.743164062 1114.39648438 l 1
 411.327148438 1362.03710938 l 2
 411.308919271 1362.66715495 411.299804688 1367.84383133 411.299804688 1377.56713852 c 0
 411.299804688 1404.05389098 450.990004147 1434 481.123255793 1434 c 0
 519.604649225 1434 551.313476562 1402.41961 551.313476562 1363.99316406 c 2
 554.745117188 1115.1875 l 1
 847.196289062 1301.97460938 l 2
 858.878967046 1309.67252605 873.048537909 1313.52148438 889.705001652 1313.52148438 c 0
 919.689992548 1313.52148438 955.713867188 1281.31474675 955.713867188 1252.7116657 c 0
 955.713867188 1220.58071445 944.660481771 1197.67291964 922.553710938 1183.98828125 c 2
 618.711914062 989.92578125 l 1
 921.543945312 805.125 l 2
 944.494466145 791.580430328 955.969726562 773.31534097 955.969726562 750.329731926 c 0
 955.969726562 709.977399269 927.901457569 674.827148438 890.337664072 674.827148438 c 0
 873.932402359 674.827148438 860.025251315 678.425130209 848.616210938 685.62109375 c 2
 558.225585938 862.830078125 l 1
 562.551757812 549.099609375 l 2
 562.569986979 548.42391493 562.579101562 543.096584744 562.579101562 533.117618815 c 0
 562.579101562 506.461522585 522.715418851 477.125 492.572265625 477.125 c 0
 454.241844535 477.125 422.564453125 508.802679488 422.564453125 547.131835938 c 2
 418.225585938 861.876953125 l 1
 108.571289062 664.1015625 l 2
 96.8748337331 656.382161459 82.6928667108 652.522460938 66.0253879952 652.522460938 c 0
 28.3767103518 652.522460938 0 687.375670434 0 727.558007742 c 0
 0 750.232258997 11.0712890625 768.408886625 33.2138671875 782.087890625 c 2
 354.387695312 987.220703125 l 1
 35.6435546875 1181.73046875 l 2
 12.7184244792 1195.27938818 1.255859375 1213.36186958 1.255859375 1235.97791297 c 0
EndSplineSet
EndChar

StartChar: plus
Encoding: 11 43 14
Width: 1050
GlyphClass: 2
Flags: HW
LayerCount: 2
Fore
SplineSet
577 373 m 1
 577 0 l 1
 473 0 l 1
 473 373 l 1
 100 373 l 1
 100 477 l 1
 473 477 l 1
 473 850 l 1
 577 850 l 1
 577 477 l 1
 950 477 l 1
 950 373 l 1
 577 373 l 1
EndSplineSet
EndChar

StartChar: comma
Encoding: 12 44 15
Width: 506
GlyphClass: 2
Flags: HW
LayerCount: 2
Fore
SplineSet
100 139 m 0
 100 211.183156425 162.495611441 283 231 283 c 0
 262.333333333 283 288.333333333 277.666666667 309 267 c 0
 404.333333333 216.333333333 429.666666667 118 385 -28 c 0
 351.666666667 -137.333333333 293.666666667 -219.333333333 211 -274 c 0
 159.049196363 -308.633869092 102 -267.009915357 102 -212.5 c 0
 102 -190.166666667 113.666666667 -171 137 -155 c 0
 190.333333333 -119.666666667 226.666666667 -69.6666666667 246 -5 c 1
 245 -5 245 -5 244 -5 c 0
 164.625255981 -5 100 59.6274565214 100 139 c 0
EndSplineSet
EndChar

StartChar: hyphen
Encoding: 13 45 16
Width: 618
GlyphClass: 2
Flags: HW
LayerCount: 2
Fore
SplineSet
100 368 m 1
 100 494 l 1
 518 494 l 1
 518 368 l 1
 100 368 l 1
EndSplineSet
EndChar

StartChar: period
Encoding: 14 46 17
Width: 489
GlyphClass: 2
Flags: HW
LayerCount: 2
Fore
SplineSet
244.5 -4 m 0
 166.578931157 -4 100 58.1118562842 100 135.5 c 0
 100 212.885308104 166.58669524 275 244.5 275 c 0
 322.421068843 275 389 212.888143716 389 135.5 c 0
 389 58.1146918959 322.41330476 -4 244.5 -4 c 0
EndSplineSet
EndChar

StartChar: slash
Encoding: 15 47 18
Width: 1011
GlyphClass: 2
Flags: HW
LayerCount: 2
Fore
SplineSet
864.221679688 1424 m 0
 910.85546875 1402.63574219 920.180664062 1354.54394531 904.883789062 1321.69824219 c 2
 243.7578125 -8.0498046875 l 2
 243.55078125 -8.4677734375 242.001953125 -11.865234375 239.084960938 -18.228515625 c 0
 224.537109375 -49.984375 175.939453125 -59.82421875 149.81640625 -48.0390625 c 0
 107.001953125 -28.7236328125 88.4853515625 14.3017578125 107.388671875 54.4287109375 c 2
 768.514648438 1384.17578125 l 2
 786.313476562 1419.22558594 827.654296875 1440.75390625 864.221679688 1424 c 0
EndSplineSet
EndChar

StartChar: zero
Encoding: 16 48 19
Width: 1219
GlyphClass: 2
Flags: HW
LayerCount: 2
Fore
SplineSet
609.5 125 m 0
 871.109930384 125 969.205834744 404.28805938 969.205834744 696.183224517 c 0
 969.205834744 971.005015163 867.794089463 1234.83510535 612.999656542 1234.83510535 c 0
 352.856009014 1234.83510535 249.952593504 968.033020074 249.952593504 682.275922389 c 0
 249.952593504 394.454160138 349.786915314 125 609.5 125 c 0
606.07477411 -24.6146034245 m 0
 254.263488484 -24.6146034245 99.963742203 319.175830624 99.963742203 680.123341566 c 0
 99.963742203 1045.62364438 256.971037084 1379.30847216 607 1385 c 1
 624 1385 l 1
 967.490945903 1377.01183847 1119.15786673 1044.18717702 1119.15786673 688.477570406 c 0
 1119.15786673 312.395225629 963.128692664 -24.6146034245 606.07477411 -24.6146034245 c 0
EndSplineSet
EndChar

StartChar: one
Encoding: 17 49 20
Width: 772
GlyphClass: 2
Flags: HW
LayerCount: 2
Fore
SplineSet
166.5 1033 m 0
 138.713468828 1033 103 1072.07124205 103 1101 c 0
 103 1135.88748673 124.421615865 1173.88432317 155 1180 c 0
 218.333333333 1192 276.333333333 1246.66666667 329 1344 c 0
 344.333333333 1372.66666667 364.833333333 1387 390.5 1387 c 0
 437.634000515 1387 473 1356.82634038 473 1312 c 2
 472 136 l 1
 544 136 544 136 616 136 c 0
 642.691166731 136 672 96.1775276993 672 66 c 0
 672 27.645961324 640.352938406 -4 602 -4 c 0
 386 -4 386 -4 170 -4 c 0
 131.645961324 -4 100 27.647061594 100 66 c 0
 100 96.2225391979 129.2639969 136 156 136 c 0
 239 136 239 136 322 136 c 1
 322 1098 l 1
 286.666666667 1068.66666667 244 1047.66666667 194 1035 c 0
 188.666666667 1033.66666667 179.5 1033 166.5 1033 c 0
EndSplineSet
EndChar

StartChar: two
Encoding: 18 50 21
Width: 1115
GlyphClass: 2
Flags: HW
LayerCount: 2
Fore
SplineSet
1016 81 m 0
 1016 35.083597239 985.086379987 0 941 -0 c 2
 175 -0 l 2
 132.438464648 0 100 34.5421938858 100 78 c 0
 100 100.666666667 110 119.666666667 130 135 c 0
 382.025730452 325.692034988 807.399991727 570.654911998 807.399991727 929.06678287 c 0
 807.399991727 1095.53264764 690.423151027 1235.05495062 521.894597452 1235.05495062 c 0
 406.727120555 1235.05495062 300.010418777 1156.82061052 275 1054 c 0
 263 1007.33333333 237.333333333 984 198 984 c 0
 162.66418765 984 123 1016.18754693 123 1049 c 0
 123 1063 124 1073.33333333 126 1080 c 0
 169.617149859 1241.86808947 315.44723903 1385.26140906 520.548503808 1385.26140906 c 0
 774.131550064 1385.26140906 959.830508475 1179.1926483 959.830508475 923.957770755 c 0
 959.830508475 556.204614496 615.210335623 336.330050608 391 150 c 1
 950 150 l 2
 956.666666667 150 969.333333333 144.666666667 988 134 c 0
 1006.66666667 123.333333333 1016 105.666666667 1016 81 c 0
EndSplineSet
EndChar

StartChar: three
Encoding: 19 51 22
Width: 1039
GlyphClass: 2
Flags: HW
LayerCount: 2
Fore
SplineSet
757.712732305 1003.26414485 m 0
 757.712732305 1124.99769269 647.450141898 1227.01249856 522.519395019 1227.01249856 c 0
 423.463705874 1227.01249856 330.559386727 1158.91593351 305 1087.5 c 0
 287.854633622 1039.59382924 268.123572545 1019 218.5 1019 c 0
 189.06012515 1019 152 1056.06209647 152 1085.5 c 0
 152 1100.5 153.666666667 1112.33333333 157 1121 c 0
 208.250698903 1260.29677137 341.178691338 1376.14074074 523.185068686 1376.14074074 c 0
 732.487778706 1376.14074074 908.582522247 1213.03879793 908.582522247 991.993080289 c 0
 908.582522247 865.884311527 843.268331863 768.530018379 772 709 c 1
 871.96528965 650.257510206 939.871373835 547.373956769 939.871373835 409.309067457 c 0
 939.871373835 160.539271771 733.514648438 -16.603515625 498.78125 -16.603515625 c 0
 330.279296875 -16.603515625 189.757508658 78.977487769 114 186 c 0
 104.666666667 199.333333333 100 215.166666667 100 233.5 c 0
 100 273.984829865 136.799316136 305 179.5 305 c 0
 203.166666667 305 222.333333333 294.333333333 237 273 c 0
 286.401737603 203.602320986 383.536132812 133.63671875 493.481445312 133.63671875 c 0
 652.166015625 133.63671875 789.730111229 251.288483379 789.730111229 405.073149193 c 0
 789.730111229 567.798491579 674 618 504 619 c 0
 465.4824766 619.226573667 432.672593789 648.65990748 432.672593789 693.004975891 c 0
 432.672593789 747.757914513 477.323696711 772 521 772 c 0
 653 772 757.712732305 846.700602432 757.712732305 1003.26414485 c 0
EndSplineSet
EndChar

StartChar: four
Encoding: 20 52 23
Width: 1303
GlyphClass: 2
Flags: HW
LayerCount: 2
Fore
SplineSet
753 555 m 1
 751 1084 l 1
 330 557 l 1
 753 555 l 1
904 68 m 2
 904 27.0053469899 869.993461051 -7 829 -7 c 0
 788.00534699 -7 754 27.0065389491 754 68 c 2
 754 69 l 1
 753 405 l 1
 175 407 l 2
 135.354512681 407 100 440.578451994 100 479.5 c 0
 100 498.5 105.333333333 515 116 529 c 2
 767 1345 l 2
 782.333333333 1363.66666667 801 1373 823 1373 c 0
 865.644969371 1373 900 1340.04899355 900 1298 c 2
 903 555 l 1
 1127 554 l 1
 1128 554 l 2
 1168.99465301 554 1203 519.993461051 1203 479 c 0
 1203 438.00534699 1168.99346105 404 1128 404 c 0
 1127 404 1127 404 1126 404 c 2
 903 405 l 1
 904 69 l 1
 904 68 l 2
EndSplineSet
EndChar

StartChar: five
Encoding: 21 53 24
Width: 1135
GlyphClass: 2
Flags: HW
LayerCount: 2
Fore
SplineSet
230.5 615 m 0
 193.162048442 615 151 644.727440433 151 677.5 c 0
 151 689.833333333 151.666666667 698 153 702 c 2
 255 1314 l 2
 261.165630993 1350.99378596 291.935880367 1377 328 1377 c 0
 635 1377 635 1377 942 1377 c 0
 978.507061566 1377 1017 1344.49009502 1017 1310 c 0
 1017 1262.45431234 987.193382841 1227 942 1227 c 0
 667 1227 667 1227 392 1227 c 1
 335 884 l 1
 405.666666667 921.333333333 480 940 558 940 c 0
 825.657465202 940 1035 734.196223944 1035 461 c 0
 1035 185.358086637 820.764877224 -25.4481157161 548.692691935 -25.4481157161 c 0
 341.071452607 -25.4481157161 180.050771423 101.10631129 108 249 c 0
 102.666666667 259.666666667 100 273.166666667 100 289.5 c 0
 100 321.930064219 136.437611983 358 169 358 c 0
 204.333333333 358 229 343.666666667 243 315 c 0
 293.901424103 210.652080589 401.535445439 124.554277482 549.63898166 124.554277482 c 0
 737.627490939 124.554277482 885 271.04144878 885 460.5 c 0
 885 650.602034818 742.547813485 790 545 790 c 0
 439.879483665 790 335.018712281 716.390854227 288 648 c 0
 273.333333333 626 254.166666667 615 230.5 615 c 0
EndSplineSet
EndChar

StartChar: six
Encoding: 22 54 25
Width: 1197
GlyphClass: 2
Flags: HW
LayerCount: 2
Fore
SplineSet
644.35218715 130.588607595 m 0
 822.305090475 130.588607595 947.165263974 265.629914518 947.165263974 442.31173679 c 0
 947.165263974 609.630242194 805.057241365 753.969162996 634.478080305 753.969162996 c 0
 460.114341229 753.969162996 321.683694213 608.294510847 321.683694213 438.983579735 c 0
 321.683694213 266.585692961 481.564109784 130.588607595 644.35218715 130.588607595 c 0
639.913175157 -17.8733691865 m 0
 278.102546439 -17.8733691865 99.7910765653 338.822185889 99.7910765653 700.978239814 c 0
 99.7910765653 1055.36030213 288.434582099 1386.38896728 643.576014892 1386.38896728 c 0
 824.094640004 1386.38896728 961.718375103 1284.28515281 1033 1163 c 0
 1040.33333333 1151 1044 1136.5 1044 1119.5 c 0
 1044 1087.92509815 1008.64907948 1050 978 1050 c 0
 942.666666667 1050 917.666666667 1062.66666667 903 1088 c 0
 856.407489884 1168.47797202 762.58801333 1237.32775718 643.738989265 1237.32775718 c 0
 370.668716764 1237.32775718 250 969.067168084 250 696 c 1
 250.666666667 696.666666667 251.333333333 697.666666667 252 699 c 0
 315.864280482 801.182848771 466.725080599 902.275819874 622.010347326 902.275819874 c 0
 892.549621272 902.275819874 1097.34883721 699.702478025 1097.34883721 432.089317069 c 0
 1097.34883721 192.915545373 908.954532066 -17.8733691865 639.913175157 -17.8733691865 c 0
EndSplineSet
EndChar

StartChar: seven
Encoding: 23 55 26
Width: 1235
GlyphClass: 2
Flags: HW
LayerCount: 2
Fore
SplineSet
1060 1380 m 0
 1098.6854058 1380 1135 1350.86090434 1135 1306.5 c 0
 1135 1293.5 1132.33333333 1281.66666667 1127 1271 c 0
 925.666666667 869.666666667 756.333333333 455.333333333 619 28 c 0
 609 -7.33333333333 582.666666667 -25 540 -25 c 0
 510.710942713 -25 473 11.5980946553 473 40.5 c 0
 473 54.8333333333 474.333333333 65.6666666667 477 73 c 0
 603.666666667 469 758 854.666666667 940 1230 c 1
 558 1230 558 1230 175 1230 c 0
 134.00534699 1230 100 1264.00653895 100 1305 c 0
 100 1345.99465301 134.006538949 1380 175 1380 c 0
 617 1380 617 1380 1060 1380 c 0
EndSplineSet
EndChar

StartChar: eight
Encoding: 24 56 27
Width: 1070
GlyphClass: 2
Flags: HW
LayerCount: 2
Fore
SplineSet
819.046511628 374.729042725 m 0
 819.046511628 516.840360644 678.734920881 617.710352622 533.208304468 617.710352622 c 0
 390.308137889 617.710352622 249.95824637 526.49906429 249.95824637 376.01129055 c 0
 249.95824637 231.201388371 387.291282826 131 535 131 c 0
 682.677303805 131 819.046511628 230.194793913 819.046511628 374.729042725 c 0
294.472905553 1009.39212976 m 0
 294.472905553 881.262164351 407.181206978 783 536 783 c 0
 661.321241803 783 776.080758941 871.156404012 776.080758941 1008.36337117 c 0
 776.080758941 1132.90739919 656.81319745 1231.04199743 539.206946055 1231.04199743 c 0
 410.175428942 1231.04199743 294.472905553 1136.89936922 294.472905553 1009.39212976 c 0
926.077586208 995.27816587 m 0
 926.077586208 874.897008646 874.082812513 781.37679587 769 707 c 1
 875.639072162 645.658940792 970.790849673 528.558801714 970.790849673 372.164466656 c 0
 970.790849673 137.992187182 761.212313888 -19 535 -19 c 0
 307.394568548 -19 100.226919329 135.709579974 100.226919329 373.532757034 c 0
 100.226919329 532.247999542 193.671560589 646.544113001 300 708 c 1
 210.073413271 772.391876917 144.927419355 873.961108708 144.927419355 1010.8560744 c 0
 144.927419355 1217.71755118 329.358578295 1380.24910532 533.482539166 1380.24910532 c 0
 745.648280995 1380.24910532 926.077586208 1216.14186817 926.077586208 995.27816587 c 0
EndSplineSet
EndChar

StartChar: semicolon
Encoding: 27 59 30
Width: 425
GlyphClass: 2
Flags: HW
LayerCount: 2
Fore
SplineSet
90 139 m 0
 90 211.183156425 152.495611441 283 221 283 c 0
 252.333333333 283 278.333333333 277.666666667 299 267 c 0
 394.333333333 216.333333333 419.666666667 118 375 -28 c 0
 341.666666667 -137.333333333 283.666666667 -219.333333333 201 -274 c 0
 149.049196363 -308.633869092 92 -267.009915357 92 -212.5 c 0
 92 -190.166666667 103.666666667 -171 127 -155 c 0
 180.333333333 -119.666666667 216.666666667 -69.6666666667 236 -5 c 1
 235 -5 235 -5 234 -5 c 0
 154.625255981 -5 90 59.6274565214 90 139 c 0
244.5 601 m 0
 166.578931157 601 100 663.111856284 100 740.5 c 0
 100 817.885308104 166.58669524 880 244.5 880 c 0
 322.421068843 880 389 817.888143716 389 740.5 c 0
 389 663.114691896 322.41330476 601 244.5 601 c 0
EndSplineSet
EndChar

StartChar: less
Encoding: 28 60 31
Width: 944
GlyphClass: 2
Flags: HW
LayerCount: 2
Fore
SplineSet
86 412 m 1
 86 522 l 1
 947 886 l 1
 947 768 l 1
 217 468 l 1
 947 166 l 1
 947 48 l 1
 86 412 l 1
EndSplineSet
EndChar

StartChar: equal
Encoding: 29 61 32
Width: 1109
GlyphClass: 2
Flags: HW
LayerCount: 2
Fore
SplineSet
100 701.5 m 0
 100 731.235290124 129.551229012 772 156 772 c 0
 166 772 171 771.666666667 171 771 c 2
 939 771 l 2
 939 770.333333333 944 770.333333333 954 771 c 0
 980.555986288 772.770399086 1010 730.649330365 1010 701.5 c 0
 1010 671.764709876 980.448770988 631 954 631 c 0
 555 631 555 631 156 631 c 0
 129.594872897 631 100 671.809307924 100 701.5 c 0
100 380.5 m 0
 100 405.58627208 127.409538949 451 148 451 c 2
 171 450 l 1
 939 450 l 1
 954 451 l 1
 980.405127103 451 1010 410.190692076 1010 380.5 c 0
 1010 350.764709876 980.448770988 310 954 310 c 0
 555 310 555 310 156 310 c 0
 129.594872897 310 100 350.809307924 100 380.5 c 0
EndSplineSet
EndChar

StartChar: greater
Encoding: 30 62 33
Width: 969
GlyphClass: 2
Flags: HW
LayerCount: 2
Fore
SplineSet
115 48 m 1
 115 166 l 1
 842 463 l 1
 115 768 l 1
 115 886 l 1
 971 522 l 1
 971 412 l 1
 115 48 l 1
EndSplineSet
EndChar

StartChar: question
Encoding: 31 63 34
Width: 939
GlyphClass: 2
Flags: HW
LayerCount: 2
Fore
SplineSet
407 18 m 1
 407 180 l 1
 547 180 l 1
 547 18 l 1
 407 18 l 1
498 1320 m 0
 707.6160153 1320 871 1204.20357388 871 998 c 0
 871 898 840.333333333 818 779 758 c 2
 601 585 l 2
 565 550.333333333 547 506.666666667 547 454 c 2
 547 374 l 1
 407 374 l 1
 407 460 l 2
 407 532.666666667 445 605.666666667 521 679 c 2
 643 797 l 2
 702.333333333 855 732 918.666666667 732 988 c 0
 732 1127.47271467 627.369839694 1202 488 1202 c 0
 327.333333333 1202 245.333333333 1109.66666667 242 925 c 1
 113 925 l 1
 116.333333333 1188.33333333 244.666666667 1320 498 1320 c 0
EndSplineSet
EndChar

StartChar: at
Encoding: 32 64 35
Width: 1784
GlyphClass: 2
Flags: HW
LayerCount: 2
Fore
SplineSet
1105 480 m 0
 1103.71700927 619.845989027 996.265580576 735.365348829 857 734 c 0
 722.115317181 732.677601149 612.0340174 614.487396789 616 477 c 0
 618 381.666666667 659.666666667 311 741 265 c 0
 806.333333333 227.666666667 872.833333333 221.666666667 940.5 247 c 0
 1030.93649128 280.857996737 1102.5721174 361.033752418 1105 480 c 0
1177 886 m 0
 1217.99465301 886 1252 851.993461051 1252 811 c 2
 1252 810 l 1
 1255 494 l 2
 1255 487 1255 487 1255 480 c 2
 1252 321 l 1
 1267.98240579 242.419838208 1365.95816235 193.366277272 1449 254 c 0
 1583.69912045 353.389642276 1531.87166597 619.598389269 1455 762 c 0
 1414.33333333 837.333333333 1362 901.333333333 1298 954 c 0
 1080.66666667 1133.33333333 845.833333333 1158.5 593.5 1029.5 c 0
 341.166666667 900.5 227.5 692.666666667 252.5 406 c 0
 270.166666667 205.333333333 365.833333333 49.6666666667 539.5 -61 c 0
 713.166666667 -171.666666667 899 -191.333333333 1097 -120 c 0
 1171.66666667 -93.3333333333 1209 -112 1209 -176 c 0
 1209 -218 1189 -246.333333333 1149 -261 c 0
 908.333333333 -351 679 -327 461 -189 c 0
 243 -51 123.666666667 142.333333333 103 391 c 0
 73.6666666667 747 221 1008 545 1174 c 0
 841.666666667 1326 1124.66666667 1291 1394 1069 c 0
 1539.79948233 948.929838078 1654.19604838 764.368458845 1680 535 c 0
 1700.5115767 352.674873784 1641.4261266 210.204538219 1534.5 131 c 0
 1489.5 97.6666666667 1442.33333333 79.6666666667 1393 77 c 0
 1281 70.3333333333 1196.66666667 111.666666667 1140 201 c 1
 1072.08263182 131.987190393 965.260679727 74.3346319195 838 84 c 0
 631.537063608 98.3740019007 471.365243926 265.560898464 466 479.5 c 0
 463.333333333 585.833333333 499.833333333 679.5 575.5 760.5 c 0
 651.166666667 841.5 739.666666667 882.666666667 841 884 c 0
 942.333333333 885.333333333 1029.33333333 857.333333333 1102 800 c 1
 1102 811 l 2
 1102 851.99465301 1136.00653895 886 1177 886 c 0
EndSplineSet
EndChar

StartChar: braceleft
Encoding: 85 123 36
Width: 947
GlyphClass: 2
Flags: HW
LayerCount: 2
Fore
SplineSet
425.826923077 -92.6737241122 m 0
 425.826923077 -221.136040715 499.833078724 -324.367180739 637.139556583 -324.367180739 c 0
 669.275921431 -324.367180739 700.417939485 -317.254422257 723.5 -301.5 c 0
 744.5 -287.166666667 763.5 -280 780.5 -280 c 0
 818.32480562 -280 847 -314.441950991 847 -354.5 c 0
 847 -376.833333333 836.333333333 -395 815 -409 c 0
 760.276145455 -445.020765017 694.597740067 -464.394768262 628.388581586 -464.394768262 c 0
 422.521859869 -464.394768262 283.630671875 -296.751074143 283.630671875 -90.9950756264 c 0
 283.630671875 35.4574080049 343.309487892 146.959837169 343.309487892 266.786589885 c 0
 343.309487892 353.996771804 302.496010367 426.524189489 224 434 c 1
 207.116883117 431.073593074 192.153033114 429.61038961 179.108449992 429.61038961 c 0
 131.24628555 429.61038961 100 460.221354068 100 497.5 c 0
 100 514.5 106.833333333 531.666666667 120.5 549 c 0
 134.166666667 566.333333333 164.666666667 575.333333333 212 576 c 1
 278.939393939 595.939393939 312.409090909 651.376951331 312.409090909 742.312672176 c 0
 312.409090909 853.691954136 260.624087591 981.364923667 260.624087591 1095.72017689 c 0
 260.624087591 1279.60659233 381.18927023 1433.76056338 580.075665917 1433.76056338 c 0
 689.084848288 1433.76056338 761.291657809 1395.09517522 824 1320 c 0
 835.333333333 1306.66666667 841 1290.83333333 841 1272.5 c 0
 841 1234.35649691 808.175197525 1204 769 1204 c 0
 748.333333333 1204 731 1212.66666667 717 1230 c 0
 683.616211795 1269.18966441 632.105893709 1294.02661893 578.251750917 1294.02661893 c 0
 463.667912153 1294.02661893 400.799200955 1197.05617781 400.799200955 1100.63545289 c 0
 400.799200955 996.757424332 453.528765904 842.865982917 453.528765904 732.837933006 c 0
 453.528765904 650.481392028 432.205946006 579.67041298 376 518 c 1
 446.630630631 460.486486486 481.945945946 377.965911856 481.945945946 270.438276111 c 0
 481.945945946 155.192417776 425.826923077 35.7971648299 425.826923077 -92.6737241122 c 0
EndSplineSet
EndChar

StartChar: bar
Encoding: 86 124 37
Width: 350
GlyphClass: 2
Flags: HW
LayerCount: 2
Fore
SplineSet
250 -295 m 2
 250 -329.739337444 217.968247739 -370 186 -370 c 0
 128.666666667 -370 100 -344.666666667 100 -294 c 2
 100 1211 l 2
 100 1251.99465301 132.980394927 1286 174 1286 c 2
 175 1286 l 2
 216.523120228 1286 250 1251.81745681 250 1210 c 2
 250 -295 l 2
EndSplineSet
EndChar

StartChar: asciitilde
Encoding: 88 126 39
Width: 910
GlyphClass: 2
Flags: HW
LayerCount: 2
Fore
SplineSet
882 933 m 2
 882 780.333333333 823.666666667 704 707 704 c 0
 651 704 595.333333333 723.666666667 540 763 c 2
 395 866 l 2
 363.666666667 888 333.333333333 899 304 899 c 0
 240.666666667 899 204.666666667 849.666666667 196 751 c 1
 123 751 l 1
 133.666666667 918.333333333 194.666666667 1002 306 1002 c 0
 338.666666667 1002 369 993 397 975 c 2
 609 839 l 2
 642.333333333 817.666666667 674.333333333 807 705 807 c 0
 771.666666667 807 806 854.666666667 808 950 c 1
 882 950 l 1
 882 933 l 2
EndSplineSet
EndChar

StartChar: anuswara
Encoding: 90 3330 41
Width: 824
GlyphClass: 2
Flags: HW
LayerCount: 2
Fore
SplineSet
623 305.5 m 0
 637.689950064 399.352458741 587.193739572 467.424896754 526 505 c 0
 445.265430597 554.573858405 347.795385473 527.795385473 293 473 c 0
 290.333333333 466.333333333 286.666666667 460 282 454 c 0
 162.926164308 306.724466383 308.451359091 106.568554352 475 147.5 c 0
 550.044960465 165.943252996 610.601454898 226.287072962 623 305.5 c 0
380 666 m 1
 547.336345684 697.198301738 684.597735481 585.404960375 735 475 c 0
 796.908822813 339.390197649 757.38206158 197.466621718 676.5 109.5 c 0
 596.591028439 22.5917024624 453.156509398 -32.8855237814 304.5 28.5 c 0
 194.326977425 73.9943327052 82.1521616732 205.217293385 101 356 c 0
 121.666666667 526 214.666666667 629.333333333 380 666 c 1
EndSplineSet
EndChar

StartChar: ml_a
Encoding: 92 3333 43
Width: 2693
GlyphClass: 2
Flags: HW
LayerCount: 2
Fore
SplineSet
2438.88476562 361.392578125 m 0
 2438.88476562 509.364257812 2341.63378906 610.146484375 2194.28613281 610.146484375 c 0
 2058.95703125 610.146484375 1954.29101562 487.450195312 1954.29101562 354.201171875 c 0
 1954.29101562 232.6796875 2079.79296875 110 2203.6796875 110 c 0
 2342.32519531 110 2438.88476562 215.485351562 2438.88476562 361.392578125 c 0
900.6796875 842 m 1
 779.239257812 781.279296875 650.678710938 626.764648438 650.678710938 443.987304688 c 0
 650.678710938 263.407226562 751.57421875 116.982421875 926.834960938 116.982421875 c 0
 1023.75683594 116.982421875 1098.4375 198.471679688 1098.4375 271.77734375 c 0
 1098.4375 339.896484375 1058.67285156 385.905273438 1007.6796875 404 c 0
 959.104492188 421.236328125 924.758789062 399.2890625 889.1796875 434 c 0
 875.512695312 447.333007812 868.6796875 461.666992188 868.6796875 477 c 0
 868.6796875 523.2890625 896.875 551.07421875 935.6796875 553.5 c 0
 991.889648438 557.012695312 1034.36035156 599.694335938 1034.36035156 660.368164062 c 0
 1034.36035156 737.23828125 956.209960938 808.317382812 900.6796875 842 c 1
928.5078125 -24.0537109375 m 0
 689.831054688 -24.0537109375 513.94140625 179.307617188 513.94140625 434.573242188 c 0
 513.94140625 633.169921875 611.544921875 798.341796875 727.6796875 896 c 1
 715.779296875 896.8671875 704.008789062 897.290039062 692.375976562 897.290039062 c 0
 446.3203125 897.290039062 239.4453125 714.021484375 239.4453125 465.862304688 c 0
 239.4453125 297.37109375 349.254882812 163.579101562 474.6796875 110 c 0
 497.997070312 100.932617188 516.6796875 72.22265625 516.6796875 40 c 0
 516.6796875 9.5791015625 483.591796875 -26 453.6796875 -26 c 0
 439.012695312 -26 427.012695312 -24 417.6796875 -20 c 0
 250.567382812 53.3369140625 100 232.422851562 100 457.087890625 c 0
 100 781.555664062 353.668945312 1038.25 694.271484375 1038.25 c 0
 766.599609375 1038.25 837.068359375 1024.16699219 905.6796875 996 c 1
 971.094726562 1019.70703125 1037.08691406 1031.56054688 1103.65820312 1031.56054688 c 0
 1315.22949219 1031.56054688 1458.89550781 938.293945312 1542.6796875 794 c 1
 1619.73144531 933.25 1763.69726562 1031.54394531 1969.38476562 1031.54394531 c 0
 2304.94433594 1031.54394531 2593.6015625 788.899414062 2593.6015625 438.346679688 c 0
 2593.6015625 193.813476562 2435.68066406 -24 2181.1796875 -24 c 0
 1971.60351562 -24 1815.32617188 147.483398438 1815.32617188 354.19140625 c 0
 1815.32617188 567.337890625 1976.4453125 751.256835938 2187.80273438 751.256835938 c 0
 2248.00683594 751.256835938 2300.96582031 741.504882812 2346.6796875 722 c 1
 2267.88085938 816.088867188 2125.25195312 892.348632812 1973.85644531 892.348632812 c 0
 1706.09179688 892.348632812 1615.6796875 713.1171875 1615.6796875 433 c 2
 1615.6796875 44 l 2
 1615.6796875 5.912109375 1584.11914062 -26 1546.1796875 -26 c 0
 1508.23242188 -26 1476.99023438 7.3193359375 1475.6796875 44 c 1
 1474.6796875 433 l 2
 1474.6796875 726.34375 1357.30957031 909.704101562 1066.6796875 890 c 1
 1133.67382812 822.423828125 1175.56640625 738.919921875 1175.56640625 656.4921875 c 0
 1175.56640625 603.735351562 1158.40429688 551.41796875 1119.6796875 504 c 1
 1188.26074219 456.173828125 1239.203125 377.8125 1239.203125 278.680664062 c 0
 1239.203125 106.412109375 1094.69140625 -24.0537109375 928.5078125 -24.0537109375 c 0
EndSplineSet
EndChar

StartChar: ml_aa
Encoding: 93 3334 44
Width: 2919
GlyphClass: 2
Flags: HW
LayerCount: 2
Fore
SplineSet
2178.07603306 106.963636364 m 0
 2341.52566883 106.963636364 2453.04761905 263.690818381 2453.04761905 432.188208617 c 0
 2453.04761905 473.427815571 2446.6984127 514.365079365 2434 555 c 1
 2379.06060606 579.252525253 2334.20454545 591.378787879 2299.43181818 591.378787879 c 0
 2124.78073362 591.378787879 2009.01459978 522.482836462 1967 412 c 0
 1957.91823899 388.100628931 1953.37735849 366.921383648 1953.37735849 348.462264151 c 0
 1953.37735849 242.501071969 2000.14796203 171.78794187 2075.56363636 132.981818182 c 0
 2109.27272727 115.636363637 2143.44352617 106.963636364 2178.07603306 106.963636364 c 0
925.5 404 m 0
 898.466930071 404 868 442.437538515 868 472 c 0
 868 503.198237622 893.834596764 538.921717266 920 542 c 0
 961.248713195 546.852789788 976.39293812 547.443073925 1006.32621951 576.800715291 c 0
 1024.54369918 594.667858818 1033.65243902 618.231883209 1033.65243902 647.492788462 c 0
 1033.65243902 728.348743872 955.880976782 800.803185298 895 836 c 1
 778.90618193 776.969245049 650.156682028 625.055717185 650.156682028 446.725562233 c 0
 650.156682028 304.216676421 714.261656072 198.475021317 803 148 c 0
 841.477419355 125.911111111 881.841218638 114.866666667 924.091397849 114.866666667 c 0
 966.341577061 114.866666667 998.977777778 123.577777778 1022 141 c 0
 1073.28205128 178.435897436 1098.92307692 220.408284024 1098.92307692 266.917159763 c 0
 1098.92307692 333.033866377 1060.52568663 376.51448395 1011 396 c 0
 978.214394447 408.435919348 960.326645363 404 925.5 404 c 0
1856 -172.5 m 0
 1856 -133.732320864 1887.38096136 -102 1926 -102 c 0
 1945.33333333 -102 1961.66666667 -108.666666667 1975 -122 c 0
 2054.54851789 -198.398081535 2148.39008381 -236.597122302 2256.52469777 -236.597122302 c 0
 2364.65931173 -236.597122302 2458.15107914 -202.064748201 2537 -133 c 0
 2591 -85 2628.19521605 -33.2075617284 2648.58564815 22.3773148148 c 0
 2668.97608025 77.9621913583 2679.1712963 122.901234568 2679.1712963 157.194444444 c 0
 2679.1712963 263.625171467 2650.44753087 354.227023319 2593 429 c 1
 2593.13793103 414.977407848 l 1
 2593.13793103 235.622530105 2486.21378557 76.969005353 2348.9889881 7.4880952381 c 0
 2295.64831349 -19.5198412698 2239.49156746 -33.0238095238 2180.51875 -33.0238095238 c 0
 2038.03707727 -33.0238095238 1937.38813891 38.9091869324 1871.88659794 132.122918319 c 0
 1832.47766323 188.204863865 1812.77319588 246.832011631 1812.77319588 308.004361618 c 0
 1812.77319588 463.596335492 1867.76066623 561.623275669 1971 636 c 0
 2057.99763593 698.529550827 2155.41686367 729.794326241 2263.25768322 729.794326241 c 0
 2287.63908589 729.794326241 2312.55319149 728.196217494 2338 725 c 1
 2267.12667258 803.505839601 2127.35628631 885.514084507 1990.06514085 885.514084507 c 0
 1748.48356899 885.514084507 1614.92857143 746.924735409 1614.92857143 504.642857143 c 0
 1614.92857143 463.071428572 1614.95238095 439.190476191 1615 433 c 2
 1615 42 l 2
 1615 3.88384329974 1583.44172911 -27 1545.5 -27 c 0
 1507.54969 -27 1476.3110385 5.2909220171 1475 42 c 1
 1474 432 l 2
 1474 579.369236683 1468.67070155 640.822394827 1414 728 c 0
 1362.66666667 808.666666667 1285 859 1181 879 c 0
 1155.98039216 883.745098039 1133.37254902 886.117647059 1113.17647059 886.117647059 c 0
 1092.98039216 886.117647059 1075.58823529 885.411764706 1061 884 c 1
 1135.92592593 809.703703704 1173.38888889 730.650205762 1173.38888889 646.839506173 c 0
 1173.38888889 590.123019 1155.92592593 539.843183609 1121 496 c 1
 1199.20512821 441.175786413 1238.30769231 365.544622705 1238.30769231 269.106508876 c 0
 1238.30769231 162.481848786 1179.84164701 82.9699130063 1119 38 c 0
 1062.24637681 -4.08695652173 1000.30812855 -25.1304347826 933.185255198 -25.1304347826 c 0
 792.128621807 -25.1304347826 680.400203407 33.5797101449 598 151 c 0
 540.851540616 233.610644258 512.277310924 325.693408205 512.277310924 427.24829184 c 0
 512.277310924 633.587826701 607.656510605 790.44346879 720 886 c 1
 709.188118812 886.646864687 698.526745744 886.97029703 688.015880796 886.97029703 c 0
 622.698362905 886.97029703 561.0330033 873.475247525 503.01980198 846.485148515 c 0
 388.980716975 793.429531427 310.640782981 712.934481922 268 605 c 0
 248.769953051 556.323943662 239.154929577 499.999251255 239.154929577 436.025922778 c 0
 239.154929577 287.029945183 348.406921872 156.406883628 455 102 c 0
 481 89.3333333333 494 66.3333333333 494 33 c 0
 494 2.80227531941 460.196074276 -31 430 -31 c 0
 414.666666667 -31 401.666666667 -28.3333333333 391 -23 c 0
 239.492660181 55.0845520604 99.5371428571 228.783203936 99.5371428571 445.608195918 c 0
 99.5371428571 601.766541497 152.024761905 734.230476191 257 843 c 0
 359.859232031 948.826325263 507.688894961 1028.3381295 701.564748201 1028.3381295 c 0
 767.049160671 1028.3381295 832.527577937 1015.558753 898 990 c 1
 964.418604651 1014.31007752 1023.45348837 1026.46511628 1075.10465116 1026.46511628 c 0
 1293.89221507 1026.46511628 1449.52399802 945.976744187 1542 785 c 1
 1597.33333333 884.333333333 1682 954.5 1796 995.5 c 0
 1852.31325301 1015.75301205 1911.2751004 1025.87951807 1972.88554217 1025.87951807 c 0
 2034.49598394 1025.87951807 2107.08433735 1012.73293173 2190.65060241 986.439759036 c 0
 2349.54365969 936.445869859 2486.35519071 797.342276492 2547 654 c 1
 2603.66666667 620.666666667 2652.66666667 578.666666667 2694 528 c 0
 2777.22448979 425.982883476 2818.83673469 308.475872508 2818.83673469 175.478967097 c 0
 2818.83673469 -8.51534478086 2734.50779745 -145.317061407 2629.5 -238 c 0
 2523.92377162 -331.184652278 2402.24618419 -377.776978417 2264.46723772 -377.776978417 c 0
 2096.76815542 -377.776978417 1971.85653059 -312.210167691 1878 -223 c 0
 1863.33333333 -209 1856 -192.166666667 1856 -172.5 c 0
EndSplineSet
EndChar

StartChar: ml_i
Encoding: 94 3335 45
Width: 1974
GlyphClass: 2
Flags: HW
LayerCount: 2
Fore
SplineSet
441.204101562 288.654296875 m 0
 536.71276896 288.654296875 615.64453125 367.588810287 615.64453125 463.094726562 c 0
 615.64453125 558.604102477 536.710017838 637.53515625 441.204101562 637.53515625 c 0
 345.694474752 637.53515625 266.763671875 558.602387922 266.763671875 463.094726562 c 0
 266.763671875 367.585021157 345.697224081 288.654296875 441.204101562 288.654296875 c 0
643.215490402 1028.02045018 m 0
 818.613800762 1028.02045018 954.343986929 937.028211579 1022.73046875 832.112304688 c 1
 1066.29166666 905.525065104 1121.02184555 956.895343176 1186.92100542 986.223138904 c 0
 1252.82016529 1015.55093463 1315.96662013 1030.2148325 1376.36036993 1030.2148325 c 0
 1517.77508728 1030.2148325 1635.39740881 978.30665033 1729.22733452 874.49028599 c 0
 1823.05726024 770.673921653 1869.9722231 648.978532481 1869.9722231 509.404118474 c 0
 1869.9722231 331.720509224 1786.08322941 191.011655831 1675.6953125 109 c 0
 1551.79627773 16.9503873103 1439.39123125 -3.75458539325 1233.8671875 -4.6416015625 c 2
 570.119140625 -7.5048828125 l 2
 543.806918962 -7.61875061597 500.562893017 -7.62686344039 469.1875 -8.21875 c 0
 372.669921875 -10.0403645833 306.354492187 -26.6803385417 270.241210938 -58.138671875 c 0
 249.274379203 -76.4025811151 238.790963335 -93.7613167304 238.790963335 -110.214878721 c 0
 238.790963335 -155.296897619 272.627698345 -178.572457149 311.157226562 -195.399414062 c 0
 337.118164062 -206.736653646 388.147786458 -212.422200521 464.24609375 -212.456054688 c 2
 1801.953125 -213.055664062 l 1
 1892.63908324 -211.812769278 1894.37204608 -354.403394114 1801.890625 -353.055664062 c 1
 464.18359375 -352.456054688 l 2
 295.129514626 -352.378892597 208.310771528 -324.997867314 141.580516688 -238.158838305 c 0
 113.860105939 -202.085043008 99.9999005649 -156.834549861 99.9999005649 -102.407358863 c 0
 99.9999005649 -47.9801678655 122.529230585 -1.1412565778 167.587890625 38.109375 c 0
 257.007198744 116.001717094 390.504154991 131.720252663 569.513671875 132.495117188 c 2
 1233.26367188 135.358398438 l 2
 1403.0553848 136.092567311 1493.28532691 147.888609467 1590.27929688 219.950195312 c 0
 1683.61787617 289.293724598 1730.28716582 380.725862136 1730.28716582 494.246607925 c 0
 1730.28716582 607.767353714 1696.26509187 702.170753259 1628.22094396 777.456806559 c 0
 1560.17679605 852.742859859 1478.08816489 890.385886509 1381.95505048 890.385886509 c 0
 1245.04693261 890.385886509 1133.126578 801.680357868 1108.35742188 675.6953125 c 0
 1101.04622396 638.504557292 1097.390625 582.239257813 1097.390625 506.899414062 c 2
 1097.390625 230.364257812 l 2
 1096.40240698 141.742170925 959.020512002 139.351928303 957.392578125 229.424804688 c 1
 955.552734375 503.459960938 l 2
 954.650156603 638.588747323 954.587243511 681.991765428 903.759765625 758.380859375 c 0
 852.355753426 835.635174402 757.418267189 888.696979164 628.518305626 888.696979164 c 0
 514.12744681 888.696979164 401.268231055 824.268689654 339.234375 748.438476562 c 1
 373.484253459 759.594040973 411.836413433 765.171823178 454.290854923 765.171823178 c 0
 546.987290954 765.171823178 638.244808348 702.102052755 681.875 648.739257812 c 0
 728.839404133 591.298525504 752.321606199 526.506198968 752.321606199 454.362278204 c 0
 752.321606199 358.821019308 716.681201008 280.367577615 645.400390625 219.001953125 c 0
 588.762977433 170.243899635 526.017322862 145.86487289 457.163426912 145.86487289 c 0
 388.309530962 145.86487289 327.546721991 163.823326718 274.875 199.740234375 c 0
 167.752384988 272.78556635 114.191077482 381.078560425 114.191077482 524.619216602 c 0
 114.191077482 619.543923481 144.008569884 711.847609093 203.643554688 801.530273438 c 0
 278.868815104 914.657877605 384.844075521 985.718098959 521.569335938 1014.7109375 c 0
 563.413123193 1023.58394595 603.961841347 1028.02045018 643.215490402 1028.02045018 c 0
EndSplineSet
EndChar

StartChar: ml_u
Encoding: 96 3337 47
Width: 1329
GlyphClass: 2
Flags: HW
LayerCount: 2
Fore
SplineSet
1229 -274.5 m 0
 1229 -313.787574637 1197.41308607 -344.059716798 1158 -344 c 2
 498 -343 l 2
 259.333333333 -342.333333333 127.666666667 -272.333333333 103 -133 c 0
 93.6666666667 -81 105.666666667 -32.6666666667 139 12 c 0
 205.666666667 101.333333333 306 144.333333333 440 141 c 0
 465.333333333 140.333333333 492 140 520 140 c 2
 657 138 l 2
 853.763826406 135.629351489 974.719643526 188.310422868 1036 330.5 c 0
 1103.20204732 487.666078398 1040.60331493 651.345348649 941 750.5 c 0
 807.721090492 883.178554059 555.858656968 941.090960702 378 812 c 1
 544.998463657 821.542769352 674.093486795 688.237589753 683.5 540.5 c 0
 689.166666667 451.5 661.5 375.666666667 600.5 313 c 0
 539.5 250.333333333 468.166666667 223.333333333 386.5 232 c 0
 163.068364231 255.711112367 36.729939763 514.845167738 145 742 c 0
 179 813.333333333 226 872 286 918 c 0
 400 1005.33333333 529.833333333 1039.83333333 675.5 1021.5 c 0
 951.321799745 986.785585844 1182.98344473 781.493106656 1201 496 c 0
 1205.66666667 418 1193.16666667 344 1163.5 274 c 0
 1085.16736269 86.184904681 915.334029353 -5.81509531899 654 -2 c 2
 517 0 l 2
 420.333333333 1.33333333333 357 -4 327 -16 c 0
 263 -42 234.333333333 -72.1666666667 241 -106.5 c 0
 247.666666667 -140.833333333 271.5 -166.833333333 312.5 -184.5 c 0
 340.500342442 -196.688384357 402.333675775 -202.855051024 498 -203 c 2
 1158 -204 l 2
 1196.5954053 -204 1229 -235.732754788 1229 -274.5 c 0
394.5 368 m 0
 485.356225099 368 560 442.999195475 560 534 c 0
 560 618.684516292 487.264095474 700 406 700 c 0
 296.833086617 700 228 628.462785511 228 534 c 0
 228 442.994558512 303.670163043 368 394.5 368 c 0
EndSplineSet
EndChar

StartChar: ml_r
Encoding: 98 3339 49
Width: 1680
GlyphClass: 2
Flags: HW
LayerCount: 2
Fore
SplineSet
790 128 m 2
 567.333333333 128 418 94 342 26 c 1
 270.713272856 -45.2867271435 257.685442082 -148.68977487 327 -234 c 0
 399.666666667 -323.333333333 534 -368 730 -368 c 2
 1019 -368 l 2
 1172.33333333 -368 1282 -329.666666667 1348 -253 c 0
 1422.43178871 -166.162913174 1426.2334765 -64.0939756292 1349 16 c 0
 1277.66666667 90.6666666667 1137.33333333 128 928 128 c 2
 790 128 l 2
1434 732 m 1
 1416.14675814 826.622181858 1338.36286706 905.979558642 1242 876 c 0
 1166.15996615 853.247989844 1116.70268493 757.995118315 1164 672 c 0
 1188.80652539 626.897226568 1249.55482039 586.538842853 1321 602.5 c 0
 1380.26397921 615.739825144 1428.44869052 666.772113577 1434 732 c 1
530.5 687 m 0
 592.428082417 810.856164833 462.774711741 921.28486774 351 870 c 0
 314.333333333 853.333333333 286.333333333 825.666666667 267 787 c 0
 267 786.333333333 265.166666667 779 261.5 765 c 0
 249.49708346 719.170682304 288.080452962 661.074195438 316 639.5 c 0
 357.797474376 607.201951618 417.154311555 597.1964971 471 625.5 c 0
 497 639.166666667 516.833333333 659.666666667 530.5 687 c 0
708 -508 m 2
 478.666666667 -510 316 -449 220 -325 c 0
 101.533731224 -178.581016119 121.925514222 6.56539689805 246 128 c 0
 286.666666667 168 336 199.666666667 394 223 c 1
 243.867152277 303.930988226 107.14735725 453.761758494 100.5 665 c 0
 97.5 760.333333333 127.5 846 190.5 922 c 0
 253.5 998 335.333333333 1031.66666667 436 1023 c 0
 612.739120258 1007.79663482 750.381981619 812.763963237 656 624 c 0
 628.666666667 569.333333333 589 528.666666667 537 502 c 0
 457.666666667 461.333333333 378 457 298 489 c 1
 301 486 l 1
 399.852634339 330.937044174 613.287198353 258.779947005 875 271 c 0
 1100.33333333 281.666666667 1262 347.666666667 1360 469 c 1
 1359.33333333 469 1358 468.333333333 1356 467 c 0
 1110.56479299 398.82355361 893.024707053 702.002904159 1065.5 918 c 0
 1123.09644214 990.130123796 1234.31358246 1051.83775029 1366 1009 c 0
 1546.68541062 950.222818232 1639.03879224 705.416090102 1539 492 c 0
 1484.33333333 376.666666667 1396.33333333 287.666666667 1275 225 c 1
 1413.96377058 174.708349696 1539.64739555 55.7226352797 1545.5 -107.5 c 0
 1548.5 -191.166666667 1522.66666667 -264.333333333 1468 -327 c 0
 1373.33333333 -443.666666667 1234.66666667 -503 1052 -505 c 2
 708 -508 l 2
EndSplineSet
EndChar

StartChar: ml_l
Encoding: 99 3340 50
Width: 2087
GlyphClass: 2
Flags: HW
LayerCount: 2
Fore
SplineSet
1797 379.5 m 0
 1770.9670153 461.740565305 1679.81140888 534.763478291 1569.5 516.5 c 0
 1457.22272992 497.911048 1363.18587463 384.899953291 1409 251.5 c 0
 1443.37384225 151.41145932 1552.10867695 87.6434707785 1680.5 139 c 0
 1725.5 157 1763.66666667 191.666666667 1795 243 c 1
 1811 287.666666667 1811.66666667 333.166666667 1797 379.5 c 0
679 253 m 0
 738.323552945 427.674905893 542.63608939 590.548085091 378 490.5 c 0
 310.443344553 449.446340151 253.63858173 357.080591556 292 247 c 1
 323.333333333 195 361.666666667 159.833333333 407 141.5 c 0
 536.85579731 88.9847878526 645.381389871 154.121734916 679 253 c 0
1025 -15 m 0
 992.758231419 -15 963.150298589 20.6413409334 962 54 c 1
 964 445 l 2
 964 588.81977374 955.033230288 664.48876617 897 748 c 0
 813.398318046 866.195481383 648.405611945 908.912963081 492 841 c 0
 377.333333333 791 300.666666667 703.666666667 262 579 c 1
 343.333333333 648.333333333 431.333333333 675 526 659 c 0
 678.932283784 633.152290065 795.024332256 530.507328945 823.5 379.5 c 0
 849.430587176 241.989310433 788.960027534 128.083579622 714.5 63 c 0
 626.888454559 -13.5789804593 497.524936473 -45.4688154146 357.5 10 c 0
 288.5 37.3333333333 230.333333333 86 183 156 c 0
 172.110389483 166.889610517 169.69218368 173.264072867 165 186 c 0
 39.8069021315 408.770071207 109.664125236 689.786013318 260 847 c 0
 347.323930721 938.919927075 481.509882807 1015.78753585 648.5 1013.5 c 0
 827.5010516 1011.0479308 962.784595134 917.681620674 1036 789 c 1
 1110.47345066 919.050652641 1246.59195369 1011.7198537 1427 1015 c 0
 1594.37838626 1018.04324339 1732.64139225 941.653636524 1821 851 c 0
 1926.33333333 743 1981.66666667 612 1987 458 c 0
 1991.44332273 321.145659681 1950.09965694 203.115817519 1876 117 c 0
 1806.23967313 35.4340793543 1681.90566894 -43.6269036655 1534 -15 c 0
 1409.63320843 9.07099191683 1314.06730847 94.5797391028 1276 205.5 c 0
 1232.16165746 333.235860164 1271.46738499 455.820739986 1337 534 c 0
 1391.66666667 600 1466.33333333 641 1561 657 c 0
 1655.66666667 673 1743.66666667 646.666666667 1825 578 c 1
 1803 646 1771 701.666666667 1729 745 c 0
 1642.33333333 833.666666667 1543.33333333 876.833333333 1432 874.5 c 0
 1272.98175863 871.167282366 1149.39914442 770.388346376 1119.5 622 c 0
 1110.5 577.333333333 1105.66666667 518.333333333 1105 445 c 2
 1102 53 l 2
 1101.10426623 12.6919802526 1073.61683761 -15 1025 -15 c 0
EndSplineSet
EndChar

StartChar: ml_e
Encoding: 100 3342 51
Width: 2253
GlyphClass: 2
Flags: HW
LayerCount: 2
Fore
SplineSet
1145 -2 m 1
 1149.66666667 -117.333333333 1178.33333333 -199 1231 -247 c 0
 1274.09448309 -285.558221716 1339.77454234 -307.262411523 1406 -278 c 0
 1496.70366758 -237.801783687 1521.13658584 -145.756061943 1523 -6 c 1
 1145 -2 l 1
1598 706 m 0
 1637.91780979 706 1668 679.747860814 1668 635 c 2
 1663 1 l 2
 1661.66666667 -130.333333333 1641.16666667 -225.166666667 1601.5 -283.5 c 0
 1538.99871648 -375.413652231 1438.22091585 -453.646110327 1292.5 -427 c 0
 1102.00802122 -392.167181023 1010.59545143 -221.020331315 1005 -0 c 1
 574 4 l 2
 538.937213285 4 504 35.6495438702 504 69 c 0
 504 103 517 125.666666667 543 137 c 0
 627.417552846 174.275283075 703.799521035 270.38092625 674 393.5 c 0
 651.140655616 487.945186006 560.387319349 570.225617569 445.5 563 c 0
 291.286063112 553.301010259 176.156731049 378.705381809 268 227.5 c 0
 295.333333333 182.5 334 151 384 133 c 0
 409.312333461 124.140683289 431 96.1320582242 431 62.5 c 0
 431 32.2030157557 398.360725532 -3 369 -3 c 0
 355 -3 344.333333333 -1.66666666667 337 1 c 0
 196.37386584 50.9745766022 73.1618264714 202.396270839 100 392.5 c 0
 123.300682161 557.546498639 262.354313472 692.191034675 438 703 c 0
 720.806412563 720.403471542 930.040501627 401.015182712 760 142 c 1
 1004 140 l 1
 1005 285 l 2
 1005 389.666666667 1009.66666667 470.333333333 1019 527 c 0
 1051 723.666666667 1142.66666667 868.333333333 1294 961 c 0
 1374 1009.66666667 1458.66666667 1033.33333333 1548 1032 c 0
 1729.33333333 1029.33333333 1878.66666667 953.333333333 1996 804 c 0
 2096 676 2148.33333333 518.666666667 2153 332 c 0
 2160.61554034 18.23973818 2024.93553134 -241.214712021 1857 -408 c 0
 1843 -422 1826.33333333 -429 1807 -429 c 0
 1768.64596132 -429 1737 -397.352938406 1737 -359 c 0
 1737 -339.666666667 1744 -323 1758 -309 c 0
 1840.66666667 -226.333333333 1904.66666667 -128.666666667 1950 -16 c 0
 2026 174 2035.33333333 359 1978 539 c 0
 1932.66666667 682.333333333 1851 784.666666667 1733 846 c 0
 1611.91369902 908.53907853 1473.32068168 906.713828792 1361 838 c 0
 1249.66666667 770 1181.66666667 659 1157 505 c 0
 1149 455.666666667 1145 382 1145 284 c 2
 1144 138 l 1
 1524 134 l 1
 1528 636 l 2
 1528 674.354038676 1559.64706159 706 1598 706 c 0
EndSplineSet
EndChar

StartChar: ml_ee
Encoding: 101 3343 52
Width: 2257
GlyphClass: 2
Flags: HW
LayerCount: 2
Fore
SplineSet
1181.28125 -5 m 1
 1186.61458333 -106.333333333 1222.94791667 -174.333333333 1290.28125 -209 c 0
 1407.5222227 -270.480022269 1512.55950416 -197.749205149 1528.28125 -101 c 0
 1531.61458333 -81.6666666667 1532.61458333 -50 1531.28125 -6 c 1
 1181.28125 -5 l 1
1040.28125 337 m 2
 1040.28125 561.935444851 1065.26833763 686.198563661 1169.78125 817 c 0
 1265.29508732 936.538790266 1427.30515131 1022.02780138 1633.28125 1010 c 0
 1890.13324994 994.891058827 2102.7338003 818.744970279 2105.28125 564 c 0
 2106.18514593 469.090926825 2051.80927876 365.175138803 1988.28125 304 c 1
 2088.33759309 240.921001095 2159.21085904 123.007831599 2157.78125 -19 c 0
 2156.78125 -118.333333333 2117.78125 -204 2040.78125 -276 c 0
 1963.78125 -348 1872.61458333 -381 1767.28125 -375 c 0
 1677.86998197 -371.916852826 1682.4893812 -228.747208747 1776.28125 -235 c 0
 1796.28125 -236.333333333 1816.28125 -234.666666667 1836.28125 -230 c 0
 1934.87208005 -208.567210858 2015.63930735 -129.529361718 2018.28125 -8 c 0
 2019.67007251 111.438735937 1928.00541778 204.933058667 1821.28125 220 c 0
 1750.48786383 228.849173271 1740.15430961 332.303672907 1808.28125 356 c 0
 1914.4076436 391.873710514 1998.73559607 516.568755044 1951.28125 653 c 0
 1909.20665593 772.990509009 1783.569999 859.884596839 1642.28125 869 c 0
 1481.61458333 879 1359.94791667 831.666666667 1277.28125 727 c 0
 1195.25518427 624.11984976 1180.28125 523.377714416 1180.28125 337 c 2
 1180.28125 135 l 1
 1528.28125 134 l 1
 1532.28125 636 l 2
 1532.28125 697.183077244 1608.90774473 729.373505272 1652.28125 686 c 0
 1666.28125 672 1673.11458333 652.5 1672.78125 627.5 c 0
 1671.28680081 515.416310507 1667.84515095 212.302228162 1670.78125 78.5 c 0
 1673.11458333 -27.8333333333 1671.11458333 -100 1664.78125 -138 c 0
 1633.8040411 -323.863253519 1413.00717005 -430.720341945 1225.28125 -333 c 0
 1109.28125 -272.333333333 1047.94791667 -163 1041.28125 -5 c 1
 570.28125 -3 l 2
 494.743853218 -3 475.103424815 105.683315555 545.28125 132 c 0
 626.890143471 162.603335051 712.983614729 259.495057485 682.28125 392 c 0
 659.789639852 489.069054324 564.138621522 574.54912858 446.28125 563.5 c 0
 295.554502043 549.369367379 180.987726253 381.401694642 270.28125 228 c 0
 296.28125 183.333333333 333.614583333 151.333333333 382.28125 132 c 0
 410.994522475 121.365454639 439.749922818 83.8776514636 422.28125 41 c 0
 410.707000517 12.5904785412 373.588117114 -15.6435384538 330.28125 2 c 0
 194.983832385 55.1938564982 77.551067692 204.641554943 103.78125 392 c 0
 127.003157093 557.870764952 262.305484343 686.994678849 435.28125 703.5 c 0
 522.614583333 711.833333333 603.114583333 689.5 676.78125 636.5 c 0
 750.447916667 583.5 798.614583333 508.833333333 821.28125 412.5 c 0
 843.947916667 316.166666667 825.28125 224 765.28125 136 c 1
 1040.28125 135 l 1
 1040.28125 337 l 2
EndSplineSet
EndChar

StartChar: ml_n
Encoding: 103 3346 54
Width: 1365
GlyphClass: 2
Flags: HW
LayerCount: 2
Fore
SplineSet
640.430664062 297.814453125 m 0
 640.430664062 397.348632812 554.754882812 472.814453125 459.4140625 472.814453125 c 0
 352.158203125 472.814453125 278.0625 379.53125 278.0625 285.322265625 c 0
 278.0625 183.98828125 388.981445312 115.206054688 470.788085938 115.206054688 c 0
 578.323242188 115.206054688 640.430664062 207.200195312 640.430664062 297.814453125 c 0
783.318359375 290.221679688 m 0
 783.318359375 129.3046875 657.154296875 -26.8837890625 466.235351562 -26.8837890625 c 0
 238.809570312 -26.8837890625 101.160531419 207.957012374 100 439.305664062 c 0
 98 838 408.072265625 1040.2421875 741.663085938 1040.2421875 c 0
 977.625 1040.2421875 1179.66601562 920.143554688 1179.66601562 699.619140625 c 0
 1179.66601562 623.96875 1132 524 1083.45800781 511 c 1
 1172 486 1265.7890625 375.427734375 1265.7890625 255.081054688 c 0
 1265.7890625 100.8046875 1141.43945312 -29.1591796875 976.15234375 -29.1591796875 c 0
 908.724609375 -29.1591796875 817.458007812 -9 817.458007812 59 c 0
 817.458007812 98 848.458007812 129 887.458007812 129 c 0
 917.24609375 129 947.059570312 110.40625 975.46484375 110.40625 c 0
 1056.56835938 110.40625 1125.64550781 181.658203125 1125.64550781 257.11328125 c 0
 1125.64550781 352.892648471 1048.89224782 406.179488859 969.967448284 406.179488859 c 0
 915.302140731 406.179488859 872.458007812 412.111437579 872.458007812 474 c 0
 872.458007812 503 896.7890625 526.889648438 925.458007812 532 c 0
 1004 546 1039.61132812 625.645507812 1039.61132812 697.692382812 c 0
 1039.61132812 831.076171875 897.568359375 899.651367188 745.737304688 899.651367188 c 0
 518.692234771 899.651367188 252 760 241.833277926 475.467743422 c 0
 241.697588238 471.670246764 241.888544835 467.845203177 242 464 c 1
 292 568 373.791992188 613.127929688 461.708007812 613.127929688 c 0
 625.056640625 613.127929688 783.318359375 484.001953125 783.318359375 290.221679688 c 0
EndSplineSet
EndChar

StartChar: k1
Encoding: 106 3349 57
Width: 1896
GlyphClass: 2
Flags: HW
LayerCount: 2
Fore
SplineSet
239.935163676 287.711143204 m 0
 239.935163676 196.27560208 315.787025492 122.099099099 404.79847415 122.099099099 c 0
 503.791692822 122.099099099 586.333333333 190.113575153 586.333333333 298.148148147 c 0
 586.333333333 301.753086418 586.222222222 305.370370369 586 309 c 0
 568.626793977 370.474421312 560.641309555 434.66875165 562 506 c 1
 386.156949308 498.966277973 239.935163676 431.949862623 239.935163676 287.711143204 c 0
1277 510 m 1
 702 508 l 1
 697.105218691 314.656138271 794.050523349 113.748299319 988.090147624 113.748299319 c 0
 1181.06638542 113.748299319 1283.28569144 311.372150514 1277 510 c 1
723 648 m 1
 1255 650 l 1
 1218.44313395 769.640652535 1131.52304737 884.379591836 988.737301123 884.379591836 c 0
 846.107459285 884.379591836 758.862697207 767.264318616 723 648 c 1
1467.07253493 -23.3976462133 m 0
 1413.71306769 -23.3976462133 1373 -3.43581935238 1373 49 c 0
 1373 104.410448026 1416.92879063 117.30098801 1469.47445276 117.30098801 c 0
 1568.96973118 117.30098801 1657.13793103 200.620280115 1657.13793103 303.910956232 c 0
 1657.13793103 334.493302794 1648.75862304 365.689650716 1632 397.5 c 0
 1596 465.833333333 1524.33333333 503 1417 509 c 1
 1424.02033596 228.186561501 1265.07984535 -24.0289993123 985.53875939 -24.0289993123 c 0
 850.679524329 -24.0289993123 740.353588728 53.3080140903 679 130 c 1
 628.034901841 48.0918065305 536.625838484 -18.902572051 411.406071493 -18.902572051 c 0
 247.76617295 -18.902572051 99.8959537581 115.453462192 99.8959537581 275.393397706 c 0
 99.8959537581 533.89402794 312.460306295 640.715036835 578 647 c 1
 621.475869988 841.362712888 756.724591914 1022.71220755 988.569651592 1022.71220755 c 0
 1219.81854697 1022.71220755 1355.45118774 843.32503437 1400 650 c 1
 1569.12557689 646.683812218 1695.62483992 578.092900901 1758.5 457 c 0
 1784.68576636 406.568153671 1796.48568882 355.063796329 1796.48568882 305.402216919 c 0
 1796.48568882 129.433956267 1648.33394042 -23.3976462133 1467.07253493 -23.3976462133 c 0
EndSplineSet
EndChar

StartChar: k2
Encoding: 107 3350 58
Width: 1727
GlyphClass: 2
Flags: HW
LayerCount: 2
Fore
SplineSet
652 286 m 0
 653.2939611 373.989354791 582.18805169 452.91158086 504 461 c 0
 429.333333333 467.666666667 372.833333333 443.833333333 334.5 389.5 c 0
 296.166666667 335.166666667 289.666666667 278 315 218 c 1
 385.902018719 121.494474521 512.708248216 79.7082482162 603 170 c 0
 635 202 651.333333333 240.666666667 652 286 c 0
1623 69 m 2
 1623 30.645961324 1591.35293841 -1 1553 -1 c 2
 904 -1 l 2
 873.333333333 -1 850.666666667 15.3333333333 836 48 c 0
 821.333333333 80.6666666667 839 112 889 142 c 0
 943.746357131 174.847814278 1008.10435419 256.760885465 1035 324 c 0
 1113.99331689 519.159959386 1029.94216437 702.5247616 911.5 796.5 c 0
 840.5 852.833333333 765.333333333 882 686 884 c 0
 528 888.666666667 405.666666667 830 319 708 c 0
 276.333333333 647.333333333 251.333333333 577.666666667 244 499 c 1
 297.971239716 559.246965264 390.041502339 612.043666444 506 601 c 0
 662.982207471 586.960940795 794.738639829 452.61100943 792 283.5 c 0
 789.339041067 119.185785887 653.64617798 -16.5280216907 488 -18.5 c 0
 302.222859898 -20.7116326203 180.884374101 127.138185064 130.5 272.5 c 0
 64.9189170464 461.705193349 113.583739284 659.351730051 205.5 790 c 0
 297.27326979 920.445024985 464.137290661 1031.03921466 674 1025 c 0
 931.908548497 1017.91460032 1130.32319299 833.525944898 1187.5 616.5 c 0
 1218.5 498.833333333 1211 384 1165 272 c 0
 1145.66666667 224.666666667 1119.66666667 180.333333333 1087 139 c 1
 1483 139 l 1
 1486 955 l 1
 1486 970 l 2
 1486 996.691166731 1525.8224723 1026 1556 1026 c 0
 1586.11978459 1026 1627 996.678774682 1627 970 c 0
 1627 960 1626.66666667 955 1626 955 c 2
 1623 69 l 2
EndSplineSet
EndChar

StartChar: k3
Encoding: 108 3351 59
Width: 1819
GlyphClass: 2
Flags: HW
LayerCount: 2
Fore
SplineSet
1266 -22 m 0
 1239.61454217 -22 1206 13.8501219445 1206 41 c 0
 1206 83.6666666667 1230.33333333 110.333333333 1279 121 c 0
 1442.29655415 155.020115445 1579.87390695 323.812589934 1579.87390695 509.793592057 c 0
 1579.87390695 722.639146509 1434.66434746 883.43452359 1226.07742997 883.43452359 c 0
 1037.29955508 883.43452359 966 745.129378334 966 547 c 2
 966 455 l 2
 966 179.834078363 848.046798594 -17.6051521633 576.727526174 -17.6051521633 c 0
 300.973770946 -17.6051521633 99.7451560432 219.514873178 99.7451560432 476.650374209 c 0
 99.7451560432 746.193556097 257.543897553 939.258112473 455 1019 c 0
 463.666666667 1023 475.166666667 1025 489.5 1025 c 0
 519.266915305 1025 552 990.068853141 552 959.5 c 0
 552 926.846144096 531.484566185 899.13288685 508 890 c 0
 359.850616836 829.735844137 239.315652043 684.471873556 239.315652043 482.602728531 c 0
 239.315652043 299.496267651 383.450287089 120.134199135 576.791158334 120.134199135 c 0
 766.145518354 120.134199135 826 257.917051094 826 455 c 2
 826 547 l 2
 826 830.524883219 962.630077916 1024.44443213 1229.58339212 1024.44443213 c 0
 1515.44499481 1024.44443213 1719.74176085 797.534443982 1719.74176085 513.307556841 c 0
 1719.74176085 240.722339116 1521.68586399 31.2356307307 1293 -20 c 0
 1287.66666667 -21.3333333333 1278.66666667 -22 1266 -22 c 0
EndSplineSet
EndChar

StartChar: k4
Encoding: 109 3352 60
Width: 2345
GlyphClass: 2
Flags: HW
LayerCount: 2
Fore
SplineSet
1757 541 m 2
 1757 767 1665 883 1442 883 c 0
 1233 883 1146 745 1146 517 c 1
 1145 438 l 1
 1755 442 l 1
 1757 522 l 1
 1757 541 l 2
1439 1024 m 0
 1742 1024 1896 854 1896 539 c 0
 1896 532 1896 525 1896 518 c 2
 1893 371 l 2
 1892 334 1862 303 1824 303 c 2
 1145 298 l 1
 1145 140 l 1
 2102 140 l 1
 2103 947 l 1
 2103 948 l 2
 2103 986 2135 1018 2173 1018 c 0
 2203 1018 2243 989 2243 962 c 2
 2243 947 l 1
 2242 70 l 2
 2242 32 2210 0 2172 0 c 2
 1075 0 l 2
 1037 0 1005 32 1005 70 c 2
 1005 297 l 1
 560 294 l 2
 524 294 490 325 490 360 c 0
 490 400 514 422 547 434 c 0
 635 465 678 555 678 645 c 0
 678 756 610 881 478 881 c 0
 342 881 240 774 240 640 c 0
 240 543 302 468 374 437 c 0
 400 426 416 399 416 372 c 0
 416 339 386 302 353 302 c 0
 338 302 326 304 317 309 c 0
 200 360 100 483 100 641 c 0
 100 849 257 1020 469 1020 c 0
 664.03125 1020 830 838.962309421 830 636 c 0
 830 567 808 500 763 435 c 1
 1005 437 l 1
 1006 517 l 1
 1006 824 1155 1024 1439 1024 c 0
EndSplineSet
EndChar

StartChar: ng
Encoding: 110 3353 61
Width: 2048
GlyphClass: 2
Flags: HW
LayerCount: 2
Fore
SplineSet
377 498 m 0
 319 465 282 406 282 320 c 0
 282 217 384 121 512 121 c 0
 616 121 700 245 700 329 c 0
 700 431 592 534 499 534 c 0
 461 534 421 522 377 498 c 0
1807 258 m 0
 1807 349 1704 378 1596 379 c 1
 1536 379 l 2
 1501 379 1466 410 1466 444 c 0
 1466 490 1496 519 1534 521 c 2
 1603 524 l 2
 1724 530 1797 566 1797 662 c 0
 1797 798 1657 875 1510 875 c 0
 1253 875 1145 710 1145 437 c 0
 1145 432 1145 428 1145 423 c 2
 1147 46 l 2
 1147 8 1114 -25 1076 -25 c 0
 1037 -25 1006 7 1005 45 c 2
 1002 424 l 2
 1000 684 916 874 663 874 c 0
 476 874 327 752 271 596 c 1
 336 648 406 674 480 674 c 0
 682 674 838 528 838 323 c 0
 838 129 688 -16 497 -16 c 0
 248 -16 100 210 100 445 c 0
 100 749 346 1016 650 1016 c 0
 849 1016 992 923 1073 779 c 1
 1155 924 1297 1017 1511 1017 c 0
 1737 1017 1938 879 1938 662 c 0
 1938 583 1871 473 1791 449 c 1
 1893 435 1948 342 1948 253 c 0
 1948 91 1816 -23 1655 -23 c 0
 1587 -23 1521 -2 1467 36 c 0
 1446 50 1436 68 1436 91 c 0
 1436 132 1464 166 1503 166 c 0
 1520 166 1538 160 1556 147 c 0
 1579 131 1622 118 1663 118 c 0
 1746 118 1807 193 1807 258 c 0
EndSplineSet
EndChar

StartChar: ch1
Encoding: 111 3354 62
Width: 1523
GlyphClass: 2
Flags: HW
LayerCount: 2
Fore
SplineSet
523 301 m 0
 523 271 488 238 458 238 c 0
 378 238 360 345 360 415 c 0
 360 589 497 744 673 744 c 0
 875 744 1037 587 1037 385 c 0
 1037 297 1007 208 951 139 c 1
 1283 140 l 1
 1283 954 l 1
 1285 994 1314 1025 1348 1025 c 0
 1391 1025 1423 996 1423 955 c 2
 1423 70 l 2
 1423 32 1391 0 1353 0 c 2
 121 -4 l 1
 106 -4 l 2
 80 -4 50 36 50 66 c 0
 50 104 82 136 120 136 c 2
 121 136 l 1
 682 138 l 1
 797 153 899 257 899 375 c 0
 899 504 807 606 686 606 c 0
 577 606 501 505 501 411 c 0
 501 365 523 337 523 301 c 0
EndSplineSet
EndChar

StartChar: ch2
Encoding: 112 3355 63
Width: 2478
GlyphClass: 2
Flags: HW
LayerCount: 2
Fore
SplineSet
1737.28775502 414.80050795 m 0
 1737.28775502 269.700200301 1841.96185727 138.253912372 1980.85559421 138.253912372 c 0
 2139.0892497 138.253912372 2238.733627 289.904319783 2238.733627 445.358521265 c 0
 2238.733627 585.786821175 2176.42250234 690.074128192 2096 767 c 1
 1885.7773097 775.408907613 1737.28775502 619.810870976 1737.28775502 414.80050795 c 0
500.418677375 415.926643845 m 0
 500.418677375 376.481739076 523 342.15329345 523 309 c 0
 523 279.084023797 488.45002688 246 458 246 c 0
 377.96555861 246 360.354834073 353.01961265 360.354834073 422.99003367 c 0
 360.354834073 607.209370779 507.002908879 753 685.777777778 753 c 0
 895.449876069 753 1037.69551615 577.573620161 1037.69551615 388.930590992 c 0
 1037.69551615 289.453892057 1005.51379496 211.269300074 946 141 c 1
 1305 139 l 1
 1241.9680186 237.604485763 1212.73868181 345.756958543 1212.73868181 451.692286267 c 0
 1212.73868181 764.760944457 1468.57067479 1030.26799556 1784.19032238 1030.26799556 c 0
 2108.42968592 1030.26799556 2378.94937796 777.426120694 2378.94937796 449.890058369 c 0
 2378.94937796 216.139937697 2224.18003222 -2.96141772602 1990.75679294 -2.96141772602 c 0
 1979.89990292 -2.96141772602 1968.97110942 -2.32617806189 1958 -1 c 0
 1745.89562124 24.7096216681 1596.39696149 193.607940968 1596.39696149 419.695143798 c 0
 1596.39696149 647.682695932 1737.24745488 808.565339647 1906 874 c 1
 1864.46153846 885.50295858 1823.80791989 891.25443787 1784.03914429 891.25443787 c 0
 1548.24470395 891.25443787 1351.73509934 695.231706195 1351.73509934 452.782816543 c 0
 1351.73509934 312.731940703 1421.93451989 191.327786591 1502 121 c 0
 1518 107 1526 89.8333333333 1526 69.5 c 0
 1526 29.9071365086 1495.1461097 -2 1456 -2 c 2
 121 4 l 1
 120 4 l 2
 81.645961324 4 50 35.647061594 50 74 c 0
 50 104.222539198 79.2639969001 144 106 144 c 2
 121 144 l 1
 661 142 l 2
 794 142 897.424753929 225.735131966 897.424753929 395.152742992 c 0
 897.424753929 506.147375192 811.997829426 611.548330412 689.610960699 611.548330412 c 0
 580.226766647 611.548330412 500.418677375 529.666392856 500.418677375 415.926643845 c 0
EndSplineSet
EndChar

StartChar: ch3
Encoding: 113 3356 64
Width: 1529
GlyphClass: 2
Flags: HW
LayerCount: 2
Fore
SplineSet
254.274801401 185.547960833 m 0
 254.274801401 132.431165118 323.624466522 104.870071536 390.742979147 104.870071536 c 0
 522.560369259 104.870071536 593.172457398 146.481646086 759.146484375 248.01171875 c 1
 652.977371021 257.845946544 536.475347072 274.258460321 426.330097427 274.258460321 c 0
 336.774807681 274.258460321 254.274801401 252.527579982 254.274801401 185.547960833 c 0
1283.07237798 669.754626719 m 0
 1283.07237798 794.810822875 1177.82339768 889.523545692 1052.65356181 889.523545692 c 0
 935.432465705 889.523545692 859.134645666 794.346770401 858.322265625 665.551757812 c 0
 858.107421875 639.850585937 857.655598958 620.81640625 856.966796875 608.44921875 c 2
 854.771484375 490.98828125 l 2
 853.75562977 454.134619242 821.299150341 423 783.5 423 c 0
 746.613852098 423 714.784411865 455.767840144 714.784411865 492.361929987 c 0
 714.784411865 492.556284341 714.785309698 492.750746624 714.787109375 492.9453125 c 2
 715.859375 608.72265625 l 2
 715.953125 634.240885417 716.16015625 647.170572917 716.48046875 647.51171875 c 0
 707.384536796 768.869515451 606.064470565 883.491822128 464.764764034 883.491822128 c 0
 457.096443296 883.491822128 449.359751118 883.137777252 441.5546875 882.4296875 c 1
 441.8515625 882.143229167 442.418945313 881.884114583 443.256835938 881.65234375 c 0
 511.081901978 850.716541477 582.722584815 770.563745812 582.722584815 671.813887553 c 0
 582.722584815 529.365038222 474.350141097 449.734042553 345.509959259 449.734042553 c 0
 190.829467474 449.734042553 103.443478261 555.851181819 103.443478261 696.724725899 c 0
 103.443478261 888.072090094 269.483849562 1024.07832363 461.678812721 1024.07832363 c 0
 587.631026045 1024.07832363 703.322239536 960.378369003 772.74609375 871.9140625 c 1
 828.981200758 966.155066286 923.876827989 1029.91256392 1047.74758272 1029.91256392 c 0
 1243.99697807 1029.91256392 1423.7057497 878.90454534 1423.7057497 684.586723126 c 0
 1423.7057497 565.117456779 1377.18995928 466.845675078 1295.96484375 391.0390625 c 1
 1365.00277753 357.028062865 1429.3820646 286.707373564 1429.3820646 188.235075199 c 0
 1429.3820646 61.5344191349 1330.12747068 -37.2571485098 1205.34292604 -37.2571485098 c 0
 1073.02049761 -37.2571485098 981.706473776 74.4105136639 981.706473776 185.337369128 c 0
 981.706473776 196.067615205 982.499628351 206.955158828 984.0859375 218 c 1
 822.821240665 130.804401128 579.826942076 -37.6610037214 388.996805674 -37.6610037214 c 0
 248.707216645 -37.6610037214 114.033316599 44.4828454499 114.033316599 185.225985325 c 0
 114.033316599 339.564530301 246.075528663 406.989830094 399.849807553 406.989830094 c 0
 569.180158403 406.989830094 724.824234183 388.645989305 883.859305099 388.645989305 c 0
 1091.87699571 388.645989305 1283.07237798 473.655074574 1283.07237798 669.754626719 c 0
338.139648438 565.243164062 m 0
 397.304696899 565.243164062 446.139648438 614.079807961 446.139648438 673.243164062 c 0
 446.139648438 732.407961532 397.301961676 781.243164062 338.139648438 781.243164062 c 0
 278.975888875 781.243164062 230.139648438 732.405218114 230.139648438 673.243164062 c 0
 230.139648438 614.079153507 278.976551523 565.243164062 338.139648438 565.243164062 c 0
1200.14550781 94.033203125 m 0
 1255.86678609 94.033203125 1304.81542969 133.140754264 1304.81542969 184.770507812 c 0
 1304.81542969 245.178917514 1264.44887252 289.430664062 1215.88964844 289.430664062 c 0
 1160.16780115 289.430664062 1111.21972656 250.322346506 1111.21972656 198.692382812 c 0
 1111.21972656 138.28408084 1151.58598824 94.033203125 1200.14550781 94.033203125 c 0
EndSplineSet
EndChar

StartChar: ch4
Encoding: 114 3357 65
Width: 3144
GlyphClass: 2
Flags: HW
LayerCount: 2
Fore
SplineSet
891.435546875 820.7890625 m 1
 763.018421795 749.043721756 672.514480745 616.768888445 651.9453125 435.364257812 c 0
 643.078125 357.157226563 659.573567708 283.912109375 701.431640625 215.62890625 c 0
 743.290364583 147.346354167 801.089518229 112.3125 874.829101562 110.52734375 c 0
 948.569335937 108.7421875 1007.99479167 140.776692708 1053.10546875 206.630859375 c 0
 1144.24750114 339.684546798 1122.38387836 526.041141198 1045.4921875 658.650390625 c 0
 1005.72005208 727.243489583 954.367838542 781.289713541 891.435546875 820.7890625 c 1
500.481445312 47.82421875 m 0
 500.481445312 17.246627159 475.60425609 -21.6181640625 441.838867188 -21.6181640625 c 0
 422.500976563 -21.6181640625 407.653645833 -18.8313802083 397.296875 -13.2578125 c 0
 236.880467116 70.1724548611 100.255762562 246.280365673 100 475.841796875 c 0
 99.7464352653 704.736856319 236.043912197 881.8523847 395.197265625 965.07421875 c 0
 555.322693615 1048.80375135 737.310477343 1048.38350295 894.677734375 977.470703125 c 1
 1217.67845503 1106.03008274 1529.81776329 934.356594561 1591.10839844 667.514648438 c 0
 1602.39420573 618.377278646 1610.09960938 559.456380208 1614.22460938 490.751953125 c 2
 1618.91796875 412.55859375 l 2
 1627.72372189 265.878829018 1649.45162701 168.859335474 1749.00488281 119.03125 c 0
 1809.46321614 88.7701822917 1865.93326823 101.276692708 1918.41503906 156.55078125 c 0
 1970.89746094 211.824869791 1997.70833334 306.73046875 1998.84765625 441.267578125 c 0
 1998.94921875 467.755859375 1998.63151042 494.373046875 1997.89453125 521.119140625 c 2
 1990.2421875 918.94140625 l 2
 1990.24091063 957.317810143 2021.63989176 989.31640625 2059.76464844 989.31640625 c 0
 2097.69106418 989.31640625 2128.96686574 958.459213353 2130.21484375 921.685546875 c 2
 2138.11328125 526.3359375 l 2
 2138.85026042 489.474609375 2139.21875 462.845703125 2139.21875 446.44921875 c 0
 2155.12275082 304.87370841 2242.28280194 194.138891765 2357.30078125 140.000976562 c 0
 2457.56640625 92.8076171873 2559.74609375 89.954752604 2663.83984375 131.442382812 c 0
 2767.93359375 172.930013021 2839.75878906 246.733398437 2879.31542969 352.852539062 c 0
 2918.85970052 458.937825521 2912.59602865 562.244791667 2860.52441406 662.7734375 c 0
 2808.45214843 763.303385417 2727.68457031 828.019205729 2618.22167969 856.920898438 c 0
 2564.67154948 871.060221354 2511.79752605 873.938802083 2459.59960938 865.556640625 c 0
 2455.6171875 864.862630208 2447.78678385 864.515625 2436.10839844 864.515625 c 0
 2408.21010598 864.515625 2377.56542969 902.360824491 2377.56542969 932.55078125 c 0
 2377.56542969 968.980199553 2405.39309364 999.087994477 2437.40234375 1003.78710938 c 0
 2606.84311655 1030.99493212 2751.63744903 972.572709382 2847.97070312 895.3828125 c 0
 2993.8284822 778.514225582 3100.74711705 544.724195603 3010.93457031 303.791015625 c 0
 2958.9906533 164.446383203 2851.30010227 54.9904807872 2714.24902344 0.3671875 c 0
 2573.47233073 -55.7408854167 2434.55859375 -51.5416666667 2297.5078125 12.96484375 c 0
 2215.53580729 51.5475260417 2148.39583333 107.133463542 2096.08789062 179.72265625 c 1
 2046.16015625 58.837890625 1966.67024739 -11.0592447917 1857.61816406 -29.96875 c 0
 1796.36425781 -40.58984375 1738.88639323 -32.4612630208 1685.18457031 -5.5830078125 c 0
 1543.2544022 65.4527369758 1491.63236594 196.545552042 1479.16992188 404.16796875 c 2
 1474.4765625 482.361328125 l 2
 1467.46728373 599.133593125 1458.5195902 662.322739183 1410.65527344 734.15625 c 0
 1345.81308684 831.469173666 1219.35470739 898.534523404 1050.85546875 874.474609375 c 1
 1174.38541666 761.091796875 1241.42513021 619.852864583 1251.97460938 450.7578125 c 0
 1264.4553721 250.735665032 1177.32179069 89.7232431684 1041.73046875 13.0849609375 c 0
 934.968960744 -47.2582709522 803.291630475 -41.7326631373 703.348632812 21.521484375 c 0
 573.499797374 103.703103732 492.124813478 268.480176649 515.01953125 470.3984375 c 0
 534.766102694 644.54770734 623.581730563 789.319257322 734.34765625 881.947265625 c 1
 531.559687226 919.322939198 372.617591848 810.625925329 299.458984375 689.6640625 c 0
 220.535595484 559.167614268 220.852469397 392.570167526 299.93359375 262.466796875 c 0
 339.8046875 196.873046875 393.791015625 146.3671875 461.892578125 110.94921875 c 0
 480.579287942 101.565312572 500.481445312 74.7552828759 500.481445312 47.82421875 c 0
EndSplineSet
EndChar

StartChar: nj
Encoding: 115 3358 66
Width: 2517
GlyphClass: 2
Flags: HW
LayerCount: 2
Fore
SplineSet
487 498 m 0
 376 498 293 408 293 299 c 0
 293 193 378 119 479 119 c 0
 588 119 673 198 673 303 c 0
 673 405 586 498 487 498 c 0
1658 814 m 1
 1530 728 1448 583 1448 386 c 0
 1448 250 1532 105 1664 105 c 0
 1808 105 1882 251 1882 391 c 0
 1882 588 1780 735 1658 814 c 1
482 -21 m 0
 244 -21 99 210 99 445 c 0
 99 764 319 1022 637 1022 c 0
 819 1022 966 919 1039 802 c 1
 1115 933 1235 1025 1420 1025 c 0
 1497 1025 1576 1006 1658 967 c 1
 1744 1007 1819 1027 1884 1027 c 0
 2183 1027 2417 770 2417 481 c 0
 2417 274 2336 109 2176 -16 c 0
 2163 -27 2149 -31 2135 -31 c 0
 2097 -31 2063 3 2063 42 c 0
 2063 63 2073 81 2092 96 c 0
 2185 167 2276 304 2276 454 c 0
 2276 677 2126 886 1891 886 c 0
 1863 886 1835 882 1806 876 c 1
 1936 758 2021 603 2021 390 c 0
 2021 170 1890 -33 1666 -33 c 0
 1438 -33 1309 176 1309 401 c 0
 1309 605 1383 758 1511 876 c 1
 1479 884 1449 887 1420 887 c 0
 1256 887 1137 765 1127 656 c 0
 1118 562 1114 503 1114 480 c 2
 1115 38 l 2
 1115 5 1084 -34 1043 -34 c 0
 1005 -34 976 6 975 36 c 1
 975 38 l 1
 973 476 l 2
 972 578 962 649 943 690 c 0
 891 798 787 883 644 883 c 0
 394 883 266 695 230 466 c 1
 280 560 375 621 513 621 c 0
 689 621 813 465 813 304 c 0
 813 124 664 -21 482 -21 c 0
EndSplineSet
EndChar

StartChar: t1
Encoding: 116 3359 67
Width: 1134
GlyphClass: 2
Flags: HW
LayerCount: 2
Fore
SplineSet
1034.63934426 283.965063149 m 0
 1034.63934426 64.4632264834 811.185944757 -29.3168316832 588.568669738 -29.3168316832 c 0
 392.717609385 -29.3168316832 236.528052805 32.7887788779 120 157 c 0
 106.666666667 170.333333333 100 186.666666667 100 206 c 0
 100 244.882062309 131.8229278 276 171 276 c 0
 191 276 208 268.333333333 222 253 c 0
 311.696969696 158.177489178 434.335525943 110.766233767 589.915668742 110.766233767 c 0
 741.860634005 110.766233767 895.537735849 157.645266956 895.537735849 287.743147028 c 0
 895.537735849 420.868496262 747.340225457 446 574 446 c 0
 297.828741402 446.989861142 112.867903768 527.009622402 112.867903768 739.616939512 c 0
 112.867903768 919.324462577 314.28692618 1037.12315271 549.153004381 1037.12315271 c 0
 734.880170117 1037.12315271 877.16250199 972.748846092 976 844 c 0
 986 831.333333333 991 816.166666667 991 798.5 c 0
 991 760.697863281 957.424416127 731 918 731 c 0
 896.666666667 731 879 740.333333333 865 759 c 0
 794.324200913 851.073059361 687.07143304 897.109589041 543.241696381 897.109589041 c 0
 402.144750864 897.109589041 252.597132829 841.214167845 252.597132829 736.119421589 c 0
 252.597132829 607.39790235 411.935455609 588.795958367 561 587 c 0
 837.703753771 583.065823406 1034.63934426 509.264600341 1034.63934426 283.965063149 c 0
EndSplineSet
EndChar

StartChar: t2
Encoding: 117 3360 68
Width: 1238
GlyphClass: 2
Flags: HW
LayerCount: 2
Fore
SplineSet
617.954101562 124 m 0
 838.235693053 124 998.454101562 298.039926674 998.454101562 502.5 c 0
 998.454101562 704.067726432 838.877306484 881 621.454101562 881 c 0
 400.852243426 881 240.361649025 711.239014735 240.361649025 503.904959059 c 0
 240.361649025 288.498551126 404.669253985 124 617.954101562 124 c 0
99.9518085323 499.012009898 m 0
 99.9518085323 799.511542635 320.46552013 1021 622.454101562 1021 c 0
 915.640485332 1021 1138.45410156 796.323885285 1138.45410156 503 c 0
 1138.45410156 219.183847468 903.968214994 -16 620.454101562 -16 c 0
 326.486122614 -16 99.9518085323 205.963794456 99.9518085323 499.012009898 c 0
EndSplineSet
EndChar

StartChar: t4
Encoding: 119 3362 70
Width: 2554
GlyphClass: 2
Flags: HW
LayerCount: 2
Fore
SplineSet
1871.03515625 683.641601562 m 0
 1871.03515625 570.379882812 1963.86230469 483.083007812 2072.41992188 483.083007812 c 0
 2190.61523438 483.083007812 2280.96875 577.255859375 2280.96875 690.627929688 c 0
 2280.96875 812.7265625 2165.55664062 885.295898438 2077.5703125 885.295898438 c 0
 1958.89550781 885.295898438 1871.03515625 807.22265625 1871.03515625 683.641601562 c 0
910.530273438 374.787109375 m 0
 910.530273438 430.961914062 915.666015625 491.258789062 915.666015625 542.75390625 c 0
 915.666015625 734.416992188 803.58203125 882.151367188 611.591796875 882.151367188 c 0
 398.897460938 882.151367188 240.0859375 694.568359375 240.0859375 484.806640625 c 0
 240.0859375 259.231445312 406.846679688 115.321289062 634.326171875 115.321289062 c 0
 661.088867188 115.321289062 690.526367188 75.625 690.526367188 45.47265625 c 0
 690.526367188 -0.0048828125 654.592773438 -24.849609375 608.329101562 -24.849609375 c 0
 319.65234375 -24.849609375 100 193.420898438 100 482.8984375 c 0
 100 775.811523438 335.715820312 1022.48632812 607.251953125 1022.48632812 c 0
 885.19140625 1022.48632812 1056.15234375 817.0859375 1056.15234375 536.627929688 c 0
 1056.15234375 491.055664062 1052.34082031 433.837890625 1052.34082031 393.647460938 c 0
 1052.34082031 241.887695312 1072.28320312 114.98828125 1202.21191406 114.98828125 c 0
 1386.89355469 114.98828125 1416.1953125 349.727539062 1417.26464844 557.973632812 c 2
 1419.34277344 962.598632812 l 2
 1419.97460938 1002.32617188 1448.546875 1032.40722656 1494.63183594 1032.40722656 c 0
 1528.54296875 1032.40722656 1559.35351562 997.806640625 1559.35351562 962.400390625 c 2
 1559.35351562 962.204101562 l 1
 1557.44726562 555.057617188 l 1
 1557.44726562 555.057617188 1556.23730469 513.241210938 1556.23730469 481.275390625 c 0
 1556.23730469 257.583007812 1689.89257812 109.41796875 1902.19433594 109.41796875 c 0
 2098.36035156 109.41796875 2236.02050781 287 2295.3203125 432.813476562 c 1
 2238.02050781 367 2138.69433594 341.375 2076.3984375 341.568359375 c 0
 1874.28515625 342.197265625 1732.45019531 504.458984375 1732.45019531 687.62890625 c 0
 1732.45019531 867.838867188 1885.76074219 1026.69726562 2074.69042969 1026.69726562 c 0
 2301.82226562 1026.69726562 2454.453125 833.150390625 2454.453125 602.813476562 c 0
 2454.453125 267.063476562 2234.13476562 -30.6494140625 1900.66796875 -30.6494140625 c 0
 1711.71386719 -30.6494140625 1574.19238281 57.2412109375 1495.48046875 182.655273438 c 1
 1444.14648438 76.185546875 1345.90527344 -24.3173828125 1187.36816406 -24.3173828125 c 0
 990.768554688 -24.3173828125 910.530273438 180.728515625 910.530273438 374.787109375 c 0
EndSplineSet
EndChar

StartChar: nh
Encoding: 120 3363 71
Width: 2763
GlyphClass: 2
Flags: HW
LayerCount: 2
Fore
SplineSet
643.15625 208.392578125 m 0
 729.619935743 365.570091751 539.883573859 538.228517805 389.84375 430.244140625 c 0
 335.496780139 391.127422725 292.092976138 303.068675908 332.116210938 219.380859375 c 0
 367.239860326 145.937016567 456.048665008 90.2446978854 558.131835938 132.778320312 c 0
 595.694335938 148.428710937 624.035807292 173.633463542 643.15625 208.392578125 c 0
1132 44.1015625 m 2
 1131.77086686 8.91411116297 1101.00946228 -25.4482421875 1067.07910156 -25.4482421875 c 0
 1021.5945838 -25.4482421875 992.789999492 4.31061114304 992.001953125 43.138671875 c 2
 989.25390625 411.677734375 l 2
 988.050192333 574.171494686 980.430779105 653.993001513 915.862304688 749.703125 c 0
 885.822591146 794.231119792 846.957682292 829.153645834 799.267578125 854.470703125 c 0
 701.32421875 906.465494792 598.581380208 907.983072917 491.0390625 859.0234375 c 0
 355.616636902 797.371388854 254.291050193 659.557866179 241.27734375 478.603515625 c 1
 297.258445451 552.545109342 400.598950052 610.41582721 511.213867188 602.362304688 c 0
 721.648453262 587.039370895 884.70849644 357.037898857 765.755859375 140.793945312 c 0
 730.940104166 77.503580729 678.282877604 31.171875 607.784179688 1.798828125 c 0
 516.149414063 -36.380859375 419.659830729 -28.8492838542 318.315429688 24.3935546875 c 0
 187.44244037 93.1499740983 91.7297051763 264.263417596 100.595703125 472.750976562 c 0
 110.569676092 707.277265257 247.226019172 902.47389212 434.095703125 987.447265625 c 0
 578.498734005 1053.10881885 735.749186863 1046.69440044 873.166015625 973.745117188 c 0
 946.55859375 934.784830729 1005.99869791 875.694661458 1051.48632812 796.474609375 c 1
 1110.15881624 916.03584208 1241.23232813 1039.42020233 1413.64648438 1028.27148438 c 0
 1570.9716068 1018.09845998 1680.04808723 913.053033262 1736.66992188 797.162109375 c 1
 1815.02908539 932.665869864 1972.84921616 1045.24310898 2181.60253906 1024.55566406 c 0
 2417.56522752 1001.1738104 2582.90850688 850.838739154 2642.06347656 649.404296875 c 0
 2712.41786583 409.82574899 2601.03907762 198.52711348 2464.79296875 90.576171875 c 0
 2350.37955729 -0.0774739583333 2220.71809896 -36.6028645833 2075.80859375 -19 c 0
 2042.18938041 -15.3993451036 2013.25878906 15.0983233215 2013.25878906 52.078125 c 0
 2013.25878906 82.2939383147 2043.52096826 120.615234375 2071.14160156 120.615234375 c 0
 2082.38118489 120.615234375 2089.56380208 120.402994792 2092.68945312 119.978515625 c 0
 2260.1735794 99.6344855782 2406.81264949 192.696052012 2474.95410156 315.874023438 c 0
 2517.67089844 393.092122396 2532.86686198 470.499348958 2520.54199219 548.095703125 c 0
 2508.21777344 625.692708334 2483.43522135 687.465494792 2446.19433594 733.4140625 c 0
 2373.20410157 823.471354167 2283.46419271 873.776041667 2176.97460938 884.328125 c 0
 2118.40234375 890.132161459 2063.23079427 882.541015625 2011.45996094 861.5546875 c 0
 1905.3968099 818.559895833 1839.62174479 734.484375 1814.13476562 609.328125 c 0
 1805.62630208 567.548177083 1801.58398437 505.305338542 1802.0078125 422.599609375 c 2
 1803.94726562 44.11328125 l 2
 1803.66203888 3.13715565687 1775.52697882 -25.6005859375 1726.80761719 -25.6005859375 c 0
 1694.80945174 -25.6005859375 1664.62037674 9.74495105338 1663.94921875 42.994140625 c 2
 1660.953125 418.01953125 l 2
 1659.81184896 560.814453125 1646.34635417 659.944986979 1620.55664062 715.411132812 c 0
 1569.68294271 824.827148437 1499.00911458 882.459635417 1408.53515625 888.30859375 c 0
 1362.44335938 891.288411458 1318.95084636 879.342773437 1278.05761719 852.471679688 c 0
 1154.99448535 771.6062967 1128.30020059 633.125276617 1129.671875 413.912109375 c 2
 1132 44.1015625 l 2
EndSplineSet
EndChar

StartChar: th1
Encoding: 121 3364 72
Width: 1790
GlyphClass: 2
Flags: HW
LayerCount: 2
Fore
SplineSet
893 814 m 1
 778.169093453 739.515087645 673.13757648 601.530854583 673.13757648 406.368104799 c 0
 673.13757648 264.927572327 751.790542417 119.492063492 894.412698415 119.492063492 c 0
 1046 120 1114.67013816 231.658814742 1114.67013816 404.09590843 c 0
 1114.67013816 600.279426095 1009.28043716 739.580520219 893 814 c 1
542 39.5 m 0
 542 9.20301575569 509.360725532 -26 480 -26 c 0
 466 -26 454.666666667 -24.3333333333 446 -21 c 0
 256.929373818 52.9223500861 99.7607142802 233.17942649 99.7607142802 488.580545448 c 0
 99.7607142802 797.949073917 347.409128478 1026.11032156 656.982230512 1026.11032156 c 0
 735.951090623 1026.11032156 816.383481483 1010.00377467 891 974 c 1
 892 974 l 1
 971.241307559 1010.3399627 1054.69497969 1026.84665263 1135.69779973 1026.84665263 c 0
 1443.80060553 1026.84665263 1690.91140098 796.166147715 1690.91140098 488.230992057 c 0
 1690.91140098 235.263438376 1539.7077816 57.9009318347 1356 -19 c 0
 1347.33333333 -23 1335.83333333 -25 1321.5 -25 c 0
 1291.99632937 -25 1259 9.8313671186 1259 40 c 0
 1259 72.2065212564 1278.7184775 100.946074581 1302 110 c 0
 1432.67950562 164.449794007 1551.61713967 303.910928227 1551.61713967 478.166629029 c 0
 1551.61713967 707.740962127 1376.23480224 887.853841776 1141.32722881 887.853841776 c 0
 1109.32524982 887.853841776 1075.83371207 884.402163814 1041 877 c 1
 1170.95363837 762.069903638 1254.2365882 611.443846677 1254.2365882 403.994849262 c 0
 1254.2365882 184.674099088 1118.96616829 -18.1255816862 894.601693746 -18.1255816862 c 0
 670.576540172 -18.1255816862 532.814688073 186.893008749 532.814688073 404.738261799 c 0
 532.814688073 608.693508106 618.075525309 763.747325419 744 876 c 1
 709.785905521 883.39764205 676.76337851 886.857387918 645.11430612 886.857387918 c 0
 417.210954662 886.857387918 238.901457976 710.611595779 238.901457976 480.569728777 c 0
 238.901457976 305.099011605 360.550550825 162.374536047 497 110 c 0
 521.415287735 101.004893992 542 72.6412740323 542 39.5 c 0
EndSplineSet
EndChar

StartChar: th2
Encoding: 122 3365 73
Width: 1549
GlyphClass: 2
Flags: HW
LayerCount: 2
Fore
SplineSet
1309 489 m 2
 1311 718 1207 883 981 883 c 0
 720 883 656 667 658 396 c 2
 660 141 l 1
 1306 141 l 1
 1309 489 l 2
100 949 m 2
 100 988 127 1026 172 1026 c 0
 205 1026 240 995 240 962 c 2
 245 142 l 1
 520 141 l 1
 516 467 l 2
 513 782 679 1024 974 1024 c 0
 1251 1024 1443 828 1445 575 c 2
 1449 86 l 2
 1449 39 1421 1 1383 1 c 2
 200 2 l 1
 195 1 191 1 186 1 c 0
 146 1 107 27 106 64 c 2
 100 949 l 2
EndSplineSet
EndChar

StartChar: th3
Encoding: 123 3366 74
Width: 1206
GlyphClass: 2
Flags: HW
LayerCount: 2
Fore
SplineSet
981 472 m 1
 1061 422 1106 348 1106 237 c 0
 1106 82 966 -37 811 -37 c 0
 755 -37 700 -20 646 14 c 0
 624 28 614 46 614 68 c 0
 614 108 642 142 680 142 c 0
 697 142 714 137 731 126 c 0
 751 113 782 104 817 104 c 0
 889 104 965 162 965 243 c 0
 965 346 888 379 769 381 c 1
 736 382 l 2
 699 383 668 413 668 450 c 0
 668 484 696 518 726 521 c 2
 754 524 l 1
 855 533 931 585 931 685 c 0
 931 817 809 883 670 883 c 0
 420 883 241 657 241 402 c 0
 241 277 284 161 347 81 c 0
 357 68 362 54 362 36 c 0
 362 -2 329 -32 289 -32 c 0
 268 -32 250 -23 236 -4 c 0
 155 102 100 242 100 398 c 0
 100 739 340 1024 679 1024 c 0
 878 1024 1071 901 1071 687 c 0
 1071 608 1040 530 981 472 c 1
EndSplineSet
EndChar

StartChar: th4
Encoding: 124 3367 75
Width: 1910
GlyphClass: 2
Flags: HW
LayerCount: 2
Fore
SplineSet
1275 882 m 2
 1256 882 l 2
 1229 882 1200 922 1200 952 c 0
 1200 990 1232 1022 1270 1022 c 0
 1272 1022 1274 1022 1276 1022 c 0
 1569 1022 1810 780 1810 489 c 0
 1810 202 1600 -19 1317 -19 c 0
 1150 -19 1015 73 946 187 c 1
 875 68 749 -22 572 -22 c 0
 299 -22 100 204 100 478 c 0
 100 774 325 994 593 1021 c 0
 596 1021 598 1021 600 1021 c 0
 622 1021 632 1020 651 1001 c 0
 665 987 671 970 671 952 c 0
 671 915 642 885 608 882 c 0
 410 861 241 699 241 480 c 0
 241 279 376 118 578 118 c 0
 750 118 863 253 876 432 c 0
 875 458 874 493 874 538 c 2
 879 953 l 2
 880 987 909 1022 943 1022 c 0
 988 1022 1018 991 1019 952 c 1
 1019 539 l 2
 1019 493 1018 457 1016 431 c 0
 1027 259 1135 117 1319 117 c 0
 1530 117 1667 296 1667 493 c 0
 1667 707 1496 882 1275 882 c 2
EndSplineSet
EndChar

StartChar: n1
Encoding: 125 3368 76
Width: 1910
GlyphClass: 2
Flags: HW
LayerCount: 2
Fore
SplineSet
1298 -21 m 0
 1273 -21 1240 17 1240 43 c 0
 1240 87 1268 115 1304 118 c 0
 1507 139 1670 314 1670 520 c 0
 1670 719 1539 882 1338 882 c 0
 1114 882 1040 727 1037 463 c 2
 1033 47 l 2
 1032 10 1000 -22 962 -22 c 0
 924 -22 893 11 893 48 c 2
 892 461 l 2
 892 717 833 881 591 881 c 0
 381 881 242 709 242 497 c 0
 242 275 442 108 654 108 c 0
 704.009765625 108 711 85.1865234375 711 54 c 0
 711 6.7568359375 680.263671875 -21 636 -21 c 0
 336 -21 100 216 100 525 c 0
 100 783 316 1021 589 1021 c 0
 761 1021 893 933 965 813 c 1
 1034 928 1166 1022 1333 1022 c 0
 1613 1022 1810 794 1810 522 c 0
 1810 255 1583 -21 1298 -21 c 0
EndSplineSet
EndChar

StartChar: p1
Encoding: 127 3370 77
Width: 1671
GlyphClass: 2
Flags: HW
LayerCount: 2
Fore
SplineSet
455.475585938 552.504882812 m 0
 334.799804688 552.504882812 238.5390625 450.467773438 238.5390625 335.31640625 c 0
 238.5390625 244.291992188 303.422851562 160.665039062 368.5 137 c 0
 408.833007812 122.333007812 429 102 429 76 c 0
 429 34.2392578125 403.475585938 -4 367 -4 c 0
 353 -4 342 -2.6669921875 334 0 c 0
 209.41015625 44.93359375 99.50390625 171.163085938 99.50390625 333.217773438 c 0
 99.50390625 534.61328125 257.072265625 693.010742188 455.328125 693.010742188 c 0
 657.439453125 693.010742188 814.684570312 524.258789062 814.684570312 335.381835938 c 0
 814.684570312 271.302734375 796.5859375 204.907226562 756 142 c 1
 1430 139 l 1
 1429 971.5 l 2
 1429 997.7578125 1469.140625 1027 1499 1027 c 0
 1528.90625 1027 1569 997.803710938 1569 971.5 c 2
 1571 69 l 2
 1571 30.7880859375 1539.38476562 -1.0009765625 1501.29492188 -1.0009765625 c 0
 1501.19628906 -1.0009765625 1501.09863281 -1 1501 -1 c 2
 572 3 l 2
 538.323242188 3 503 34.0205078125 503 65.5 c 0
 503 113.458984375 520.829101562 127.366210938 567.5 148 c 0
 621.215820312 171.748046875 672.993164062 253.845703125 672.993164062 339.103515625 c 0
 672.993164062 460.107421875 574.677734375 552.504882812 455.475585938 552.504882812 c 0
EndSplineSet
EndChar

StartChar: p2
Encoding: 128 3371 78
Width: 2188
GlyphClass: 2
Flags: HW
LayerCount: 2
Fore
SplineSet
1948 423 m 0
 1948 705 1836 876 1570 876 c 0
 1306 876 1204 696 1202 415 c 1
 1202 140 l 1
 1946 140 l 1
 1948 408 l 2
 1948 413 1948 418 1948 423 c 0
1569 1015 m 0
 1910 1015 2088 784 2088 425 c 0
 2088 419 2088 413 2088 407 c 2
 2085 71 l 2
 2085 36 2057 -1 2018 -1 c 2
 580 3 l 2
 546 3 510 32 510 70 c 0
 510 103 529 127 551 137 c 0
 618 168 679 241 679 334 c 0
 679 459 582 555 459 555 c 0
 337 555 239 450 239 334 c 0
 239 233 310 155 389 128 c 0
 414 120 438 95 438 63 c 0
 438 24 407 -9 368 -9 c 0
 360 -9 352 -7 344 -4 c 0
 215 40 100 168 100 333 c 0
 100 535 259 695 458 695 c 0
 661 695 821 525 821 335 c 0
 821 271 803 205 762 142 c 1
 1062 141 l 1
 1062 415 l 2
 1062 772 1218 1015 1569 1015 c 0
EndSplineSet
EndChar

StartChar: p3
Encoding: 129 3372 79
Width: 2510
GlyphClass: 2
Flags: HW
LayerCount: 2
Fore
SplineSet
473 496 m 0
 374 496 283 412 283 303 c 0
 283 190 384 121 485 121 c 0
 584 121 669 204 669 299 c 0
 669 415 576 496 473 496 c 0
1495 0 m 2
 1458 0 1426 31 1426 67 c 0
 1426 110 1452 135 1506 142 c 0
 1680 164 1825 337 1825 522 c 0
 1825 732 1677 891 1466 891 c 0
 1231 891 1141 672 1141 411 c 2
 1141 47 l 2
 1141 9 1109 -22 1071 -22 c 0
 1034 -22 1001 10 1001 47 c 2
 1000 412 l 2
 1000 685 903 888 647 888 c 0
 429 888 257 680 249 466 c 1
 283 570 382 635 489 635 c 0
 655 635 811 492 811 312 c 0
 811 130 673 -22 489 -22 c 0
 254 -22 100 187 100 409 c 0
 100 737 313 1028 637 1028 c 0
 837 1028 990 939 1070 795 c 1
 1143 928 1278 1029 1465 1029 c 0
 1738 1029 1965 820 1965 531 c 0
 1965 367 1904 239 1797 139 c 1
 2269 138 l 1
 2270 952 l 2
 2270 991 2304 1025 2340 1025 c 0
 2382 1025 2410 983 2410 952 c 2
 2409 67 l 2
 2409 29 2377 -3 2339 -3 c 2
 1495 0 l 2
EndSplineSet
EndChar

StartChar: p4
Encoding: 130 3373 80
Width: 1335
GlyphClass: 2
Flags: HW
LayerCount: 2
Fore
SplineSet
1094.51145242 725.694212938 m 0
 1094.51145242 838.155445921 915.652394979 891.487246674 760.561797805 891.487246674 c 0
 477.597118966 891.487246674 239.853941219 710.014033482 239.853941219 431.888745164 c 0
 239.853941219 302.157548962 298.768874562 179.492615717 392.784179688 100 c 0
 410.117513021 86 418.784179688 68.6666666667 418.784179688 48 c 0
 418.784179688 8.81459570332 388.434810898 -24 350.284179688 -24 c 0
 331.950846355 -24 316.117513021 -18.3333333333 302.784179688 -7 c 0
 175.960955561 99.5937527939 99.9996969293 236.816864365 99.9996969293 434.82832937 c 0
 99.9996969293 799.784253517 397.426337053 1028.53835198 766.713022702 1028.53835198 c 0
 993.614518517 1028.53835198 1234.51018222 945.967823698 1234.51018222 723.253238255 c 0
 1234.51018222 594.593695056 1123.87571811 512.972222221 999.82256703 512.972222221 c 0
 909.49751526 512.972222221 820.999425508 557.347222222 728.075846357 557.347222222 c 0
 674.109652783 557.347222222 618.714412246 529.834014941 618.714412246 483.621416982 c 0
 618.714412246 416.193615343 700.3128928 399.245149196 771.676104022 399.245149196 c 0
 822.130065708 399.245149196 884.924595749 406.979868418 934.44773614 406.979868418 c 0
 1088.89219237 406.979868418 1229.93337251 344.723765826 1229.93337251 191.054887769 c 0
 1229.93337251 23.9370441206 1069.69893164 -28.0181818182 892.36170035 -28.0181818182 c 0
 812.013050212 -28.0181818182 705.487209991 -21.0121212122 572.784179688 -7 c 0
 535.157897378 -3.41654454191 508.784179688 23.2183510583 508.784179688 70.5 c 0
 508.784179688 95.8153952638 542.211761143 133 566.284179688 133 c 0
 645.154260621 133 761.801227284 115 875.284179688 115 c 0
 991.324252538 115 1090.52401709 119.064807027 1090.52401709 188.023632449 c 0
 1090.52401709 248.701473206 1020.85599105 268.397163122 941.629861483 268.397163122 c 0
 885.099351073 268.397163122 799.199911109 257.768518519 766.158450951 257.768518519 c 0
 611.332045338 257.768518519 478.384179688 335.990964371 478.384179688 481.04 c 0
 478.384179688 619.347880285 602.159898687 698.872604467 733.719584872 698.872604467 c 0
 823.355885988 698.872604467 920.06562628 654.536842105 1000.54827941 654.536842105 c 0
 1054.62398061 654.536842105 1094.51145242 675.63031659 1094.51145242 725.694212938 c 0
EndSplineSet
EndChar

StartChar: m1
Encoding: 131 3374 81
Width: 1398
GlyphClass: 2
Flags: HW
LayerCount: 2
Fore
SplineSet
931 823 m 1
 950.885601578 773.986193294 960.828402367 723.61922435 960.828402367 671.899093169 c 0
 960.828402367 434.393656739 781.507709966 234.955657812 635 133 c 1
 1156 133 l 1
 1157 447 l 2
 1158 612 1054.50537633 750.019550348 931 823 c 1
638 882 m 0
 419.611013183 882 240 683.610300304 240 446 c 2
 240 133 l 1
 508.555450339 133 818.348780488 406.120432886 818.348780488 675.278479741 c 0
 818.348780488 800.251098536 747.40328623 882 638 882 c 0
170 -7 m 2
 131.645961324 -7 100 24.647061594 100 63 c 2
 100 449 l 2
 100 765.120942541 369.837110106 1022.59891599 677.411101863 1022.59891599 c 0
 1042.68419569 1022.59891599 1300 767 1298 411 c 2
 1296 63 l 2
 1296 24.645961324 1264.35293841 -7 1226 -7 c 2
 170 -7 l 2
EndSplineSet
EndChar

StartChar: y1
Encoding: 132 3375 82
Width: 1915
GlyphClass: 2
Flags: HW
LayerCount: 2
Fore
SplineSet
786 680 m 0
 775 645 770 608 770 571 c 0
 770 401 880 248 994 179 c 1
 1126 253 1242 404 1242 606 c 0
 1242 748 1160 888 1026 888 c 0
 895 888 823 800 786 680 c 0
447 890 m 0
 310 890 241 775 241 633 c 0
 241 349 464 114 749 114 c 0
 778 114 807 117 836 122 c 1
 709 235 632 371 632 613 c 0
 632 729 566 890 447 890 c 0
440 1029 m 0
 557 1029 658 950 712 853 c 1
 779 955 879 1028 1025 1028 c 0
 1238 1028 1383 834 1383 615 c 0
 1383 400 1289 234 1153 120 c 1
 1181 115 1208 113 1234 113 c 0
 1483 113 1673 323 1673 563 c 0
 1673 705 1602 830 1521 901 c 0
 1505 915 1497 932 1497 952 c 0
 1497 991 1528 1024 1566 1024 c 0
 1585 1024 1601 1018 1614 1006 c 0
 1718 914 1815 753 1815 575 c 0
 1815 235 1569 -28 1227 -28 c 0
 1148 -28 1070 -11 992 23 c 1
 908 -12 824 -28 745 -28 c 0
 395 -28 100 274 100 636 c 0
 100 847 221 1029 440 1029 c 0
EndSplineSet
EndChar

StartChar: r3
Encoding: 133 3376 83
Width: 1453
GlyphClass: 2
Flags: HW
LayerCount: 2
Fore
SplineSet
926 111 m 0
 1072 111 1194 232 1194 378 c 0
 1194 524 1072 645 926 645 c 0
 780 645 660 524 660 378 c 0
 660 232 780 111 926 111 c 0
459 50 m 0
 459 15 435 -20 390 -20 c 0
 377 -20 364 -17 353 -9 c 0
 218 76 100 239 100 444 c 0
 100 796 381 1026 725 1026 c 0
 1090 1026 1353 765 1353 437 c 0
 1353 193 1172 -26 916 -26 c 0
 683 -26 520 164 520 376 c 0
 520 576 690 785 918 785 c 0
 966 785 1016 775 1067 756 c 1
 973 841 863 884 732 884 c 0
 465 884 239 710 239 445 c 0
 239 293 327 172 427 109 c 0
 449 96 459 73 459 50 c 0
EndSplineSet
EndChar

StartChar: rh
Encoding: 134 3377 84
Width: 1328
GlyphClass: 2
Flags: HW
LayerCount: 2
Fore
SplineSet
667.58686962 878.070213975 m 0
 435.611850982 878.070213975 239.761496323 709.22795568 239.761496323 478.927700935 c 0
 239.761496323 296.086170524 364.141219375 157.930101969 512 116 c 0
 539.003040833 108.284845476 563 79.974314284 563 45.5 c 0
 563 15.6709351181 531.377386599 -22 503 -22 c 0
 467.666666667 -22 417.166666667 -3.33333333333 351.5 34 c 0
 211.182211195 113.774580437 100.166064982 288.003986046 100.166064982 480.085547837 c 0
 100.166064982 782.876718018 347.151937636 1019.03628377 668.590839722 1019.03628377 c 0
 991.893935681 1019.03628377 1228.28983018 768.676090188 1228.28983018 485.299677602 c 0
 1228.28983018 228.362142895 1056.49079666 37.0931641328 847 -19 c 0
 841 -21 831.5 -22 818.5 -22 c 0
 791.703620795 -22 758 13.5637026474 758 41 c 0
 758 81.6666666667 781.333333333 108.333333333 828 121 c 0
 971.217397013 157.566143919 1088.13043478 308.383991756 1088.13043478 480.688869459 c 0
 1088.13043478 703.72262463 892.138467103 878.070213975 667.58686962 878.070213975 c 0
EndSplineSet
EndChar

StartChar: l3
Encoding: 135 3378 85
Width: 1647
GlyphClass: 2
Flags: HW
LayerCount: 2
Fore
SplineSet
589.63159892 884.733766234 m 0
 370.56580665 884.733766234 257.784250681 717.907593094 243 506 c 1
 941 507 l 1
 953.615164685 715.150217307 792.58738772 884.733766234 589.63159892 884.733766234 c 0
170 1 m 2
 131.645961324 1 100 32.647061594 100 71 c 2
 100 389 l 2
 100 592.597077801 118.32717244 703.142127397 206.5 828 c 0
 280.0996841 932.221450477 418.651327491 1023.82481156 584.684716612 1023.82481156 c 0
 868.068920862 1023.82481156 1082.56846295 815.128095206 1082.56846295 532.003323199 c 0
 1082.56846295 463.605201914 1075.99011626 367 1002 367 c 2
 240 366 l 1
 240 141 l 1
 1407 142 l 1
 1405 956 l 1
 1405 971 l 2
 1405 996.895507812 1445.39355469 1027 1475 1027 c 0
 1513.35449219 1027 1545 995.352539062 1545 957 c 2
 1545 956 l 1
 1547 73 l 2
 1547 35.349609375 1518.73046875 4.1962890625 1477 2 c 1
 170 1 l 2
EndSplineSet
EndChar

StartChar: lh
Encoding: 136 3379 86
Width: 1273
GlyphClass: 2
Flags: HW
LayerCount: 2
Fore
SplineSet
386 617 m 0
 318 617 254 572 254 492 c 0
 254 406 337 360 402 360 c 0
 464 360 523 420 523 484 c 0
 523 555 458 617 386 617 c 0
241 -85 m 0
 241 -147 291 -170 383 -170 c 2
 1092 -170 l 2
 1131 -170 1163 -201 1163 -240 c 0
 1163 -279 1131 -310 1092 -310 c 2
 384 -310 l 2
 214 -310 100 -235 100 -85 c 0
 100 78 230 144 398 144 c 2
 780 144 l 2
 928 144 1037 180 1037 289 c 0
 1037 378 972 419 862 419 c 1
 824 421 l 2
 782 423 749 449 749 490 c 0
 749 529 781 561 820 561 c 0
 827 561 834 561 841 561 c 0
 949 561 1006 589 1006 674 c 0
 1006 818 845 885 694 885 c 0
 530 885 371 866 293 712 c 1
 334 751 369 757 390 757 c 0
 542 757 661 634 661 484 c 0
 661 333 545 220 393 220 c 0
 218 220 102 382 102 546 c 0
 102 857 381 1025 687 1025 c 0
 916 1025 1144 909 1144 681 c 0
 1144 616 1097 526 1038 496 c 1
 1108 457 1173 379 1173 278 c 0
 1173 72 989 4 780 4 c 2
 397 4 l 2
 301 4 241 -15 241 -85 c 0
EndSplineSet
EndChar

StartChar: zh
Encoding: 137 3380 87
Width: 1295
GlyphClass: 2
Flags: HW
LayerCount: 2
Fore
SplineSet
902 456 m 1
 974.173276599 497.039706301 1053 568.006641453 1053 675 c 0
 1053 792.218180012 957.98101774 881 842 881 c 0
 750 881 651 825 651 723 c 0
 651 581.382344385 808.003734701 526.819103992 902 456 c 1
737 399 m 1
 642 461 509 561 509 719 c 0
 509 898.859772799 674.36552322 1025 837 1025 c 0
 1024.26143795 1025 1195 872.726306498 1195 680 c 0
 1195 531 1098 415 1004 353 c 1
 1032 313 1059 253 1059 195 c 0
 1059 20.638304351 882.30174361 -91 706 -91 c 0
 574 -91 442 -33 353 67 c 0
 343 78 335 99 335 114 c 0
 335 153 366 184 405 184 c 0
 423 184 446 172 458 159 c 0
 519 90 615 52 708 52 c 0
 805.34847155 52 916 96.4730133321 916 197 c 0
 916 237 896 267 876 291 c 1
 792 262 715 249 621 249 c 0
 379.249057756 249 100 409.436847999 100 700 c 0
 100 808 142 916 222 994 c 0
 233 1005 255 1014 271 1014 c 0
 310 1014 341 983 341 944 c 0
 341 927 332 904 320 893 c 0
 269 843 243 772 243 700 c 0
 243 490 442 389 628 389 c 0
 664 389 700 392 737 399 c 1
EndSplineSet
EndChar

StartChar: v1
Encoding: 138 3381 88
Width: 1719
GlyphClass: 2
Flags: HW
LayerCount: 2
Fore
SplineSet
1479 962 m 2
 1479 995.719210189 1516.32085296 1023.50703792 1543.98819154 1023.50703792 c 0
 1578.7919377 1023.50703792 1619 997.467573226 1619 968 c 2
 1619 953 l 1
 1618 63 l 2
 1618 24.645961324 1586.35293841 -7 1548 -7 c 2
 826 -4 l 2
 787.61087359 -4 756 23.8120332509 756 69 c 0
 756 95.5574985577 781.177970964 123.328726145 802 131 c 0
 940.917533475 182.495292581 1050.44539552 314.038966325 1050.44539552 498.055253077 c 0
 1050.44539552 749.147566915 852.395507812 875.912109375 652.104492188 875.912109375 c 0
 447.608398438 875.912109375 240.569800266 744.388495596 240.569800266 498.726055373 c 0
 240.569800266 303.291947717 388.883970301 149.790669966 567 130 c 0
 600.575230382 126.125934956 630 95.6304971227 630 58.5 c 0
 630 28.8195726255 599.886787675 -10 573 -10 c 0
 304.044618462 -10 100.183292154 242.519964258 100.183292154 495.999872785 c 0
 100.183292154 799.258950721 352.070599606 1023.67968705 637.193978517 1023.67968705 c 0
 944.591043093 1023.67968705 1190.96763754 789.091940202 1190.96763754 482.729579702 c 0
 1190.96763754 350.448155476 1144.97842502 234.538295575 1053 135 c 1
 1478 134 l 1
 1479 953 l 1
 1479 962 l 2
EndSplineSet
EndChar

StartChar: z1
Encoding: 139 3382 89
Width: 1909
GlyphClass: 2
Flags: HW
LayerCount: 2
Fore
SplineSet
1553 745 m 1
 1384.12278295 710.626761132 1234.67194486 565.840900913 1234.67194486 363.836464948 c 0
 1234.67194486 232.40303577 1309.37113656 117.554726601 1438.01852071 117.554726601 c 0
 1589.02477949 117.554726601 1670.73021133 275.517522329 1670.73021133 418.198093467 c 0
 1670.73021133 542.020710988 1617.89980714 666.965708082 1553 745 c 1
1810.00512821 406.002288826 m 0
 1810.00512821 181.563810902 1659.0276651 -23.8358208955 1441.29494319 -23.8358208955 c 0
 1237.35364949 -23.8358208955 1092.65451616 151.097900749 1092.65451616 361.634028963 c 0
 1092.65451616 594.281013513 1248.00037328 775.428731408 1422 850 c 1
 1368.51207508 876.436560594 1312.33833755 889.60846547 1257.60743226 889.60846547 c 0
 1058.93040656 889.60846547 946.375120124 746.667265068 946.375120124 546.868168743 c 0
 946.375120124 489.998990285 948 427.367245485 948 404 c 0
 948 175.722442237 796.78267475 -17.1415708397 557.817805889 -17.1415708397 c 0
 281.989664325 -17.1415708397 100.057692308 236.259732365 100.057692308 515.482433432 c 0
 100.057692308 769.992835645 249.960714739 944.330794306 416 1030 c 0
 426 1035.33333333 439 1038 455 1038 c 0
 486.557110346 1038 520 1004.55555163 520 973 c 0
 520 940.333333333 507 917.666666667 481 905 c 0
 348.397659851 836.857130757 240.718008584 705.995078224 240.718008584 513.020546382 c 0
 240.718008584 317.21916916 363.727190669 121.814494385 555.373410983 121.814494385 c 0
 750.698635597 121.814494385 808.156862743 263.362448428 808.156862743 472.984236807 c 0
 808.156862743 800.985285133 935.679143783 1029.39263804 1244.60679738 1029.39263804 c 0
 1583.80571299 1029.39263804 1810.00512821 736.804450723 1810.00512821 406.002288826 c 0
EndSplineSet
EndChar

StartChar: sh
Encoding: 140 3383 90
Width: 1928
GlyphClass: 2
Flags: HW
LayerCount: 2
Fore
SplineSet
1688 635 m 1
 1605 529 1500 454 1373 409 c 1
 1371 138 l 1
 1688 138 l 1
 1688 635 l 1
1084 890 m 0
 986 890 901 815 901 721 c 0
 901 590 1027 512 1166 512 c 0
 1188 512 1210 513 1234 517 c 1
 1235 703 l 2
 1235 829 1194 890 1084 890 c 0
432 498 m 0
 326 498 240 410 240 308 c 0
 240 230 292 159 346 136 c 0
 381 121 398 101 398 76 c 0
 398 35 372 -2 335 -2 c 0
 320 -2 309 0 300 4 c 0
 194 49 100 161 100 304 c 0
 100 493 246 638 433 638 c 0
 616 638 763 483 763 307 c 0
 763 251 748 194 715 138 c 1
 1231 138 l 1
 1233 376 l 1
 1209 373 1187 372 1165 372 c 0
 949 372 760 510 760 718 c 0
 760 898 908 1031 1082 1031 c 0
 1278 1031 1375 892 1375 702 c 1
 1374 561 l 1
 1514 626 1653 766 1683 934 c 0
 1692 983 1705 1027 1751 1027 c 0
 1799 1027 1828 999 1828 957 c 2
 1828 68 l 2
 1828 30 1796 -2 1758 -2 c 2
 534 -2 l 2
 497 -2 465 27 465 68 c 0
 465 99 486 124 506 132 c 0
 567 158 622 223 622 306 c 0
 622 414 538 498 432 498 c 0
EndSplineSet
EndChar

StartChar: s1
Encoding: 141 3384 91
Width: 2477
GlyphClass: 2
Flags: HW
LayerCount: 2
Fore
SplineSet
987 830 m 1
 1039 934 1138 1032 1280 1032 c 0
 1516 1032 1604 808 1604 571 c 0
 1604 540 1604 509 1604 480 c 0
 1604 269 1690 119 1890 119 c 0
 2104 119 2236 314 2236 498 c 0
 2236 724 2048 883 1856 892 c 0
 1819 893 1788 925 1788 962 c 0
 1788 1001 1819 1032 1858 1032 c 0
 1859 1032 1861 1032 1862 1032 c 0
 2127 1020 2378 804 2378 492 c 0
 2378 240 2185 -23 1886 -23 c 0
 1628 -23 1459 196 1459 468 c 0
 1459 522 1463 574 1463 622 c 0
 1463 751 1407 892 1280 892 c 0
 1097 892 1071 662 1071 476 c 1
 1068 42 l 1
 1068 41 l 1
 1067 3 1036 -28 998 -28 c 0
 960 -28 928 4 928 42 c 2
 928 488 l 2
 928 608 924 659 872 751 c 0
 820 843 711 894 604 894 c 0
 383 894 241 695 241 506 c 0
 241 274 441 113 641 113 c 0
 663 113 685 119 707 119 c 0
 746 119 777 88 777 49 c 0
 777 -18 706 -27 638 -27 c 0
 364 -27 100 192 100 512 c 0
 100 772 303 1036 611 1036 c 0
 765 1036 909 959 987 830 c 1
EndSplineSet
EndChar

StartChar: h1
Encoding: 142 3385 92
Width: 2151
GlyphClass: 2
Flags: HW
LayerCount: 2
Fore
SplineSet
431 63 m 0
 431 19.6993087668 399.03516603 -8 361 -8 c 0
 352.333333333 -8 344 -6.66666666667 336 -4 c 0
 246 28.6666666667 179.666666667 88 137 174 c 0
 94.3333333333 260 87.3333333333 348.666666667 116 440 c 0
 144.666666667 531.333333333 200.833333333 600.333333333 284.5 647 c 0
 368.166666667 693.666666667 451.666666667 706 535 684 c 0
 687.061056026 643.855881209 802.945441283 528.934516583 816 358.5 c 0
 822 280.166666667 803 207 759 139 c 1
 1174 138 l 1
 1108.66666667 204 1066.5 274.5 1047.5 349.5 c 0
 987.53801084 586.192062475 1063.77070837 777.342432061 1204.5 897.5 c 0
 1304.83333333 983.166666667 1423.33333333 1023.83333333 1560 1019.5 c 0
 1696.66666667 1015.16666667 1813.33333333 961.166666667 1910 857.5 c 0
 2006.66666667 753.833333333 2053.66666667 626.666666667 2051 476 c 0
 2046.46994761 237.417241001 1902.82411964 80.4448863275 1724 -2 c 0
 1715.33333333 -6 1703.66666667 -8 1689 -8 c 0
 1658.81939632 -8 1626 26.6484147557 1626 57.5 c 0
 1626 90.6592286471 1646.5781261 118.002467509 1671 127 c 0
 1789.29595534 175.645065746 1907.83659105 306.738074811 1911 457 c 0
 1913 584.333333333 1878.83333333 685.833333333 1808.5 761.5 c 0
 1738.16666667 837.166666667 1653.33333333 876.666666667 1554 880 c 0
 1346.71647279 886.955823061 1191.63671817 736.381722592 1169 549 c 0
 1143.50045462 337.920429926 1286.13913402 171.827328425 1458 135 c 0
 1487.41511214 128.605410404 1513 99.3856229582 1513 64 c 0
 1513 28.1733152592 1479.6137542 -3.12639961171 1443 -3 c 2
 574 0 l 2
 538.338218544 0 505 30.7934536912 505 65 c 0
 505 99 518.666666667 122 546 134 c 0
 620.40786965 166.553442972 684.715099129 246.691020096 676.5 350.5 c 0
 669.550519388 438.316164096 601.063377189 521.700239988 528 541 c 0
 386.590988277 578.13772025 281.504772348 499.678788119 250 398.5 c 0
 210.025786217 270.121274966 293.901014423 159.145328347 384 128 c 0
 407.216269044 119.874305835 431 92.7524330446 431 63 c 0
EndSplineSet
EndChar

StartChar: avagraha
Encoding: 144 3389 93
Width: 1438
GlyphClass: 2
Flags: HW
LayerCount: 2
Fore
SplineSet
198 -80 m 0
 198 -110 189.573656288 -129.940962726 189.573656288 -156.626517276 c 0
 189.573656288 -253.883180231 270.006890873 -324.842849064 362.523548334 -324.842849064 c 0
 533.008841792 -324.842849064 565.683671101 -162.953368109 591 1 c 2
 669 513 l 1
 444 513 l 2
 418 513 388 553 388 583 c 0
 388 613 417 653 444 653 c 2
 690 653 l 1
 736 960 l 2
 772.549180456 1199.95331517 862.853498601 1434.74775761 1115.01574249 1434.74775761 c 0
 1298.96932796 1434.74775761 1438.42936773 1300.41324723 1438.42936773 1117.39289122 c 0
 1438.42936773 1052.24343612 1425 1010 1360 1010 c 0
 1333 1010 1296 1043 1296 1068 c 0
 1296 1082 1300.29974623 1105.90597504 1300.29974623 1124.52974344 c 0
 1300.29974623 1217.02564453 1210.45199137 1295.90277495 1124.9185065 1295.90277495 c 0
 946.027464483 1295.90277495 901.491377593 1122.27585062 874 939 c 2
 831 653 l 1
 1050 653 l 2
 1076 653 1106 613 1106 583 c 0
 1106 553 1077 513 1050 513 c 2
 810 513 l 1
 730 -20 l 2
 693.038139846 -263.438458256 610.422415553 -466.61516299 360.11177073 -466.61516299 c 0
 189.573071024 -466.61516299 50.0252302266 -323.62241109 50.0252302266 -153.625489765 c 0
 50.0252302266 -89.1604210276 64 -20 132 -20 c 0
 162 -20 198 -51 198 -80 c 0
EndSplineSet
EndChar

StartChar: a2
Encoding: 145 3390 94
Width: 1000
GlyphClass: 2
Flags: HW
LayerCount: 2
Fore
SplineSet
460.344795939 125.379509848 m 0
 646.303515906 125.379509848 760.625542559 311.150518382 760.625542559 502.397599207 c 0
 760.625542559 697.080001626 650.546875 884.068359375 460.516601562 884.068359375 c 0
 349.803710938 884.068359375 258.923969143 775.442172143 249 670 c 0
 246.392690688 634.801324289 215.554469871 606 178 606 c 0
 147.929611962 606 109 635.87482344 109 663 c 0
 109 865.798951047 283.786132812 1024.36425781 473.9375 1024.36425781 c 0
 742.341796875 1024.36425781 900.664766137 765.701902368 900.664766137 502.651103516 c 0
 900.664766137 228.283708098 722.034208447 -14.9090909091 460.929292929 -14.9090909091 c 0
 265.282353783 -14.9090909091 100 140.437553039 100 340 c 0
 100 364.882647308 137.983440153 397 164.5 397 c 0
 209.25517557 397 238.030898243 368.412933386 240 331 c 0
 248.432883176 217.156077117 340.275016217 125.379509848 460.344795939 125.379509848 c 0
EndSplineSet
EndChar

StartChar: i1
Encoding: 146 3391 95
Width: 340
GlyphClass: 2
Flags: HW
LayerCount: 2
Fore
SplineSet
-157.299833175 1411.50436648 m 0
 127.890030281 1411.50436648 238 1173.92910576 238 896 c 2
 240 47 l 1
 240 46 l 2
 240 7.64596132405 208.352938406 -24 170 -24 c 0
 131.645961324 -24 100 7.64706159402 100 46 c 2
 98 895 l 2
 98 1103.64407757 41.3399778391 1270.98488667 -161.005573331 1270.98488667 c 0
 -274.912130634 1270.98488667 -362.177097732 1195.98259954 -394 1109 c 0
 -403.441322523 1078.31597764 -432.235639165 1062 -468 1062 c 0
 -495.478953349 1062 -530 1096.52288043 -530 1124 c 0
 -530 1138 -528.666666667 1149 -526 1157 c 0
 -475.491047094 1295.63095585 -342.187801833 1411.50436648 -157.299833175 1411.50436648 c 0
EndSplineSet
EndChar

StartChar: i2
Encoding: 147 3392 96
Width: 398
GlyphClass: 2
Flags: HW
LayerCount: 2
Fore
SplineSet
-172.299804688 1291.51367188 m 0
 -223.750976562 1291.51367188 -277 1262 -277 1201 c 0
 -277 1155.83984375 -224.856445312 1119 -179.5 1119 c 0
 -131.098632812 1119 -88 1152.08789062 -88 1202 c 0
 -88 1254.83398438 -119.938476562 1291.51367188 -172.299804688 1291.51367188 c 0
7.22352941178 1206.65204152 m 0
 7.22352941178 1097.55668782 -96.855423811 1014.73495463 -193.396294975 1014.73495463 c 0
 -292.053871852 1014.73495463 -379.117188001 1102.74119324 -379.117188001 1199.6989025 c 0
 -379.117188001 1345.88034767 -247.176650046 1420.65853659 -101.22784057 1420.65853659 c 0
 163.730736954 1420.65853659 298 1273.17564618 298 1003 c 2
 295 49 l 2
 295 3.62747791574 260.20837311 -19.1038586088 225.313025335 -19.1038586088 c 0
 190.20899524 -19.1038586088 155 3.90016825152 155 50 c 2
 158 1003 l 2
 158 1157.72835639 124.310546875 1239.38476562 -2 1273 c 1
 4.1494140625 1251.25878906 7.22352941178 1226.4761707 7.22352941178 1206.65204152 c 0
EndSplineSet
EndChar

StartChar: u1
Encoding: 148 3393 97
Width: 794
GlyphClass: 2
Flags: HW
LayerCount: 2
Fore
SplineSet
340.841796875 -102 m 0
 287.508463542 -126 255.341796875 -165.666666667 244.341796875 -221 c 0
 222.221106102 -332.273777826 317.991426272 -434.172498989 431.841796875 -408 c 0
 489.841796875 -394.666666667 528.282552083 -359.000976563 547.1640625 -301.002929688 c 0
 588.344994806 -174.540479351 447.828339263 -53.8560559255 340.841796875 -102 c 0
193.842773438 958.834960938 m 0
 193.842773438 989.094686553 224.785819162 1026.41992188 253.05078125 1026.41992188 c 0
 394.913218018 1026.41992188 522.023667301 890.974899378 565.254882812 781.529296875 c 0
 591.660481771 714.681640625 604.400716146 647.364257813 603.475585938 579.577148438 c 0
 601.584059413 440.921021681 544.766262187 257.776409669 435.529296875 38.41796875 c 1
 556.579315238 22.7337470927 653.812278767 -68.1109131862 683.57421875 -177.880859375 c 0
 718.462698462 -306.545950863 662.678800279 -414.512768403 597.841796875 -474 c 0
 533.339119895 -533.180311272 428.807636435 -574.807696551 311.521484375 -539.341796875 c 0
 261.379557292 -524.178385417 219.038085937 -498.394205729 184.497070312 -461.989257812 c 0
 80.267701497 -352.135581482 74.5628438838 -190.852077326 160.798828125 -76.8544921875 c 0
 188.193359375 -40.6402994792 221.963541667 -12.2330729167 262.109375 8.3671875 c 1
 306.0625 89.6165364587 350.300130208 182.453125 394.822265625 286.876953125 c 0
 469.328776042 461.625651042 483.62890625 607.106119792 437.72265625 723.318359375 c 0
 401.374348958 815.33984375 339.1953125 870.087239584 251.185546875 887.560546875 c 0
 220.601971283 893.186616396 193.842773438 922.930244964 193.842773438 958.834960938 c 0
EndSplineSet
EndChar

StartChar: u2
Encoding: 149 3394 98
Width: 974
GlyphClass: 2
Flags: HW
LayerCount: 2
Fore
SplineSet
320.341796875 -146 m 1
 286.341796875 -177.333333333 262.008463542 -214 247.341796875 -256 c 0
 214.719397061 -337.555999534 286.690390655 -419.436746668 335.341796875 -445.5 c 0
 475.857233066 -520.776126531 645.257732113 -385.42937457 584.841796875 -227.5 c 0
 550.472919382 -137.658548309 426.950924788 -70.6628829417 320.341796875 -146 c 1
193.341796875 955 m 0
 193.341796875 987.678396607 223.190535507 1025 253.341796875 1025 c 0
 394.730921597 1025 521.900855673 889.64536477 565.341796875 780.5 c 0
 592.008463542 713.5 604.841796875 635 603.841796875 545 c 0
 602.841796875 455 570.675130208 337.666666667 507.341796875 193 c 0
 496.675130208 168.333333333 476.675130208 124.666666667 447.341796875 62 c 1
 570.675130208 80 682.675130208 50.3333333333 783.341796875 -27 c 0
 890.454783689 -109.974848941 977.863224778 -256.623842077 974.341796875 -428 c 0
 971.008463542 -576.666666667 913.675130208 -699.666666667 802.341796875 -797 c 0
 732.341796875 -858.333333333 657.675130208 -896.333333333 578.341796875 -911 c 0
 425.675130208 -939.666666667 291.008463542 -912.333333333 174.341796875 -829 c 0
 119.31853268 -790.483715064 147.030023892 -701 210.341796875 -701 c 0
 227.675130208 -701 249.341796875 -710.333333333 275.341796875 -729 c 0
 325.604010796 -765.085692046 441.491034164 -794.125668484 534.841796875 -776.5 c 0
 645.936213698 -755.524131089 725.477862928 -690.835617758 782.841796875 -604.5 c 0
 844.546117778 -511.631880661 852.918853774 -346.93771746 792.341796875 -248.5 c 0
 763.008463542 -200.833333333 731.341796875 -164 697.341796875 -138 c 1
 751.341796875 -236.666666667 751.341796875 -338.666666667 697.341796875 -444 c 0
 631.278475532 -572.351595753 434.944669277 -659.201559847 268.841796875 -569 c 0
 218.508463542 -541.666666667 180.008463542 -506.333333333 153.341796875 -463 c 0
 44.0955395462 -284.61054183 122.765448445 -93.191617427 259.341796875 -13 c 1
 325.028658801 135.403651018 461.463934786 393.034378242 464.341796875 547 c 0
 465.675130208 681.666666667 429.008463542 778.666666667 354.341796875 838 c 0
 323.675130208 862.666666667 294.675130208 877.666666667 267.341796875 883 c 0
 218.008463542 893 193.341796875 917 193.341796875 955 c 0
EndSplineSet
EndChar

StartChar: r1
Encoding: 150 3395 99
Width: 392
GlyphClass: 2
Flags: HW
LayerCount: 2
Fore
SplineSet
-64 -313 m 1
 -170.666666667 -247 -279.333333333 -213.333333333 -390 -212 c 0
 -455.333333333 -210.666666667 -503 -227.333333333 -533 -262 c 0
 -533 -262.666666667 -533.333333333 -263 -534 -263 c 0
 -570.324979233 -304.063020003 -539.58276427 -370.961310947 -506 -393 c 0
 -427.333333333 -445 -324 -445.666666667 -196 -395 c 0
 -148.666666667 -375 -104.666666667 -347.666666667 -64 -313 c 1
76 999 m 0
 98.6666666667 999 116 986.666666667 128 962 c 0
 278 663.333333333 325.666666667 355.333333333 271 38 c 0
 240.333333333 -128.666666667 168 -268.333333333 54 -381 c 0
 -43.3489602603 -477.290819388 -147.600566627 -530.84243503 -285.5 -555 c 0
 -453.224178421 -584.382337826 -604.344303334 -519.311393332 -658.5 -411 c 0
 -700.033648962 -327.932702077 -684.431491434 -235.269846228 -630 -176 c 0
 -551.333333333 -86 -423.666666667 -60.6666666667 -247 -100 c 0
 -149 -122 -58.3333333333 -160.666666667 25 -216 c 1
 85 -134 124.666666667 -41.3333333333 144 62 c 0
 193.333333333 349.333333333 149.333333333 630 12 904 c 0
 -17.2096226418 961.091535163 30.8040083172 999 76 999 c 0
EndSplineSet
EndChar

StartChar: e1
Encoding: 152 3398 100
Width: 1395
GlyphClass: 2
Flags: HW
LayerCount: 2
Fore
SplineSet
100 432 m 0
 100 782 388 1023 697 1023 c 0
 1007 1023 1295 779 1295 425 c 0
 1295 268 1235 112 1120 0 c 0
 1109 -11 1086 -21 1070 -21 c 0
 1031 -21 1000 10 1000 49 c 0
 1000 66 1010 89 1022 100 c 0
 1109 185 1154 305 1154 425 c 0
 1154 702 928 883 691 883 c 0
 522 883 367 781 291 637 c 1
 345 671 417 695 485 695 c 0
 668 695 847 546 847 336 c 0
 847 151 695 -17 496 -17 c 0
 249 -17 100 217 100 432 c 0
706 339 m 0
 706 466 598 552 485 552 c 0
 354 552 263 443 263 327 c 0
 263 216.272592668 383.664954893 124 492 124 c 0
 617 124 706 219 706 339 c 0
EndSplineSet
EndChar

StartChar: e2
Encoding: 153 3399 101
Width: 1022
GlyphClass: 2
Flags: HW
LayerCount: 2
Fore
SplineSet
577.607421875 1026.00683594 m 0
 750.190429688 1026.00683594 908.084295365 924.766216894 908.084295365 750.731272417 c 0
 908.084295365 630.87637272 809.82734566 534.780373112 685.979533905 534.780373112 c 0
 559.693923989 534.780373112 464.508577913 634.425307795 464.508577913 758.696128561 c 0
 464.508577913 814.430241052 480.724794129 859.864864865 513.157226562 895 c 1
 366.631789161 851.708393496 242.386012264 670.915629766 242.386012264 513.338335652 c 0
 242.386012264 322.537766721 376.413658296 169.675352258 523.157226562 108 c 1
 486.375213302 161.721201879 469.778623872 212.602399061 469.778623872 258.778444438 c 0
 469.778623872 356.268815601 565.76697987 469.399420398 690.729098618 469.399420398 c 0
 824.446464197 469.399420398 922.303270304 362.27331624 922.303270304 236.381343578 c 0
 922.303270304 79.242346708 783.30768059 -22.3082951031 624.35497147 -22.3082951031 c 0
 331.003280313 -22.3082951031 99.8785165214 230.01442894 99.8785165214 526.057575272 c 0
 99.8785165214 793.19989311 309.571289062 1026.00683594 577.607421875 1026.00683594 c 0
695.657226562 127 m 0
 754.2421875 127 803.157226562 175.563476562 803.157226562 234 c 0
 803.157226562 292.4375 754.239257812 341 695.657226562 341 c 0
 637.043945312 341 589.157226562 292.4375 589.157226562 234 c 0
 589.157226562 175.561523438 637.046875 127 695.657226562 127 c 0
687.157226562 654 m 0
 747.757043429 654 797.157226562 704.075209959 797.157226562 764.5 c 0
 797.157226562 824.925304237 747.754136432 875 687.157226562 875 c 0
 626.585104491 875 576.157226562 824.923580171 576.157226562 764.5 c 0
 576.157226562 704.075899924 626.588126695 654 687.157226562 654 c 0
EndSplineSet
EndChar

StartChar: xx
Encoding: 158 3405 106
Width: 142
GlyphClass: 4
Flags: HW
LayerCount: 2
Fore
SplineSet
191 1295 m 0
 191 1320 184 1336 184 1365 c 0
 184 1394 221 1425 252 1425 c 0
 313 1425 332 1367 332 1304 c 0
 332 1115 193 974 7 974 c 0
 -180 974 -311 1129 -311 1295 c 0
 -311 1360 -298 1429 -230 1429 c 0
 -200 1429 -163 1396 -163 1368 c 0
 -163 1341 -170 1321 -170 1294 c 0
 -170 1191 -86 1115 7 1115 c 0
 111 1115 191 1200 191 1295 c 0
EndSplineSet
EndChar

StartChar: au2
Encoding: 160 3415 108
Width: 1556
GlyphClass: 2
Flags: HW
LayerCount: 2
Fore
SplineSet
675.419921875 645 m 0
 673.067382812 772.015625 588.364257812 883.142578125 455.685546875 883.142578125 c 0
 331.59375 883.142578125 240.47265625 774.0078125 240.47265625 651.470703125 c 0
 240.47265625 616.840820312 249.455078125 582.684570312 267.419921875 549 c 0
 273.407226562 537.880859375 276.133789062 526.185546875 276.133789062 514.802734375 c 0
 276.133789062 477.89453125 247.465820312 444.27734375 208.33984375 444.27734375 c 0
 177.057617188 444.27734375 155.434570312 460.970703125 144.419921875 483 c 0
 114.806640625 538.103515625 100 594.049804688 100 650.838867188 c 0
 100 852.236328125 250.932617188 1024.33300781 455.99609375 1024.33300781 c 0
 592.908203125 1024.33300781 711.419921875 947 750.419921875 847 c 1
 797.419921875 945 918.416992188 1021.95019531 1060.15917969 1021.95019531 c 0
 1284.68847656 1021.95019531 1456.12695312 800.88671875 1456.12695312 572.114257812 c 0
 1456.12695312 204.046875 1112.31347656 -25.5146484375 743.697265625 -25.5146484375 c 0
 630.302734375 -25.5146484375 517.271484375 -2.5654296875 415.419921875 43 c 0
 393.251953125 52.03125 372.08203125 76.80859375 372.08203125 107.213867188 c 0
 372.08203125 146.471679688 403.645507812 177.643554688 442.313476562 177.643554688 c 0
 451.89453125 177.643554688 462.032226562 175.616210938 472.419921875 171 c 0
 555.900390625 133.97265625 650.879882812 114.97265625 745.989257812 114.97265625 c 0
 1035.71875 114.97265625 1316.11035156 288.029296875 1316.11035156 574.3046875 c 0
 1316.11035156 731.87109375 1208.99316406 879 1054.41992188 879 c 0
 893.098632812 879 817.33984375 753.275390625 814.419921875 581 c 1
 808.110351562 548.19140625 776.66796875 526.271484375 744.39453125 526.271484375 c 0
 704.03515625 526.271484375 674.701171875 561.102539062 674.701171875 598.987304688 c 0
 674.701171875 610.584960938 675.419921875 625.178710938 675.419921875 645 c 0
EndSplineSet
EndChar

StartChar: datemark
Encoding: 164 3449 109
Width: 2321
GlyphClass: 2
Flags: HW
LayerCount: 2
Fore
SplineSet
1815 514 m 1
 1711.66666667 516 1639.33333333 514 1598 508 c 0
 1468 489.333333333 1396 435.333333333 1382 346 c 0
 1372 280.666666667 1394.16666667 226 1448.5 182 c 0
 1502.83333333 138 1566.66666667 128.833333333 1640 154.5 c 0
 1758.55156954 195.99304934 1843.58454984 340.811256824 1815 514 c 1
984.5 -6 m 0
 952.241687606 -6 922 28.8013870765 922 63 c 2
 924 433 l 2
 925.312248728 573.410613937 917.38006627 647.248903909 861 729 c 0
 782.510260084 843.424801564 625.476152163 894.771980992 467.5 832 c 0
 368.061525839 792.488023512 294.896118722 716.346197752 260 613 c 0
 199.810432563 434.746281053 288.408633628 273.897954652 396.5 199 c 0
 469.218620722 148.612294303 580.745779463 117.532207857 695 148 c 0
 738.897023638 162.632341213 784 122.760107519 784 87 c 0
 784 45.6666666667 766.333333333 20.6666666667 731 12 c 0
 474.528212904 -56.392476559 265.405802838 81.4238713343 170.5 241 c 0
 101.624740294 356.807958797 75.2354084054 506.37233472 126.5 658 c 0
 174.343712654 799.509572638 276.48136359 902.336748748 409.5 960 c 0
 477.166666667 989.333333333 548.333333333 1002 623 998 c 0
 795 989.333333333 920.333333333 914 999 772 c 1
 999 772.666666667 999.333333333 773.333333333 1000 774 c 0
 1061.33333333 882.666666667 1165.66666667 953.333333333 1313 986 c 0
 1496.97636217 1026.88363604 1664.73066033 953.719054778 1769 867 c 0
 1836.33333333 811 1887.33333333 739.666666667 1922 653 c 1
 2152 649 l 2
 2187.60925547 649 2222 618.186848443 2222 584 c 0
 2222 537.662995921 2192.36921508 509 2152 509 c 0
 2151 509 2151 509 2150 509 c 2
 1957 512 l 1
 1986.21369901 260.762188522 1849.15345824 78.9318352263 1685 22 c 0
 1487.46029643 -47.4645111453 1316.99460584 65.0793686788 1261.5 207 c 0
 1217.30697682 320.018223205 1246.87342043 439.887816591 1308 513 c 0
 1403.55731639 625.358602794 1549.44617592 658.716445243 1765 655 c 1
 1708.33333333 753.666666667 1623.66666667 816.666666667 1511 844 c 0
 1449 859.333333333 1392 861 1340 849 c 0
 1189.33333333 815 1101 725 1075 579 c 0
 1069 546.333333333 1065.66666667 497.666666667 1065 433 c 2
 1062 63 l 1
 1062 62 l 2
 1061.09805398 21.4124291693 1033.47467708 -6 984.5 -6 c 0
EndSplineSet
EndChar

StartChar: ZWNJ
Encoding: 171 8204 110
Width: 321
GlyphClass: 2
Flags: HW
LayerCount: 2
Fore
SplineSet
66 992 m 1
 225 992 l 1
 225 3 l 1
 66 3 l 1
 66 992 l 1
EndSplineSet
EndChar

StartChar: ZWJ
Encoding: 172 8205 111
Width: 321
GlyphClass: 2
Flags: HW
LayerCount: 2
Fore
SplineSet
70 879 m 1
 224 879 l 1
 224 4 l 1
 70 4 l 1
 70 879 l 1
148 1003 m 1
 14 795 l 1
 -90 795 l 1
 96 1067 l 1
 -76 1315 l 1
 33 1315 l 1
 111 1194 l 2
 117 1184.66666667 128.333333333 1165 145 1135 c 1
 270 1315 l 1
 377 1315 l 1
 199 1071 l 1
 387 795 l 1
 283 795 l 1
 148 1003 l 1
EndSplineSet
EndChar

StartChar: rupee
Encoding: 173 8377 112
Width: 1231
GlyphClass: 2
Flags: HW
LayerCount: 2
Fore
SplineSet
100 1245.5 m 0
 100 1280.23993121 130.405443994 1311 165 1311 c 0
 266.333333333 1310.33333333 368 1310 470 1310 c 2
 1059 1308 l 2
 1094.44898207 1308 1124 1277.77579624 1124 1242.5 c 0
 1124 1207.96715079 1093.79662442 1176.66166829 1059 1178 c 0
 957 1178 855.333333333 1178.33333333 754 1179 c 1
 803.333333333 1108.33333333 821.333333333 1027.33333333 808 936 c 1
 894 936 980.333333333 935.666666667 1067 935 c 0
 1102.44694088 935 1132 905.799119049 1132 870.5 c 0
 1132 835.760068792 1101.59455601 805 1067 805 c 0
 967.666666667 805.666666667 868 806 768 806 c 1
 698.258860536 660.258900864 565.017263634 535.885327134 399 473 c 1
 891 82 l 2
 956.13262556 29.2735888322 874.687881671 -72.3663804003 810 -20 c 2
 218 450 l 2
 174.60795603 484.256876818 196.033933773 557.301323522 248 565 c 0
 407.462022976 592.29530123 541.108075068 690.162112602 619 807 c 1
 470.333333333 807.666666667 321.666666667 808 173 808 c 0
 137.551017933 808 108 838.224203764 108 873.5 c 0
 108 908.580495197 137.352990793 939.3202596 173 938 c 1
 676 937 l 1
 703.687284229 1067.52576851 627.981327888 1164.00266744 523 1179 c 1
 477 1180 l 2
 465.871589726 1180 454.879511488 1175.72938108 441 1180 c 1
 349 1180 257 1180.33333333 165 1181 c 0
 129.553059122 1181 100 1210.20088095 100 1245.5 c 0
EndSplineSet
EndChar

StartChar: uni25CC
Encoding: 174 9676 113
Width: 1131
GlyphClass: 2
Flags: HW
LayerCount: 2
Fore
SplineSet
212 325 m 1
 277.523568095 224.093705134 259.200389211 247.910866053 348 192 c 1
 270 91 l 1
 208.666666667 130.333333333 171.333333333 158.333333333 158 175 c 1
 156 175 l 1
 104 250 l 1
 212 325 l 1
686 18 m 1
 655.333333333 8.66666666667 617 4 571 4 c 0
 525 4 484.666666667 8.66666666667 450 18 c 1
 470 138 l 1
 513.333333333 131.333333333 546.166666667 128 568.5 128 c 0
 590.833333333 128 623.333333333 131.333333333 666 138 c 1
 686 18 l 1
170 426 m 1
 42 405 l 1
 34 442.333333333 30 479.666666667 30 517 c 0
 30 554.333333333 34 592 42 630 c 1
 170 609 l 1
 162 587 158 556.5 158 517.5 c 0
 158 478.5 162 448 170 426 c 1
348 843 m 1
 292 811.666666667 260 787.666666667 252 771 c 1
 212 710 l 1
 104 784 l 1
 138.666666667 834.666666667 166 869.333333333 186 888 c 0
 194 894 222 912.666666667 270 944 c 1
 348 843 l 1
1038 250 m 1
 999.333333333 196.666666667 971.333333333 160.666666667 954 142 c 1
 952 142 l 1
 950.666666667 140.666666667 922.666666667 123.666666667 868 91 c 1
 794 192 l 1
 842 221.333333333 873.333333333 244 888 260 c 0
 912 294.666666667 926 316.333333333 930 325 c 1
 1038 250 l 1
1098 630 m 1
 1107.33333333 592 1112 554.5 1112 517.5 c 0
 1112 480.5 1107.33333333 443 1098 405 c 1
 972 426 l 1
 978 466 981 495.5 981 514.5 c 0
 981 533.5 978 565 972 609 c 1
 1098 630 l 1
686 1017 m 1
 666 897 l 1
 623.333333333 903.666666667 590.666666667 907 568 907 c 0
 545.333333333 907 512.666666667 903.666666667 470 897 c 1
 450 1017 l 1
 497.333333333 1027.66666667 537.333333333 1033 570 1033 c 0
 602.666666667 1033 641.333333333 1027.66666667 686 1017 c 1
930 710 m 1
 887.333333333 781.333333333 842 825.666666667 794 843 c 1
 868 944 l 1
 921.333333333 909.333333333 958.666666667 881.333333333 980 860 c 1
 984 858 l 1
 1009.33333333 826.666666667 1027.33333333 802 1038 784 c 1
 930 710 l 1
EndSplineSet
EndChar

StartChar: r4
Encoding: 178 -1 114
Width: 615
GlyphClass: 2
LigCaretCntFixed: 1
Flags: HW
LayerCount: 2
Fore
SplineSet
453 -166 m 0
 503.854871725 -167.883513768 540.37839806 -236.524981795 495 -278.5 c 0
 481.666666667 -290.833333333 466 -296.666666667 448 -296 c 0
 290 -290 185.666666667 -228 135 -110 c 0
 94.3333333333 -15.3333333333 88.6666666667 135.333333333 118 342 c 0
 129.333333333 424 150.5 543.166666667 181.5 699.5 c 0
 212.5 855.833333333 230 944.833333333 234 966.5 c 0
 240.663112958 1002.59186186 269.512508678 1032.92216817 311.5 1025 c 0
 345.812851634 1018.52587705 370.1183631 985.297936533 362 942 c 0
 300.666666667 635.333333333 262.333333333 429.333333333 247 324 c 0
 221.666666667 141.333333333 223.833333333 14.8333333333 253.5 -55.5 c 0
 283.166666667 -125.833333333 349.666666667 -162.666666667 453 -166 c 0
EndSplineSet
LCarets2: 1 0
EndChar

StartChar: y2
Encoding: 179 -1 115
Width: 598
GlyphClass: 2
LigCaretCntFixed: 1
Flags: HW
LayerCount: 2
Fore
SplineSet
232.147524032 -446.487792157 m 0
 361.53074391 -446.487792157 457.669053885 -341.776180106 457.669053885 -214.87368251 c 0
 457.669053885 119.824258556 88.6405797101 362.457993937 88.6405797101 731.310959883 c 0
 88.6405797101 812.610899672 100.760386473 893.840579711 125 975 c 0
 132.53022107 1005.12088429 162.839458452 1024.80910227 193.746330319 1024.80910227 c 0
 225.388692602 1024.80910227 262 995.835987784 262 965 c 0
 262 951.666666667 261 941.666666667 259 935 c 0
 239.812297735 861.987055016 230.218446602 791.069854211 230.218446602 722.248397586 c 0
 230.218446602 330.642814198 599.879056047 134.564743151 599.879056047 -212.701203434 c 0
 599.879056047 -413.404062783 442.601416815 -587.83767105 234.901502386 -587.83767105 c 0
 45.5166448592 -587.83767105 -110.459627327 -443.643450659 -110.459627327 -253.067743293 c 0
 -110.459627327 -116.600808028 -42.9809548357 -23.7759812714 50 33 c 0
 62.4387423036 40.5714083587 75.334377373 43.9994252795 87.6991896322 43.9994252795 c 0
 125.304553051 43.9994252795 158 12.291524993 158 -31 c 0
 158 -53.6666666667 147 -71.6666666667 125 -85 c 0
 72.4209349615 -117.175248755 30.4160077469 -181.036559555 30.4160077469 -252.448636652 c 0
 30.4160077469 -361.772104852 120.470289268 -446.487792157 232.147524032 -446.487792157 c 0
EndSplineSet
LCarets2: 1 3
EndChar

StartChar: v2
Encoding: 182 -1 118
Width: 437
GlyphClass: 3
LigCaretCntFixed: 1
Flags: HW
LayerCount: 2
Fore
SplineSet
-303 -246 m 0
 -303 -211.079391928 -276.725791372 -170 -247 -170 c 0
 -24.5 -170 -24.5 -170 198 -170 c 1
 194 954 l 1
 194 969 l 2
 194 994.895583942 234.393450545 1025 264 1025 c 0
 302.354038676 1025 334 993.352938406 334 955 c 2
 334 954 l 1
 338 -240 l 2
 338 -276.620152512 310.984851599 -310 268 -310 c 0
 13 -310 13 -310 -242 -310 c 0
 -275.358433106 -310 -303 -273.122894595 -303 -246 c 0
EndSplineSet
LCarets2: 1 0
EndChar

StartChar: k1cil
Encoding: 170 3455 119
Width: 1964
GlyphClass: 3
Flags: HW
LayerCount: 2
Fore
SplineSet
562 510 m 1
 478.666666667 506.666666667 415.666666667 494.333333333 373 473 c 0
 286.333333333 430.333333333 242 371 240 295 c 0
 237.472440181 211.590525967 308.676939115 132.917269895 382 126 c 0
 501.793981986 116.22089943 593.261322633 198.723366923 586 312 c 1
 568.666666667 374 560.666666667 440 562 510 c 1
1443 512 m 1
 1443 511.333333333 1442.66666667 510 1442 508 c 0
 1389.33333333 360.666666667 1395.66666667 248.333333333 1461 171 c 0
 1548.69620073 67.991764225 1678.39225784 121.673378537 1716.5 228.5 c 0
 1736.83333333 285.5 1724.5 345 1679.5 407 c 0
 1634.5 469 1555.66666667 504 1443 512 c 1
1277 514 m 1
 702 512 l 1
 699.719820231 419.652719365 714.586373569 379.695152111 731.5 320 c 0
 749.092014543 257.910536906 805.9089822 190.054924535 864 155 c 0
 946 105.666666667 1028.33333333 105 1111 153 c 0
 1218.94001535 216.275181411 1282.20136771 349.636780395 1277 514 c 1
1255 654 m 1
 1217.04993231 776.475218438 1117.31867517 888.115520767 987 886.5 c 0
 857.915730457 884.899781783 759.84106646 774.803554865 723 652 c 1
 1255 654 l 1
1340 1381 m 0
 1352 1410.33333333 1370.33333333 1425 1395 1425 c 0
 1419.66666667 1425 1439 1418.66666667 1453 1406 c 0
 1613.66666667 1257.33333333 1647.33333333 1053 1554 793 c 0
 1548.8650605 778.501347307 1498 647 1498 647 c 1
 1630 632.333333333 1731 576 1801 478 c 0
 1896.29068009 345.651833214 1882.067874 163.883587674 1767 53 c 0
 1693.66666667 -17.6666666667 1604 -40 1498 -14 c 0
 1420.60545559 5.34863610197 1349.48586636 72.184674261 1310 147 c 1
 1244.78564719 60.0475295918 1131.87366817 -22.4259579434 985 -21 c 0
 846.997401919 -19.6601689507 741.495074105 56.1831380794 679 133 c 1
 624.956109357 46.1437471815 524.315606784 -25.6886428268 386 -14 c 0
 304.666666667 -7.33333333333 236.166666667 26 180.5 86 c 0
 124.833333333 146 98 212.833333333 100 286.5 c 0
 104.333972471 446.134652682 198.198138998 543.254581496 313.5 600 c 0
 377.166666667 631.333333333 465.333333333 648.333333333 578 651 c 1
 596 730.333333333 625.666666667 797.333333333 667 852 c 0
 753 966.666666667 859 1025 985 1027 c 0
 1048.33333333 1027.66666667 1107.66666667 1013 1163 983 c 0
 1263 929 1334.66666667 844 1378 728 c 1
 1398.66666667 776.666666667 1413.66666667 814 1423 840 c 0
 1495 1042 1473.33333333 1196.33333333 1358 1303 c 0
 1334.31683168 1324.62376237 1328.31683168 1350.62376237 1340 1381 c 0
EndSplineSet
LCarets2: 2 0 0
EndChar

StartChar: nhcil
Encoding: 165 3450 120
Width: 2758
GlyphClass: 2
Flags: HW
LayerCount: 2
Fore
SplineSet
643.5 208 m 0
 729.338417565 364.617463628 539.726233308 539.624914361 390 431 c 0
 335.934294825 391.775860951 291.679068542 303.867537432 332 220 c 0
 367.232416345 146.51524591 455.857318811 91.2162536751 558.5 133 c 0
 596.166666667 148.333333333 624.5 173.333333333 643.5 208 c 0
2308 832 m 1
 2278.89481758 747.215338165 2201.71271056 612.927826881 2163 538 c 0
 2142.33333333 498 2126.5 448 2115.5 388 c 0
 2085.28025791 223.165043137 2237.82271924 47.0862180911 2394.5 144 c 0
 2490.02573826 203.088085523 2533.27464028 322.642670939 2515 479.5 c 0
 2497.06656623 633.428639898 2421.06356781 761.822613081 2308 832 c 1
2064 1291.5 m 0
 2064 1322.77076354 2092.64155081 1364 2120 1364 c 0
 2151.07369336 1364 2158.55014472 1364.06303603 2180 1346 c 0
 2270.07586699 1268.46634234 2346.171285 1136.96893992 2337 978 c 1
 2506.79237365 893.912348289 2628.44912202 709.737916706 2654 492 c 0
 2679.36585448 275.838805302 2601.27446502 105.297870495 2463 22 c 0
 2407.66666667 -11.3333333333 2350.33333333 -26 2291 -22 c 0
 2175 -14 2087 41.3333333333 2027 144 c 0
 1947.66666667 280 1954 438.666666667 2046 620 c 0
 2060.21141508 647.53461672 2155.8396305 821.526528146 2166.5 853 c 0
 2173.5 873.666666667 2175.66666667 884 2173 884 c 0
 2116.33333333 892 2062 886 2010 866 c 0
 1904 824.666666667 1838.66666667 740 1814 612 c 0
 1806 569.333333333 1802 506 1802 422 c 2
 1804 44 l 2
 1804 5.91250840849 1772.43980355 -26 1734.5 -26 c 0
 1695.51380691 -26 1665.2799611 5.6011670039 1664 44 c 2
 1661 418 l 2
 1659.66666667 560.666666667 1646.33333333 660 1621 716 c 0
 1570.33333333 825.333333333 1499.66666667 882.666666667 1409 888 c 0
 1363 890.666666667 1319.33333333 878.666666667 1278 852 c 0
 1155.04070757 771.404833535 1128.17901738 632.517914126 1130 414 c 2
 1132 44 l 2
 1132 5.91250840849 1100.43980355 -26 1062.5 -26 c 0
 1023.51380691 -26 993.2799611 5.6011670039 992 44 c 2
 989 412 l 2
 987.698556515 574.680435638 980.522891986 652.932583044 916 749 c 0
 851.89911382 844.439097201 703.832146855 925.653969438 556.5 882 c 0
 475.5 858 414 823.333333333 372 778 c 0
 293.333333333 691.333333333 249.666666667 591.333333333 241 478 c 1
 297.596241853 552.160592773 399.176849358 611.063034058 511 602.5 c 0
 721.39195634 586.388904244 885.064374512 358.521453436 766 141 c 0
 731.333333333 77.6666666667 678.666666667 31.3333333333 608 2 c 0
 516.666666667 -36.6666666667 420 -29.3333333333 318 24 c 0
 188.090166884 93.1009750619 90.9873470586 263.73681882 101 472 c 0
 111.338047532 707.707483726 246.368809322 903.382012047 434 988 c 0
 578.659402894 1053.23855425 735.633608747 1046.42955175 873 974 c 0
 946.333333333 935.333333333 1006 876 1052 796 c 1
 1052 796 1052 796 1053 800 c 0
 1108.87440429 918.590572373 1245.99681321 1039.50019917 1414 1029 c 0
 1570.283587 1019.23227581 1679.06683315 914.352252217 1735 800 c 1
 1787.66666667 892.666666667 1858.33333333 956.833333333 1947 992.5 c 0
 2035.66666667 1028.16666667 2118.66666667 1038.66666667 2196 1024 c 0
 2196.4762151 1024 2196.78234459 1023.65982876 2196.91838881 1022.97948637 c 1
 2189.40295758 1111.86463729 2153.43016119 1184.20480848 2089 1240 c 0
 2072.33333333 1254 2064 1271.16666667 2064 1291.5 c 0
EndSplineSet
LCarets2: 2 0 0
EndChar

StartChar: n1cil
Encoding: 166 3451 121
Width: 2051
GlyphClass: 2
Flags: HW
LayerCount: 2
Fore
SplineSet
1367.35840708 354.140304867 m 0
 1367.35840708 224.062888148 1460.96247687 118.318324922 1579.14017487 118.318324922 c 0
 1725.9806433 118.318324922 1812.27330544 277.216950523 1812.27330544 432.867959885 c 0
 1812.27330544 612.385588494 1722.93899928 756.638155584 1594 830 c 1
 1531.90716438 689.716186199 1367.35840708 523.462171922 1367.35840708 354.140304867 c 0
1635 967 m 1
 1815.6138171 877.62409051 1952.33621574 694.579125799 1952.33621574 431.360233664 c 0
 1952.33621574 197.150412719 1815.20622127 -20.9260355671 1576.09269752 -20.9260355671 c 0
 1371.49865436 -20.9260355671 1227.69101124 153.542744599 1227.69101124 354.44369398 c 0
 1227.69101124 586.067098974 1383.92188567 715.714397605 1460 877 c 1
 1441.5257732 879.694158076 1423.48205619 881.041237113 1405.86884897 881.041237113 c 0
 1181.59461255 881.041237113 1057 697.936280173 1057 507 c 2
 1058 47 l 2
 1058 8.61990899149 1026.35293841 -22 988 -22 c 0
 950.184641927 -22 918 8.453255048 918 46 c 2
 916 508 l 1
 916 516 l 2
 916.05373162 519.223897214 916.08059743 522.427740743 916.08059743 525.611530587 c 0
 916.08059743 719.383881824 786.288550181 881.278498967 588.306361442 881.278498967 c 0
 381.110561674 881.278498967 240.991869919 708.737972659 240.991869919 509.806266113 c 0
 240.991869919 289.919051459 418.054543923 121.666666666 634.888888896 121.666666666 c 0
 661.085022263 121.666666666 678.474842586 126 706.5 126 c 0
 733.820631261 126 765 87.5017015136 765 57.5 c 0
 765 -11.9029618106 695.495510179 -18.9620253165 627.116487742 -18.9620253165 c 0
 333.622114599 -18.9620253165 100.431818182 222.851082569 100.431818182 514.662190083 c 0
 100.431818182 795.805881418 309.715685657 1018.02671263 590.282190497 1018.02671263 c 0
 780.351843294 1018.02671263 918.342819587 913.992545443 992 788 c 1
 1068.95404721 912.456545491 1219.22006487 1020.57555617 1406.80232867 1020.57555617 c 0
 1436.63907202 1020.57555617 1467.41991373 1017.84015294 1499 1012 c 1
 1499.2973878 1017.50167421 1499.44337629 1022.94875937 1499.44337629 1028.33922712 c 0
 1499.44337629 1138.84536012 1438.08999765 1225.55736251 1362 1271 c 0
 1338.66666667 1284.33333333 1327 1302.5 1327 1325.5 c 0
 1327 1365.72897932 1355.05439614 1402 1392.5 1402 c 0
 1408.83333333 1402 1422.66666667 1398.33333333 1434 1391 c 0
 1540.35606471 1326.9894055 1640.19549377 1195.06585509 1640.19549377 1033.84090041 c 0
 1640.19549377 1013.02149398 1638.53064708 991.713479518 1635 970 c 1
 1635 967 l 1
EndSplineSet
LCarets2: 2 0 0
EndChar

StartChar: l3cil
Encoding: 168 3453 122
Width: 2092
GlyphClass: 3
Flags: HW
LayerCount: 2
Fore
SplineSet
1469 352 m 0
 1469 234 1542 116 1660 116 c 0
 1785 116 1852 243 1852 367 c 0
 1852 551 1760 681 1631 777 c 1
 1590 685 1469 492 1469 352 c 0
915 797 m 1
 776 706 679 566 679 380 c 0
 679 252 760 113 894 113 c 0
 1031 113 1114 252 1114 389 c 0
 1114 572 1038 709 915 797 c 1
541 388 m 0
 541 601 650 762 772 865 c 1
 729 877 688 882 649 882 c 0
 417 882 240 698 240 465 c 0
 240 301 338 170 449 107 c 0
 473 94 485 75 485 52 c 0
 485 12 457 -24 420 -24 c 0
 404 -24 390 -21 379 -15 c 0
 230 71 100 243 100 463 c 0
 100 783 358 1023 656 1023 c 0
 740 1023 829 1003 917 959 c 1
 1021 1009 1139 1036 1259 1036 c 0
 1358 1036 1458 1018 1551 980 c 1
 1554 1000 1556 1019 1556 1037 c 0
 1556 1145 1482 1248 1383 1266 c 0
 1337 1275 1314 1301 1314 1345 c 0
 1314 1346 1314 1346 1314 1347 c 0
 1314 1372 1348 1408 1373 1408 c 0
 1385 1408 1393 1408 1398 1407 c 0
 1563 1376 1696 1236 1696 1038 c 0
 1696 999 1691 958 1680 914 c 1
 1845 806 1992 621 1992 367 c 0
 1992 164 1867 -24 1660 -24 c 0
 1460 -24 1329 152 1329 351 c 0
 1329 534 1448 707 1509 846 c 1
 1426 881 1343 898 1259 898 c 0
 1191 898 1123 887 1054 864 c 1
 1180 747 1254 597 1254 400 c 0
 1254 178 1121 -26 895 -26 c 0
 674 -26 541 173 541 388 c 0
EndSplineSet
LCarets2: 2 0 0
EndChar

StartChar: lhcil
Encoding: 169 3454 123
Width: 1931
GlyphClass: 3
Flags: HW
LayerCount: 2
Fore
SplineSet
1447 112 m 0
 1589 112 1690 258 1690 418 c 0
 1690 599 1576 782 1412 856 c 1
 1337 678 1216 533 1216 383 c 0
 1216 246 1308 112 1447 112 c 0
550 -30 m 0
 297 -30 100 194 100 475 c 0
 100 701 234 920 443 1018 c 0
 451 1022 464 1025 473 1025 c 0
 512 1025 543 994 543 955 c 0
 543 930 525 901 502 891 c 0
 345 818 241 643 241 470 c 0
 241 273 380 110 553 110 c 0
 709 110 790 235 790 388 c 0
 790 428 788 471 788 516 c 0
 788 810 964 1035 1242 1035 c 0
 1265 1035 1288 1034 1310 1031 c 1
 1310 1047 l 2
 1310 1136 1278 1225 1219 1290 c 0
 1209 1301 1200 1323 1200 1338 c 0
 1200 1377 1231 1408 1270 1408 c 0
 1289 1408 1311 1397 1323 1384 c 0
 1407 1292 1451 1171 1451 1049 c 0
 1451 1030 1450 1012 1448 993 c 1
 1678 902 1831 667 1831 423 c 0
 1831 384 1827 346 1819 307 c 0
 1788 131 1640 -28 1449 -28 c 0
 1216 -28 1076 173 1076 387 c 0
 1076 596 1214 750 1276 893 c 1
 1266 894 1256 894 1246 894 c 0
 1012 894 931 720 931 473 c 2
 931 450 l 2
 931 182 831 -30 550 -30 c 0
EndSplineSet
LCarets2: 2 0 0
EndChar

StartChar: r3cil
Encoding: 167 3452 124
Width: 1405
GlyphClass: 3
Flags: HW
LayerCount: 2
Fore
SplineSet
901 831 m 1
 864.152257653 760.989289542 745.430847084 604.424116998 706 536 c 0
 660 455.333333333 649.166666667 375 673.5 295 c 0
 697.833333333 215 750.166666667 161.5 830.5 134.5 c 0
 910.833333333 107.5 984.666666667 120.833333333 1052 174.5 c 0
 1185.65317168 281.025547728 1201.4868664 505.956976785 1095.5 660 c 0
 1041.83333333 738 977 795 901 831 c 1
495 46 m 0
 495 14.9886319855 461.739434057 -19 431 -19 c 0
 415.666666667 -19 403 -16.3333333333 393 -11 c 0
 222.811246059 72.9444529573 77.3353027846 266.411156275 103 514 c 0
 117.666666667 656 179 774.166666667 287 868.5 c 0
 395 962.833333333 521 1013 665 1019 c 0
 715.666666667 1021 753.666666667 1019.5 779 1014.5 c 0
 804.333333333 1009.5 817 1007.66666667 817 1009 c 0
 840.378025435 1129.00719723 769.464820252 1232.00702279 695 1278 c 0
 672.333333333 1291.33333333 661 1309.33333333 661 1332 c 0
 661 1371.82894763 689.293276105 1408 726.5 1408 c 0
 742.833333333 1408 757 1404.33333333 769 1397 c 0
 888.370032232 1322.82832949 993.803005637 1162.25537107 951 963 c 1
 1055 916.333333333 1142.5 841 1213.5 737 c 0
 1284.5 633 1314.66666667 514.833333333 1304 382.5 c 0
 1288.42210776 189.236774455 1159.60493939 23.798791908 970 -11.5 c 0
 823.266216048 -38.8174597782 702.013060549 24.6121957572 629.5 101 c 0
 497.167202736 240.404015439 481.702540578 450.092231055 609 648 c 0
 644.098937701 702.463868846 729.930602559 816.6595451 763 873 c 1
 678.333333333 885.666666667 603.5 879.5 538.5 854.5 c 0
 473.5 829.5 425 803 393 775 c 0
 256.431370832 655.757241697 184.448695307 462.537406794 288.5 274 c 0
 327.5 203.333333333 383 150 455 114 c 0
 481.666666667 101.333333333 495 78.6666666667 495 46 c 0
EndSplineSet
LCarets2: 2 0 0
EndChar

StartChar: k1u1
Encoding: 183 -1 125
Width: 1925
GlyphClass: 3
LigCaretCntFixed: 1
Flags: HW
LayerCount: 2
Fore
SplineSet
557.5078125 502 m 1
 438.841145833 492.666666667 352.174479167 461.333333333 297.5078125 408 c 0
 241.196061467 351.688248967 216.971790879 265.768939855 273.0078125 192 c 0
 299.341145833 157.333333333 329.841145833 137 364.5078125 131 c 0
 489.238239154 109.363089254 591.806792631 195.431114808 583.5078125 313 c 0
 583.5078125 314 583.5078125 314 583.5078125 315 c 0
 565.5078125 373.666666667 556.841145833 436 557.5078125 502 c 1
697.5078125 507 m 1
 693.474215072 310.698258505 806.941578277 134.210932365 981.5078125 129 c 0
 1085.26837152 125.855740636 1166.01670132 185.837777687 1213.5078125 251 c 0
 1264.84114583 321 1289.17447917 407.333333333 1286.5078125 510 c 1
 899.841145833 508 703.5078125 507 697.5078125 507 c 1
719.5078125 647 m 1
 1241.5078125 650 l 1
 1263.5078125 650 l 1
 1232.84114583 744 1179.5078125 810.333333333 1103.5078125 849 c 0
 1027.5078125 887.666666667 952.0078125 887.166666667 877.0078125 847.5 c 0
 802.0078125 807.833333333 749.5078125 741 719.5078125 647 c 1
1684.5078125 160 m 0
 1685.50260417 198.666666667 1650.33333333 218.166666667 1579 218.5 c 0
 1507.66666667 218.833333333 1472.16927083 241.666666667 1472.5078125 287 c 0
 1472.8359375 328.333333333 1494.16927083 349.666666667 1536.5078125 351 c 2
 1590.5078125 352 l 2
 1654.8359375 353.333333333 1685.50260417 376.666666667 1682.5078125 422 c 0
 1678.8359375 487.333333333 1593.50260417 518.333333333 1426.5078125 515 c 1
 1432.51567954 294.033555892 1327.71421954 116.402138667 1173 34 c 0
 990.242726624 -63.3381129939 796.334875816 0.484250842049 678.5078125 139 c 1
 636.169270833 68.3333333333 575.169270833 21.3333333333 495.5078125 -2 c 0
 348.614450408 -44.2667199005 228.510519969 20.4502762522 160.5078125 109 c 0
 111.502604167 173.666666667 92.3359375 243.166666667 103.0078125 317.5 c 0
 114.3359375 391.833333333 143.8359375 453 191.5078125 501 c 0
 279.8359375 587.666666667 407.169270833 635.333333333 573.5078125 644 c 1
 592.502604167 725.333333333 623.8359375 793.333333333 667.5078125 848 c 0
 756.502604167 959.333333333 863.666666667 1015.66666667 989 1017 c 0
 1114.33333333 1018.33333333 1222.16927083 963.666666667 1312.5078125 853 c 0
 1356.16927083 799.666666667 1387.8359375 733.666666667 1407.5078125 655 c 1
 1530.47588912 657.876709094 1651.08145058 651.649269165 1722.5078125 597 c 0
 1827.40572406 517.153623597 1868.51037409 369.821683802 1756.5078125 288 c 1
 1801.50260417 258.666666667 1823 216.5 1821 161.5 c 0
 1816.75684736 44.8133023142 1745.84342581 4.40098192046 1648.5 -23.5 c 0
 1587.27945478 -41.0472900319 1386.02122582 -39.3636470998 1422.0078125 70.5 c 0
 1436.65804447 110.819637633 1475.98565838 128.190238661 1533 106.5 c 0
 1593.09949621 83.6360612228 1682.48086449 99.5066292414 1684.5078125 160 c 0
EndSplineSet
LCarets2: 1 0
EndChar

StartChar: k1u2
Encoding: 184 -1 126
Width: 1933
GlyphClass: 3
LigCaretCntFixed: 1
Flags: HW
LayerCount: 2
Fore
SplineSet
544 512 m 1
 412.88979576 508.105637498 283.861417497 446.220957492 249 347 c 0
 249 346 249 346 249 345 c 0
 223.466844333 276.911584889 265.206654396 211.972713149 301 181.5 c 0
 325.666666667 160.5 352.333333333 149 381 147 c 0
 382.333333333 147 384 146.666666667 386 146 c 0
 460.438685889 134.913387208 523.117068574 185.861780957 552 234 c 0
 570 264 577.666666667 294.666666667 575 326 c 1
 575 327 l 1
 555.666666667 386.333333333 546.333333333 448 547 512 c 1
 544 512 l 1
780 240 m 1
 844.140434352 162.115186859 986.244572321 113.648726411 1097 181 c 0
 1097.66666667 181.666666667 1098.33333333 182 1099 182 c 0
 1198.10969279 239.508093347 1267.86284243 367.269350976 1265 519 c 1
 1237.66666667 518.333333333 1149.83333333 518 1001.5 518 c 0
 853.166666667 518 749 517.333333333 689 516 c 1
 687 406 717.333333333 314.333333333 780 241 c 1
 780 240 l 1
1242 659 m 1
 1207.90534224 764.693439047 1106.03813838 881.500433391 974 880 c 1
 973 880 l 2
 933.666666667 879.333333333 895.333333333 868.333333333 858 847 c 0
 790 808.333333333 741.666666667 744.666666667 713 656 c 1
 830.333333333 658 931.333333333 659 1016 659 c 2
 1242 659 l 1
1777 -389 m 2
 1803.69116673 -389 1833 -428.822472301 1833 -459 c 0
 1833 -497.303302632 1801.65714264 -528.425419185 1764 -529 c 2
 912 -542 l 1
 882 -542 l 2
 862 -542 791.333333333 -543.333333333 670 -546 c 0
 548.666666667 -548.666666667 453.5 -548.166666667 384.5 -544.5 c 0
 271.509296306 -538.495663089 174.776406052 -479.936775191 129.5 -393.5 c 0
 66.1354326236 -272.531280463 132.754528093 -155.9101568 230 -96 c 0
 288 -60.6666666667 361.453761522 -41.9130240856 450.361284567 -39.7390722569 c 0
 539.268807612 -37.5651204282 728.148379423 -35.3187630092 1017 -33 c 2
 1453 -29.5 l 2
 1609 -28.5 1688.66666667 18.6666666667 1692 112 c 0
 1694.62486169 183.863381743 1651.95819502 222.863381743 1564 229 c 0
 1497.33333333 229.666666667 1463.66666667 254 1463 302 c 0
 1462.33333333 346 1495.16666667 369 1561.5 371 c 0
 1627.83333333 373 1661.16666667 400.333333333 1661.5 453 c 0
 1661.83218396 501.498858394 1625.33218396 525.498858394 1552 525 c 2
 1405 524 l 1
 1411.01973947 308.794314034 1311.57647014 142.556798194 1168 59 c 0
 978.295023887 -51.4020762624 799.455553831 23.5444461687 671 152 c 0
 670.333333333 152.666666667 670 153.333333333 670 154 c 1
 612.882852914 60.4250994545 508.594978433 -7.79947141397 358.5 8 c 0
 288.833333333 15.3333333333 229.666666667 45.6666666667 181 99 c 0
 101 187 79.6666666667 285.333333333 117 394 c 0
 145.666666667 476.666666667 202.666666667 540.333333333 288 585 c 0
 373.333333333 629.666666667 460.666666667 652 550 652 c 0
 560 652 565 652.333333333 565 653 c 0
 604.333333333 801.666666667 679.666666667 907.666666667 791 971 c 0
 942.376354216 1056.48311767 1124.53103892 1024.31533683 1239.5 916.5 c 0
 1314.5 846.166666667 1363 762.666666667 1385 666 c 1
 1591 674 1721.33333333 623 1776 513 c 0
 1814.6747753 435.650449403 1776.09459835 332.586715151 1734 294 c 1
 1786.38115849 243.714087846 1836.33279176 153.100022875 1815 53 c 0
 1799 -23.6666666667 1760.66666667 -80.6666666667 1700 -118 c 0
 1639.33333333 -155.333333333 1575.33333333 -172.333333333 1508 -169 c 0
 1193.7059755 -171.910129856 823.313290625 -174.201769671 430 -180 c 0
 350.045968834 -181.095260701 252.700889945 -221.770132488 248 -291.5 c 0
 243.464332116 -358.779073611 325.40770101 -402.746923367 393 -405 c 0
 586.333333333 -412.333333333 686.5 -412.5 693.5 -405.5 c 0
 693.630469371 -405.369530629 765.797136038 -404.202863962 910 -402 c 2
 1761 -389 l 1
 1777 -389 l 2
EndSplineSet
LCarets2: 1 0
EndChar

StartChar: k1r1
Encoding: 185 -1 127
Width: 1920
GlyphClass: 3
LigCaretCntFixed: 1
Flags: HW
LayerCount: 2
Fore
SplineSet
976 -230 m 0
 974 -230 971.523195901 -229.965932533 969.312628933 -229.965932533 c 0
 868.1802772 -229.965932533 776.743943926 -253.457571409 776.743943926 -329.527960348 c 0
 776.743943926 -407.387667717 865.719064481 -424 977 -424 c 0
 1088.51983539 -424 1175.32142857 -409.261773218 1175.32142857 -333.081659648 c 0
 1175.32142857 -255.074513222 1080.483874 -231.055392667 976 -230 c 0
240.84 280.288 m 0
 240.84 191.262301739 317.085352176 123.555116505 404.091909178 123.555116505 c 0
 507.146697429 123.555116505 586.436641348 197.171573093 586.436641348 297.08195821 c 0
 586.436641348 301.341404057 586 306 586 310 c 2
 586 312 l 1
 568 369 558.925 428.7075 558.925 491.979875 c 0
 558.925 495.31 559 499 559 502 c 1
 399.47325292 490.035493969 240.84 430.818226476 240.84 280.288 c 0
1293 506 m 1
 699 506 l 1
 699 503 698.898937305 499.040587896 698.898937305 495.581828891 c 0
 698.898937305 306.670905179 805.597274969 123.15030355 994.950459036 123.15030355 c 0
 1185.60504285 123.15030355 1293.09274527 308.176674409 1293.09274527 496.186489329 c 0
 1293.09274527 499.446708926 1293 503 1293 506 c 1
1271 646 m 1
 1232 768 1129.8429148 878.026619089 997.564574959 878.026619089 c 0
 996.378767881 878.026619089 995 878 994 878 c 0
 862 876 762 769 722 646 c 1
 1271 646 l 1
681 136 m 1
 626.538712317 46.0755482438 537.007857828 -19.4179448264 403.930354998 -19.4179448264 c 0
 243.851761353 -19.4179448264 98.9811339657 114.667227272 98.9811339657 274.37638623 c 0
 98.9811339657 525.495348443 332.041393937 631.313360189 576 643 c 1
 622.989208451 840.093624334 768.686427773 1019.5272142 996.95199812 1019.5272142 c 0
 1224.29323555 1019.5272142 1371.94103543 840.259444107 1417 642 c 1
 1636.1695136 619.206370586 1819.8369165 427.4685715 1819.8369165 186.839853236 c 0
 1819.8369165 -230.342159712 1432.93998017 -564.149875234 1004.12705771 -564.149875234 c 0
 999.4032419 -564.149875234 995 -564 990 -564 c 0
 785.366725206 -559.646100536 635.692548646 -500.460606321 635.692548646 -328.389812499 c 0
 635.692548646 -160.715003734 797.21459151 -88.984043757 972.134205294 -88.984043757 c 0
 973.750593424 -88.984043757 975 -89 977 -89 c 0
 1163.45399767 -90.2186535796 1316.06808819 -164.589824815 1316.06808819 -338.426954423 c 0
 1316.06808819 -340.282454213 1316 -342 1316 -344 c 1
 1488.24198501 -256.853757584 1678.64834877 -70.912765908 1678.64834877 176.29251977 c 0
 1678.64834877 337.186940605 1578 473 1433 499 c 1
 1433 498 1433.00714902 496.941168941 1433.00714902 495.913225209 c 0
 1433.00714902 228.865087626 1265.95967145 -16.5219448305 994.97286827 -16.5219448305 c 0
 873.108042879 -16.5219448305 759 43 681 136 c 1
EndSplineSet
LCarets2: 1 0
EndChar

StartChar: k1k1
Encoding: 187 -1 129
Width: 2528
GlyphClass: 3
LigCaretCntFixed: 1
Flags: HW
LayerCount: 2
Fore
SplineSet
1890 1023 m 0
 2165 1023 2429 806 2429 486 c 0
 2429 259 2283 50 2066 -25 c 0
 2060 -27 2049 -29 2042 -29 c 0
 2003 -29 1972 2 1972 41 c 0
 1972 102 2044 114 2086 137 c 0
 2211 204 2287 349 2287 491 c 0
 2287 726 2086 882 1885 882 c 0
 1690 882 1558 754 1489 608 c 1
 1697 590 1929 493 1929 258 c 0
 1929 110 1813 -26 1641 -26 c 0
 1504 -26 1398 70 1346 169 c 1
 1280 74 1159 -20 1003 -20 c 0
 881 -20 762 38 684 133 c 1
 627 40 524 -22 411 -22 c 0
 233 -22 100 111 100 270 c 0
 100 514 350 604 572 611 c 1
 611 814 766 1019 1003 1019 c 0
 1191 1019 1334 881 1396 736 c 1
 1492 893 1655 1023 1890 1023 c 0
1289 613 m 1
 1260 742 1152 879 1003 879 c 0
 849 879 750 743 718 612 c 1
 1289 613 l 1
705 472 m 1
 713 289 825 121 1007 121 c 0
 1196 121 1293 313 1301 472 c 1
 705 472 l 1
1639 114 m 0
 1726 114 1787 185 1787 264 c 0
 1787 416 1590 463 1445 471 c 1
 1440 444 1438 415 1438 388 c 0
 1438 255 1506 114 1639 114 c 0
242 275 m 0
 242 191 316 118 408 118 c 0
 500 118 591 205 591 297 c 0
 591 301 590 307 590 311 c 0
 573 363 564 416 562 470 c 1
 423 463 242 417 242 275 c 0
EndSplineSet
LCarets2: 2 0 0
EndChar

StartChar: k1k1u1
Encoding: 188 -1 130
Width: 2551
GlyphClass: 3
LigCaretCntFixed: 1
Flags: HW
LayerCount: 2
Fore
SplineSet
1616 117 m 0
 1709 117 1783 180 1783 267 c 0
 1783 426 1617 488 1455 503 c 1
 1439 455 1431 409 1431 366 c 0
 1431 250 1501 117 1616 117 c 0
589 298 m 2
 589 313 l 1
 571 371 562 432 562 497 c 0
 562 499 562 502 562 504 c 1
 401 492 241 433 241 282 c 0
 241 192 317 124 405 124 c 0
 509 124 589 198 589 298 c 2
1299 508 m 1
 1001 508 1001 508 702 508 c 1
 702 504 702 501 702 497 c 0
 702 308 810 123 998 123 c 0
 1190 123 1299 310 1299 501 c 0
 1299 503 1299 506 1299 508 c 1
725 648 m 1
 1001 648 1001 648 1276 648 c 1
 1237 771 1147 882 1000 882 c 0
 854 882 763 769 725 648 c 1
2159 99 m 0
 2241 99 2313 155 2313 239 c 0
 2313 339 2228 373 2125 373 c 2
 2083 373 l 2
 2046 373 2013 404 2013 441 c 0
 2013 477 2040 508 2073 512 c 1
 2099 516 l 2
 2102 517 2106 517 2109 517 c 0
 2118 517 2125 517 2132 517 c 0
 2215 517 2279 588 2279 663 c 0
 2279 811 2110 885 1958 885 c 0
 1754 885 1611 775 1520 636 c 1
 1729 605 1924 478 1924 276 c 0
 1924 106 1802 -22 1628 -22 c 0
 1487 -22 1385 72 1337 165 c 1
 1269 70 1151 -16 1000 -16 c 0
 856 -16 750 58 684 136 c 1
 630 45 538 -19 405 -19 c 0
 244 -19 100 115 100 275 c 0
 100 527 333 633 579 645 c 1
 628 851 790 1021 999 1021 c 0
 1211 1021 1344 876 1402 712 c 1
 1511 880 1705 1024 1954 1024 c 0
 2194 1024 2420 899 2420 654 c 0
 2420 582 2391 518 2334 461 c 1
 2408 411 2451 345 2451 241 c 0
 2451 75 2320 -43 2161 -43 c 0
 2111 -43 2063 -29 2015 -1 c 0
 1992 12 1980 31 1980 54 c 0
 1980 94 2008 130 2045 130 c 0
 2061 130 2078 125 2095 115 c 0
 2114 104 2136 99 2159 99 c 0
EndSplineSet
LCarets2: 1 0
EndChar

StartChar: k1k1u2
Encoding: 189 -1 131
Width: 2523
GlyphClass: 3
LigCaretCntFixed: 1
Flags: HW
LayerCount: 2
Fore
SplineSet
1425 510 m 1
 1378.42498602 362.512455742 1410.28009468 238.15013066 1493 174 c 0
 1554.33333333 127.333333333 1615.33333333 124.666666667 1676 166 c 0
 1710.66666667 189.333333333 1731.66666667 225.5 1739 274.5 c 0
 1746.33333333 323.5 1724.33333333 372.333333333 1673 421 c 0
 1621.66666667 469.666666667 1539 499.333333333 1425 510 c 1
553 511 m 1
 437.666666667 502.333333333 353.333333333 471.333333333 300 418 c 0
 244.826593568 362.826593568 223.059027801 279.184713054 277 207.5 c 0
 302.333333333 173.833333333 332 154 366 148 c 0
 452.666666667 132.666666667 515.666666667 159 555 227 c 0
 573.666666667 259 581.666666667 292 579 326 c 1
 579 327 l 1
 561 385 552.333333333 446.333333333 553 511 c 1
1269 515 m 1
 981 515 981 515 693 515 c 1
 688.953438768 323.462768374 801.591119615 152.465987801 971 146 c 0
 1072.4369467 142.878863179 1150.41422864 201.776453157 1197 265 c 0
 1246.33333333 333 1270.33333333 416.333333333 1269 515 c 1
1090 851 m 0
 1016 889 942.5 888.5 869.5 849.5 c 0
 796.5 810.5 745.333333333 745.666666667 716 655 c 1
 1226 656 l 2
 1236 656 1236 656 1246 656 c 1
 1216 748 1164 813 1090 851 c 0
2415 -481 m 0
 2415 -511.222539198 2385.7360031 -551 2359 -551 c 2
 2344 -551 l 1
 450 -547 l 2
 285.969475001 -547 204.588550209 -520.977734612 139.5 -435.5 c 0
 62.9508324304 -334.971575119 106.057792757 -213.215373504 196 -146.5 c 0
 256.666666667 -101.5 349.333333333 -80 474 -82 c 1
 604 -83 l 1
 1855 -74 l 2
 1974.33333333 -73.3333333333 2058 -62 2106 -40 c 0
 2196.66666667 1.33333333333 2252.5 59 2273.5 133 c 0
 2305.12606289 244.444221629 2252.35274903 331.867885626 2165.5 361.5 c 0
 2137.16666667 371.166666667 2091 379 2027 385 c 0
 1995.84237382 387.396740476 1964 417.027168827 1964 449 c 0
 1964 492.333333333 1983.66666667 517 2023 523 c 2
 2049 527 l 2
 2052.33333333 527.666666667 2055.16666667 528 2057.5 528 c 0
 2153.69181932 528 2229.2001378 593.598346359 2221.5 686 c 0
 2212.96854686 788.37743763 2125.86539572 848.046288705 2032.5 876 c 0
 1976.83333333 892.666666667 1917.66666667 897 1855 889 c 0
 1700.33333333 869 1577.66666667 787.333333333 1487 644 c 1
 1609 625.333333333 1702.33333333 585.666666667 1767 525 c 0
 1868.33333333 429 1902 322.666666667 1868 206 c 0
 1836.43141168 97.7648400501 1743.51205605 6.89044352783 1608 0 c 0
 1462.00247179 -6.6971343216 1358.46333229 87.2800019775 1309 181 c 1
 1239.80540356 86.8499753419 1120.85601883 1.4143194351 968 6 c 0
 852 10 754 59 674 153 c 1
 632 83.6666666667 572 38 494 16 c 0
 349.030050065 -26.0202753434 231.409618267 36.3638821444 164.5 124.5 c 0
 116.166666667 188.166666667 97.3333333333 256.666666667 108 330 c 0
 118.666666667 403.333333333 147.666666667 463.666666667 195 511 c 0
 281.666666667 597 406.666666667 644.333333333 570 653 c 1
 588.666666667 732.333333333 619.333333333 798.666666667 662 852 c 0
 749.333333333 961.333333333 854 1016.66666667 976 1018 c 0
 1037.33333333 1018.66666667 1095.33333333 1005 1150 977 c 0
 1253.33333333 924.333333333 1327 839.666666667 1371 723 c 1
 1433.66666667 821.666666667 1511.66666667 897.333333333 1605 950 c 0
 1760.33333333 1038 1922 1056.33333333 2090 1005 c 0
 2156 985 2216 948.166666667 2270 894.5 c 0
 2324 840.833333333 2354.33333333 771.833333333 2361 687.5 c 0
 2367.66666667 603.166666667 2337.33333333 529.333333333 2270 466 c 1
 2383.09904627 400.02555634 2458.13772508 269.212515578 2408.5 97 c 0
 2363.94651106 -57.5733289781 2228.99882249 -162.981131722 2067 -196 c 0
 2011 -207.333333333 1940.66666667 -213.333333333 1856 -214 c 2
 605 -223 l 1
 476 -223 l 2
 351.333333333 -223.666666667 275.666666667 -246 249 -290 c 0
 216.79421513 -343.139545036 273.440627781 -376.508220397 306.5 -391 c 0
 330.833333333 -401.666666667 379 -407 451 -407 c 2
 2344 -411 l 2
 2383.18061622 -411 2415 -442.116577151 2415 -481 c 0
EndSplineSet
LCarets2: 1 3
EndChar

StartChar: k1k1r1
Encoding: 190 -1 132
Width: 2445
GlyphClass: 3
LigCaretCntFixed: 1
Flags: HW
LayerCount: 2
Fore
SplineSet
1642.89257812 -321 m 0
 1616.22591145 -276.333333333 1553.22591145 -253.5 1453.89257812 -252.5 c 0
 1354.55924479 -251.5 1291.22591145 -273.333333333 1263.89257812 -318 c 0
 1246.55924479 -346.666666667 1249.22591145 -373.333333333 1271.89257812 -398 c 0
 1305.89257812 -436 1384.55924479 -452 1507.89257812 -446 c 0
 1567.22591145 -442.666666667 1608.89257812 -428.333333333 1632.89257812 -403 c 0
 1656.89257812 -377.666666667 1660.22591145 -350.333333333 1642.89257812 -321 c 0
1414.89257812 497 m 1
 1375.96812075 345.750679941 1408.48552678 223.801314803 1489.89257812 161.5 c 0
 1557.84623803 109.494648029 1648.90942167 116.873788632 1700.89257812 179 c 0
 1761.25653498 251.142289908 1733.52175142 344.715993631 1674.89257812 401 c 0
 1617.55924479 454.333333333 1530.89257812 486.333333333 1414.89257812 497 c 1
548.892578125 498 m 1
 432.892578125 489.333333333 348.225911458 458.666666667 294.892578125 406 c 0
 239.949866759 351.057288634 217.797362224 266.17791566 271.892578125 195 c 0
 369.768386098 64.9858670226 582.74526437 144.798961337 573.892578125 313 c 1
 575.892578125 313 l 1
 557.892578125 371 548.892578125 432.666666667 548.892578125 498 c 1
694.892578125 502 m 2
 691.892578125 502 691.892578125 502 688.892578125 502 c 0
 687.554693806 309.344658001 797.590563283 138.82800069 965.892578125 131 c 0
 1066.87832604 127.844195377 1144.72485725 187.244575946 1190.89257812 251 c 0
 1239.55924479 319 1263.89257812 403 1263.89257812 503 c 1
 1220.89257812 503 l 1
 694.892578125 502 l 2
1244.89257812 643 m 1
 1209.46241016 769.536314159 1106.63131886 883.132033698 973.892578125 881.5 c 0
 842.963711618 879.890218854 742.385420251 767.898873761 707.892578125 642 c 1
 1220.89257812 643 l 1
 1244.89257812 643 l 1
1474.89257812 879 m 0
 1645.60866845 1040.847722 1889.36567551 1074.11061366 2089.39257812 934.5 c 0
 2171.05924479 877.5 2234.22591145 801.666666667 2278.89257812 707 c 0
 2354.22591145 547 2366.22591145 361.333333333 2314.89257812 150 c 0
 2277.55924479 -4.66666666667 2212.05924479 -143 2118.39257812 -265 c 0
 2024.72591145 -387 1907.55924479 -476 1766.89257812 -532 c 0
 1668.89257812 -571.333333333 1571.05924479 -590 1473.39257812 -588 c 0
 1375.72591145 -586 1306.55924479 -576 1265.89257812 -558 c 0
 1177.22591145 -520 1126.89257812 -461.333333333 1114.89257812 -382 c 0
 1098.99900414 -269.155624771 1172.78974456 -193.87483581 1248.89257812 -151 c 0
 1340.43225457 -99.4283512977 1571.59298318 -103.281665821 1659.89257812 -155 c 0
 1751.22591145 -208.333333333 1795.55924479 -278 1792.89257812 -364 c 1
 1980.78682515 -258.309486048 2118.88344733 -65.6092561185 2178.89257812 183 c 0
 2199.55924479 259 2208.22591145 339 2204.89257812 423 c 0
 2197.55924479 602.333333333 2132.22591145 734.666666667 2008.89257812 820 c 0
 1905.55924479 892 1796.89257812 902.666666667 1682.89257812 852 c 0
 1591.55924479 810.666666667 1519.55924479 737.666666667 1466.89257812 633 c 1
 1596.22591145 615.666666667 1693.55924479 576 1758.89257812 514 c 0
 1861.55924479 416.666666667 1896.22591145 309.666666667 1862.89257812 193 c 0
 1831.51673356 84.5292230772 1739.22484908 -8.42225763454 1601.89257812 -13 c 0
 1466.58263883 -19.264349041 1357.19652558 71.8977837536 1304.89257812 171 c 1
 1304.89257812 170 l 1
 1237.92739595 74.6597406386 1115.31976415 -13.5728155809 962.892578125 -9 c 0
 846.892578125 -5 748.892578125 44.6666666667 668.892578125 140 c 1
 626.892578125 70.6666666667 566.892578125 25 488.892578125 3 c 0
 343.692448167 -39.0869941907 226.280132077 23.4316526975 159.392578125 112 c 0
 64.6945137573 237.393299025 94.4873386624 402.594760537 189.892578125 498 c 0
 275.892578125 584 400.225911458 631.333333333 562.892578125 640 c 1
 580.225911458 722 609.559244792 790.666666667 650.892578125 846 c 0
 737.559244792 961.333333333 844.225911458 1019.66666667 970.892578125 1021 c 0
 1034.22591145 1021.66666667 1093.89257812 1007.33333333 1149.89257812 978 c 0
 1247.89257812 926 1318.55924479 844.666666667 1361.89257812 734 c 1
 1393.89257812 789.333333333 1431.55924479 837.666666667 1474.89257812 879 c 0
EndSplineSet
LCarets2: 1 0
EndChar

StartChar: k1k1r3
Encoding: 191 -1 133
Width: 2826
GlyphClass: 3
LigCaretCntFixed: 1
Flags: HW
LayerCount: 2
Fore
SplineSet
1782 512 m 1
 1774 475 1771 439 1771 405 c 0
 1771 278 1831 122 1960 122 c 0
 2037 122 2119 207 2119 287 c 0
 2119 441 1940 498 1782 512 c 1
610 299 m 0
 610 213 688 125 768 125 c 0
 864 125 944 211 944 311 c 0
 944 316 943 322 943 329 c 0
 926 385 917 444 917 506 c 0
 917 508 917 510 917 512 c 1
 763 500 610 444 610 299 c 0
1057 507 m 0
 1057 318 1170 128 1344 128 c 0
 1529 128 1634 325 1634 508 c 0
 1634 511 1634 514 1634 517 c 1
 1065 517 l 2
 1064 517 1058 516 1057 516 c 1
 1057 513 1057 510 1057 507 c 0
1345 881 m 0
 1205 881 1117 772 1080 657 c 1
 1257 657 1434 657 1611 657 c 1
 1573 773 1486 881 1345 881 c 0
1725 751 m 1
 1812 896 1959 1018 2180 1018 c 0
 2519 1018 2726 703 2726 383 c 0
 2726 -162 2304 -375 1751 -387 c 2
 1308 -397 l 2
 1264 -398 1223 -398 1185 -398 c 0
 599 -398 100 -162 100 406 c 0
 100 685 265 903 457 1009 c 0
 468 1015 481 1019 497 1019 c 0
 534 1019 562 983 562 942 c 0
 562 918 550 900 525 887 c 0
 371 802 240 628 240 404 c 0
 240 -80 683 -278 1184 -278 c 0
 1221 -278 1262 -278 1305 -277 c 2
 1748 -267 l 2
 2214 -257 2589 -80 2589 381 c 0
 2589 644 2429 879 2174 879 c 0
 2007 879 1889 767 1829 648 c 1
 2048 620 2260 498 2260 292 c 0
 2260 122 2126 -19 1949 -19 c 0
 1826 -19 1724 78 1678 170 c 1
 1613 78 1493 -12 1345 -12 c 0
 1220 -12 1120 38 1038 134 c 1
 985 47 897 -16 768 -16 c 0
 610 -16 469 136 469 293 c 0
 469 539 695 642 934 654 c 1
 979 846 1123 1022 1345 1022 c 0
 1533 1022 1663 893 1725 751 c 1
EndSplineSet
LCarets2: 1 0
EndChar

StartChar: k1th1
Encoding: 197 -1 139
Width: 3311
GlyphClass: 3
LigCaretCntFixed: 1
Flags: HW
LayerCount: 2
Fore
SplineSet
562 500 m 1
 441.333333333 490.666666667 353.666666667 459 299 405 c 0
 241.421976133 348.64704047 217.274746467 260.951895262 274 186.5 c 0
 300.666666667 151.5 331.666666667 130.666666667 367 124 c 0
 493.087855421 102.348550079 596.294206809 190.116369066 588 309 c 0
 588 310 588 310 588 311 c 0
 570 370.333333333 561.333333333 433.333333333 562 500 c 1
711 505 m 2
 707 505 707 505 702 505 c 1
 698.838472369 350.085146057 763.255409562 221.286246928 866 160 c 0
 948.666666667 110 1033 107.666666667 1119 153 c 0
 1230.70750169 211.600656623 1302.16032866 346.78726454 1298 508 c 1
 1252 508 l 1
 711 505 l 2
2397 813 m 1
 2283.20661798 744.034313925 2192.89347469 617.999044349 2171 471 c 0
 2149.5689309 327.105678933 2201.17640256 203.830773943 2294 147 c 0
 2364 104.333333333 2433.66666667 105 2503 149 c 0
 2593.93997447 207.732066842 2643.74437517 330.436656579 2620 476 c 0
 2597.4309204 619.474863198 2515.73235068 743.157440777 2397 813 c 1
1275 648 m 1
 1235.84359143 770.576583354 1130.8438154 880.120046529 998 878.5 c 0
 865.342057519 876.882220214 763.281798277 767.96910765 724 645 c 1
 1251 648 l 2
 1263 648 1263 648 1275 648 c 1
2015 54 m 0
 2015 12.5850672922 1988.35398943 -24 1951 -24 c 0
 1935.66666667 -24 1923.33333333 -21.6666666667 1914 -17 c 0
 1762.24438507 55.0839170901 1629.24690121 217.282315977 1610 418 c 1
 1559.33333333 456.666666667 1502 482.333333333 1438 495 c 1
 1438 279.693530606 1333.53169725 107.839281344 1182 28 c 0
 1066.32634476 -32.9463344839 913.643427779 -32.4672313103 807.5 31.5 c 0
 757.166666667 61.8333333333 716 96 684 134 c 1
 641.333333333 62 579.666666667 14.6666666667 499 -8 c 0
 349.747422629 -50.0429795413 229.691023204 12.030807108 161 103 c 0
 111.666666667 168.333333333 92.5 238.333333333 103.5 313 c 0
 114.5 387.666666667 144.333333333 449.333333333 193 498 c 0
 281.666666667 586 410.333333333 634 579 642 c 1
 598.333333333 724 629.666666667 792.666666667 673 848 c 0
 762.333333333 960 870.166666667 1016.83333333 996.5 1018.5 c 0
 1122.83333333 1020.16666667 1232.33333333 964.333333333 1325 851 c 0
 1370.33333333 795.666666667 1402.66666667 725.333333333 1422 640 c 1
 1494 630 1560 609.333333333 1620 578 c 1
 1648 711.333333333 1712.5 816.666666667 1813.5 894 c 0
 1976.22542486 1019.17340374 2184.23329391 1059.70999083 2396 968 c 1
 2781.13384237 1137.19174578 3186.94786703 880.288511224 3211 516.5 c 0
 3228.18591501 256.563035405 3061.97756793 49.2550693775 2868 -15 c 0
 2860 -17.6666666667 2849 -19 2835 -19 c 0
 2805.90948155 -19 2773 16.1148125535 2773 46 c 0
 2773 81.3333333333 2792 106 2830 120 c 0
 2966.75678564 169.729740231 3083.3603463 319.222796343 3071.5 505.5 c 0
 3059.44373283 694.854313769 2900.4400175 840.87496173 2725 874 c 0
 2669 884.666666667 2611.33333333 884.333333333 2552 873 c 1
 2665.33333333 774.333333333 2733.16666667 655.333333333 2755.5 516 c 0
 2791.77616098 289.680070277 2713.55263501 117.964804821 2574 29 c 0
 2468.86376343 -38.0243508103 2331.97313204 -40.4835806905 2224 25.5 c 0
 2087.63364003 108.834997758 2001.20056358 281.562332571 2033 491 c 0
 2055.66666667 643 2124.66666667 769.666666667 2240 871 c 1
 2011.08689962 910.291054544 1833.42828327 768.60322643 1774 607 c 0
 1749.41566946 540.811417787 1750 511.700093649 1750 453 c 0
 1750 398.333333333 1762 347.666666667 1786 301 c 0
 1832.66666667 210.333333333 1895.33333333 146.666666667 1974 110 c 0
 2001.33333333 97.3333333333 2015 78.6666666667 2015 54 c 0
EndSplineSet
LCarets2: 1 3
EndChar

StartChar: k1th1u1
Encoding: 198 -1 140
Width: 3268
GlyphClass: 3
LigCaretCntFixed: 1
Flags: HW
LayerCount: 2
Fore
SplineSet
2334 795 m 1
 2225.17808416 730.246463302 2142.94980478 620.203848197 2118 473 c 0
 2096.42701417 334.316519667 2145.64602007 214.588862874 2236 160 c 0
 2352.59279342 89.5825703132 2468.25288814 163.529909833 2515 243 c 0
 2554.33333333 309 2566.33333333 387.333333333 2551 478 c 0
 2527 619.333333333 2454.66666667 725 2334 795 c 1
1579.88828277 579.462090521 m 1
 1640.13666419 853.744663879 1968.03242623 1102.37290594 2333 952 c 1
 2445.66666667 1000.66666667 2567.33333333 1012.16666667 2698 986.5 c 0
 2828.66666667 960.833333333 2939.5 891.5 3030.5 778.5 c 0
 3121.5 665.5 3167 536.333333333 3167 391 c 0
 3167 178.885827768 3060.80434021 12.1205833749 2929.5 -81.5 c 0
 2784.68435909 -184.754201366 2655.80207777 -207.141792997 2420 -210 c 1
 2025 -217 l 2
 1989 -217 1943.66666667 -217.666666667 1889 -219 c 0
 1792.33333333 -223.666666667 1733 -246.666666667 1711 -288 c 0
 1677.30333196 -350.338835882 1765.13281058 -383.854851535 1814 -395 c 0
 1852 -403.666666667 1920.33333333 -406.333333333 2019 -403 c 1
 3097 -400 l 1
 3112 -400 l 2
 3137.89558394 -400 3168 -440.393450545 3168 -470 c 0
 3168 -508.354038676 3136.35293841 -540 3098 -540 c 2
 2020 -543 l 2
 1984.964844 -543 1920.41283892 -543.902400828 1878 -543 c 0
 1730 -537 1632.66666667 -489 1586 -399 c 0
 1556 -340.333333333 1556.66666667 -281.333333333 1588 -222 c 0
 1644.02108775 -115.481030337 1776.79348056 -77 1968 -77 c 2
 2023 -77 l 1
 2417 -71 l 2
 2618.75333804 -68.3453508152 2727.5378365 -52.677905169 2846.5 31.5 c 0
 2941.86545412 98.9808184143 3027 226.603025992 3027 376 c 0
 3027 624.074940396 2864.56063446 811.954725962 2654 852 c 0
 2601.33333333 862 2547.33333333 862.666666667 2492 854 c 1
 2599.33333333 760.666666667 2664.33333333 647.333333333 2687 514 c 0
 2709.66666667 380.666666667 2692.66666667 266.5 2636 171.5 c 0
 2579.33333333 76.5 2505 19.5 2413 0.5 c 0
 2241.3174655 -34.9561756039 2106.43940671 55.6589157171 2038 166 c 0
 1980 260.666666667 1961.33333333 374.5 1982 507.5 c 0
 2002.66666667 640.5 2067 755 2175 851 c 1
 2012.13415155 874.64181671 1875.87304092 799.378607404 1804.5 718 c 0
 1751.21237843 657.242151104 1708.62447112 569.074817922 1707.7302071 462.860754477 c 0
 1707.91006916 460.776100684 1708.0000002 458.655849191 1708 456.5 c 0
 1708 454.678428841 1707.9332267 452.871222282 1707.80202096 451.081003692 c 0
 1711.03909344 293.672470108 1809.37477272 178.018785274 1924 124 c 0
 1952 112 1966 89 1966 55 c 0
 1966 24.2643919673 1932.83019768 -10 1902.5 -10 c 0
 1887.5 -10 1875.33333333 -7.66666666667 1866 -3 c 0
 1711.28912528 67.3231248719 1584.9825967 220.719262546 1569.69558933 420.384463838 c 1
 1521.83288341 456.815162709 1466.93435363 481.687008097 1405 495 c 1
 1403.88093241 285.734360157 1301.8657628 119.160846571 1154.5 41 c 0
 974.58016729 -54.4270935919 785.230886181 6.42870873744 669 143 c 1
 627 73.6666666667 567.333333333 28 490 6 c 0
 344.775203845 -36.0941438131 226.526202561 26.2103124887 159.5 114.5 c 0
 111.166666667 178.166666667 92.3333333333 246.666666667 103 320 c 0
 113.666666667 393.333333333 142.666666667 453.666666667 190 501 c 0
 276.666666667 586.333333333 401.666666667 633.333333333 565 642 c 1
 599.38674605 789.371768787 685.043194692 901.854168602 798 962 c 0
 914.666666667 1024 1031.66666667 1025.33333333 1149 966 c 0
 1265.70336312 906.909689557 1354.86736302 790.158820897 1389 639 c 1
 1458.868186 629.307303675 1522.49761359 609.461333849 1579.88828277 579.462090521 c 1
549 500 m 1
 433.666666667 490.666666667 349.333333333 460 296 408 c 0
 240.821839456 354.048020802 218.14737478 269.067304569 272 197.5 c 0
 297.333333333 163.833333333 327 144 361 138 c 0
 482.332135438 116.287933658 582.26795373 201.626640071 574 316 c 1
 574 317 l 1
 556.666666667 374.333333333 548.333333333 435.333333333 549 500 c 1
696 505 m 1
 689 505 l 1
 684.939732274 312.813994298 796.320701797 142.476309092 966 136 c 0
 1067.47685237 132.877635312 1146.42188956 191.786850119 1193 255 c 0
 1243 323.666666667 1267 407.666666667 1265 507 c 1
 1222 507 l 1
 696 505 l 1
711 645 m 1
 1221 647 l 2
 1231 647 1231 647 1241 647 c 1
 1211 738.333333333 1159 803 1085 841 c 0
 1011 879 937.5 878.5 864.5 839.5 c 0
 791.5 800.5 740.333333333 735.666666667 711 645 c 1
EndSplineSet
LCarets2: 1 0
EndChar

StartChar: k1th1u2
Encoding: 199 -1 141
Width: 3449
GlyphClass: 3
LigCaretCntFixed: 1
Flags: HW
LayerCount: 2
Fore
SplineSet
549 488 m 1
 433.666666667 478.666666667 349.333333333 448 296 396 c 0
 240.821839456 342.048020802 218.14737478 257.067304569 272 185.5 c 0
 297.333333333 151.833333333 327 132 361 126 c 0
 447.666666667 110.666666667 510.666666667 137 550 205 c 0
 568.666666667 237 576.666666667 270 574 304 c 1
 574 305 l 1
 556.666666667 362.333333333 548.333333333 423.333333333 549 488 c 1
696 493 m 1
 689 493 l 1
 684.939732274 300.813994298 796.320701797 130.476309092 966 124 c 0
 1067.47685237 120.877635312 1146.42188956 179.786850119 1193 243 c 0
 1243 311.666666667 1267 395.666666667 1265 495 c 1
 1248.33333333 495 1234 495.333333333 1222 496 c 2
 696 493 l 1
2500 769 m 1
 2424 726.333333333 2367 674.833333333 2329 614.5 c 0
 2291 554.166666667 2269.33333333 499 2264 449 c 0
 2254 351 2275.83333333 270.333333333 2329.5 207 c 0
 2411.65349855 110.048666302 2550.42325064 100.831258368 2638.5 188 c 0
 2726.22557937 274.821191955 2745.36803752 437.624278487 2674 569.5 c 0
 2628 654.5 2570 721 2500 769 c 1
1241 636 m 1
 1201.46519285 752.885516781 1102.0373131 858.114396368 974.5 856.5 c 0
 847.949435829 854.898094124 749.39069301 749.917110532 711 633 c 1
 1221 636 l 2
 1231 636 1231 636 1241 636 c 1
3350 -423 m 0
 3350 -461.354038676 3318.35293841 -493 3280 -493 c 2
 3279 -493 l 1
 2027 -496 l 1
 1915 -497 l 1
 1764.33333333 -494.333333333 1665.33333333 -452 1618 -370 c 0
 1571.40358584 -290.988689035 1590.93573384 -205.003774479 1653 -141 c 0
 1709.66666667 -83 1803.33333333 -54.6666666667 1934 -56 c 0
 1965.33333333 -56.6666666667 1982.66666667 -57 1986 -57 c 2
 2515 -60 l 1
 2704 -61 l 1
 2952 -59 3109.33333333 -4 3176 104 c 0
 3248.33370335 221.877146202 3163.49660187 360 3049 360 c 0
 3012.81078136 360 2972 381.743782438 2972 419.5 c 0
 2972 467.248583578 2998.39409606 497.846711533 3035 500 c 0
 3117.58031889 502.428832909 3188.34343344 569.474764566 3184 652 c 0
 3175.06211176 793.729370696 3015.09057101 869.880660688 2849 859.5 c 0
 2769 854.5 2702.33333333 844.666666667 2649 830 c 1
 2782.33333333 709.333333333 2852 566.333333333 2858 401 c 0
 2862.66666667 276.333333333 2821.33333333 171.333333333 2734 86 c 0
 2648.40312762 2.5979192152 2508.27346287 -44.7380222037 2368 12.5 c 0
 2210.30229956 76.8479122502 2103.26619196 249.584676684 2123 449 c 0
 2141.40589002 621.732198694 2240.88885143 755.166638573 2354 840 c 1
 2238.66666667 876 2127.83333333 874.5 2021.5 835.5 c 0
 1856.97816708 775.158136515 1707.07709954 618.492522916 1756 384 c 0
 1775.33333333 291.333333333 1829 218 1917 164 c 0
 1960.33333333 137.333333333 1998 121.666666667 2030 117 c 0
 2086 109 2114 85 2114 45 c 0
 2114 13.5331842016 2084.45242531 -25 2056 -25 c 0
 2012 -25 1961.33333333 -12.3333333333 1904 13 c 0
 1755.05022689 78.1655257376 1645.17980516 210.188042406 1614 377 c 1
 1605.33333333 380.333333333 1597.66666667 385 1591 391 c 0
 1538.33333333 437 1476.33333333 467.666666667 1405 483 c 1
 1403.88093241 273.734360157 1301.8657628 107.160846571 1154.5 29 c 0
 974.58016729 -66.4270935919 785.230886181 -5.57129126256 669 131 c 1
 627 61.6666666667 567.333333333 16 490 -6 c 0
 344.543794507 -48.1612189835 226.504095169 14.2773360519 159.5 103 c 0
 64.8019356323 228.393299025 94.5947605374 393.594760537 190 489 c 0
 276.666666667 574.333333333 401.666666667 621.333333333 565 630 c 1
 583.666666667 710 614.333333333 776.666666667 657 830 c 0
 744.333333333 939.333333333 849.833333333 994.833333333 973.5 996.5 c 0
 1097.16666667 998.166666667 1204 943.333333333 1294 832 c 0
 1338 778 1369.66666667 709.666666667 1389 627 c 1
 1471.66666667 615.666666667 1546 589.666666667 1612 549 c 1
 1638.07360008 705.441600507 1735.09795717 830.246380862 1847 904 c 0
 2038.6787805 1031.41001292 2300.67136767 1035.16293307 2507 928 c 1
 2598.33333333 966.666666667 2703 990 2821 998 c 0
 3021.66666667 1010.66666667 3168.66666667 955.333333333 3262 832 c 0
 3298.66666667 783.333333333 3318.66666667 733.666666667 3322 683 c 0
 3328 579 3297 496.333333333 3229 435 c 1
 3305.10182351 375.578028221 3355.58350162 283.136826099 3341 161 c 0
 3331 71 3285.66666667 -6.33333333333 3205 -71 c 0
 3106.33333333 -149.666666667 2965.66666667 -192.333333333 2783 -199 c 0
 2699.89522831 -201.624361211 2581.03713186 -200 2514 -200 c 2
 1985 -197 l 2
 1895.66666667 -197 1837.5 -201 1810.5 -209 c 0
 1762.85038719 -223.118403796 1694.93653589 -271.074757577 1758 -321 c 0
 1790 -346.333333333 1865.33333333 -358.333333333 1984 -357 c 0
 2004 -357 2018.33333333 -356.666666667 2027 -356 c 2
 3278 -353 l 1
 3294 -353 l 2
 3320.69116673 -353 3350 -392.822472301 3350 -423 c 0
EndSplineSet
LCarets2: 1 0
EndChar

StartChar: k1th1r1
Encoding: 200 -1 142
Width: 3464
GlyphClass: 3
LigCaretCntFixed: 1
Flags: HW
LayerCount: 2
Fore
SplineSet
2687 -367 m 1
 2596.99183094 -304.894363345 2304.08369422 -111.527085851 2186 -231 c 0
 2152.66666667 -264.333333333 2148.83333333 -299.833333333 2174.5 -337.5 c 0
 2200.16666667 -375.166666667 2252.66666667 -399 2332 -409 c 0
 2447.33333333 -424.333333333 2565.66666667 -410.333333333 2687 -367 c 1
549 509 m 1
 433.666666667 499.666666667 349.333333333 469 296 417 c 0
 240.821839456 363.048020802 218.14737478 278.067304569 272 206.5 c 0
 297.333333333 172.833333333 327 153 361 147 c 0
 447.666666667 131.666666667 510.666666667 158 550 226 c 0
 568.666666667 258 576.666666667 291 574 325 c 1
 574 326 l 1
 556.666666667 383.333333333 548.333333333 444.333333333 549 509 c 1
696 514 m 1
 689 514 l 1
 684.939732274 321.813994298 796.320701797 151.476309092 966 145 c 0
 1067.47685237 141.877635312 1146.42188956 200.786850119 1193 264 c 0
 1243 332.666666667 1267 416.666666667 1265 516 c 1
 1222 516 l 1
 696 514 l 1
2455 797 m 1
 2363 752.333333333 2294.33333333 687.333333333 2249 602 c 0
 2193.66666667 497.333333333 2187 394.333333333 2229 293 c 0
 2259 221 2307.66666667 172.333333333 2375 147 c 0
 2525.9365724 89.140980581 2646.4681858 195.638650305 2680 313 c 0
 2744.04821799 530.139080488 2586.25870142 718.244779145 2455 797 c 1
1241 656 m 1
 1201.76232305 773.713030854 1102.49716478 879.160289701 974.5 877 c 0
 847.757374869 874.860883964 749.428455935 771.032115803 711 654 c 1
 1221 656 l 2
 1231 656 1231 656 1241 656 c 1
2095 54 m 0
 2095 22.5331842016 2065.45242531 -16 2037 -16 c 0
 1970.33333333 -16 1903.66666667 4.33333333333 1837 45 c 0
 1694.33333333 132.333333333 1612.33333333 254.666666667 1591 412 c 1
 1538.33333333 458 1476.33333333 488.666666667 1405 504 c 1
 1403.88093241 294.734360157 1301.8657628 128.160846571 1154.5 50 c 0
 974.58016729 -45.4270935919 785.230886181 15.4287087374 669 152 c 1
 627 82.6666666667 567.333333333 36.6666666667 490 14 c 0
 345.073119912 -28.0077913298 225.869838319 36.0749026284 159.5 123.5 c 0
 111.166666667 187.166666667 92.3333333333 255.666666667 103 329 c 0
 113.666666667 402.333333333 142.666666667 462.666666667 190 510 c 0
 276.666666667 595.333333333 401.666666667 642.333333333 565 651 c 1
 599.38674605 798.371768787 685.043194692 910.854168602 798 971 c 0
 914.666666667 1033 1031.66666667 1034.33333333 1149 975 c 0
 1265.70336312 915.909689557 1354.86736302 799.158820897 1389 648 c 1
 1465 637.333333333 1534.33333333 614.333333333 1597 579 c 1
 1626.7174847 721.926950204 1720.79824573 840.532163821 1828 912 c 0
 2009.1140691 1031.32221023 2256.85919071 1045.87799747 2462 952 c 1
 2743.794863 1050.71794564 3008.01000542 956.008682045 3171 792 c 0
 3299.66666667 662.666666667 3364 503.333333333 3364 314 c 0
 3364 210 3344 111 3304 17 c 0
 3224.66666667 -169 3089.5 -316 2898.5 -424 c 0
 2707.5 -532 2512.66666667 -573.333333333 2314 -548 c 0
 2193.33333333 -532.666666667 2109.5 -490.666666667 2062.5 -422 c 0
 1945.07216229 -250.438761934 2086.40249509 -79.3657025013 2233.5 -57 c 0
 2290.5 -48.3333333333 2343 -50.3333333333 2391 -63 c 0
 2439 -75.6666666667 2501.66666667 -100.833333333 2579 -138.5 c 0
 2656.33333333 -176.166666667 2741 -230 2833 -300 c 1
 2994.33333333 -207.333333333 3107.66666667 -84.6666666667 3173 68 c 0
 3233.1567088 208.766698603 3244.08587696 400.042834786 3179 536 c 0
 3122.33333333 654.666666667 3042.83333333 739.333333333 2940.5 790 c 0
 2838.16666667 840.666666667 2732.66666667 859.333333333 2624 846 c 1
 2742 742 2810.66666667 617.666666667 2830 473 c 0
 2851.31870037 313.929697206 2790.92613105 174.704139665 2706 92.5 c 0
 2618.5144362 7.81846068437 2475.15322803 -42.7017835492 2327 15 c 0
 2150.31048965 83.8159145558 2039.11210056 272.192770998 2068.5 497.5 c 0
 2087.5 643.166666667 2162 764.333333333 2292 861 c 1
 2132.75772465 895.673721245 1993.64055386 854.362867798 1905 795.5 c 0
 1827.13833445 743.794987721 1756.68141273 653.820710356 1734.5 551.5 c 0
 1695.86722475 373.290746428 1789.53865615 238.61586174 1897.5 172.5 c 0
 1940.5 146.166666667 1978.33333333 130.666666667 2011 126 c 0
 2067.66666667 118.666666667 2095.66666667 94.6666666667 2095 54 c 0
EndSplineSet
LCarets2: 1 0
EndChar

StartChar: k1r3
Encoding: 201 -1 143
Width: 2185
GlyphClass: 3
Flags: HW
LayerCount: 2
Fore
SplineSet
877 518 m 1
 764.333333333 508.666666667 681 477.666666667 627 425 c 0
 571.287578336 369.287578336 543.405144243 281.392613394 598 203 c 0
 624 165.666666667 654.666666667 143.666666667 690 137 c 0
 757.333333333 124.333333333 811 137.833333333 851 177.5 c 0
 891 217.166666667 908.333333333 264.333333333 903 319 c 1
 884.333333333 380.333333333 875.666666667 446.666666667 877 518 c 1
1594 526 m 1
 1585.5 526 1585.5 526 1577 526 c 2
 1025 523 l 2
 1021 523 1021 523 1017 523 c 0
 1014.7640656 431.326689438 1030.16321587 389.376445432 1047 331.5 c 0
 1064.57297595 271.092895172 1117.50511757 203.68097838 1174 168 c 0
 1255.33333333 116 1338.66666667 114 1424 162 c 0
 1533.79375751 224.216462589 1598.14544351 360.182259678 1594 526 c 1
1416.5 879 m 0
 1340.83333333 920.333333333 1265.66666667 919.833333333 1191 877.5 c 0
 1116.33333333 835.166666667 1065.33333333 764 1038 664 c 1
 1573 666 l 1
 1544.33333333 766.666666667 1492.16666667 837.666666667 1416.5 879 c 0
998 139 m 1
 925.005569426 20.5336290677 735.970844868 -66.7777544507 575 36.5 c 0
 454.6177969 113.736369245 408.784463567 225.069702579 437.5 370.5 c 0
 447.833333333 422.833333333 476.333333333 472.333333333 523 519 c 0
 609.666666667 603.666666667 733 650.666666667 893 660 c 1
 925.666666667 817.333333333 1003 931 1125 1001 c 0
 1233.01215796 1062.90940761 1368.37613732 1065.05252397 1479.5 1004.5 c 0
 1599.39712501 939.166836072 1686.619381 819.657686574 1719 659 c 1
 1906.65709065 630.422778074 2038.08549949 502.258267367 2075 309 c 0
 2117.93346459 86.6659869695 2017.74332649 -96.9551348724 1894.5 -196 c 0
 1752.37910205 -310.215881459 1619.31510393 -336.437780697 1381 -345 c 1
 1110 -353 l 1
 840.071175732 -358.998418317 756.365175476 -353.872743042 579.5 -291.5 c 0
 510.5 -267.166666667 440.833333333 -226.5 370.5 -169.5 c 0
 221.433714599 -48.6927260494 133.600381265 106.807273951 107 297 c 0
 63.0644044201 619.194367586 244.930004502 889.328548101 457 1014 c 0
 468.333333333 1020.66666667 482 1024 498 1024 c 0
 535.261832335 1024 563 988.390627854 563 948 c 0
 563 924.666666667 551.333333333 906.333333333 528 893 c 0
 463.333333333 855 407.333333333 805 360 743 c 0
 262.860551213 615.761003702 225.193884547 473.094337035 247 315 c 0
 287.907327216 12.9151220996 542.051946635 -185.044155731 854 -210 c 0
 926.666666667 -215.333333333 1010.66666667 -216.666666667 1106 -214 c 2
 1376 -205 l 2
 1578.69474768 -198.419001699 1689.32694814 -181.297822228 1804 -89 c 0
 1887.86970453 -21.4951158636 1969.27269458 116.113810063 1942 261 c 0
 1915.33333333 399 1846 483 1734 513 c 1
 1735.13309541 293.17948996 1636.59534531 122.854630283 1488.5 38 c 0
 1375.23487818 -26.8978535813 1219.51323392 -27.0734983197 1115 39.5 c 0
 1066.33333333 70.5 1027.33333333 103.666666667 998 139 c 1
EndSplineSet
LCarets2: 1 0
EndChar

StartChar: k1sh
Encoding: 207 -1 149
Width: 2913
GlyphClass: 3
LigCaretCntFixed: 1
Flags: HW
LayerCount: 2
Fore
SplineSet
549 498 m 1
 433.666666667 488.666666667 349.333333333 458 296 406 c 0
 240.821839456 352.048020802 218.14737478 267.067304569 272 195.5 c 0
 297.333333333 161.833333333 327 142 361 136 c 0
 447.666666667 120.666666667 510.666666667 146.666666667 550 214 c 0
 568.666666667 246 576.666666667 279.333333333 574 314 c 1
 574 315 l 1
 556.666666667 372.333333333 548.333333333 433.333333333 549 498 c 1
696 502 m 1
 689 502 l 1
 684.937517723 309.709172233 797.124747585 140.445620321 966 134 c 0
 1068.09147258 130.858723921 1146.47013058 188.744466039 1193 253 c 0
 1243 321.666666667 1267 405.666666667 1265 505 c 1
 1222 505 l 1
 696 502 l 1
2673 618 m 1
 2589.66666667 512.666666667 2484.33333333 437.333333333 2357 392 c 1
 2355 140 l 1
 2673 140 l 1
 2673 618 l 1
1241 645 m 1
 1211 736.333333333 1159 800.833333333 1085 838.5 c 0
 1011 876.166666667 937.5 875.666666667 864.5 837 c 0
 791.5 798.333333333 740.333333333 733.333333333 711 642 c 1
 1221 645 l 2
 1231 645 1231 645 1241 645 c 1
2089 871.5 m 0
 1946.67763565 890.278645297 1833.91642022 744.5374517 1911.5 614 c 0
 1932.5 578.666666667 1967.83333333 547.666666667 2017.5 521 c 0
 2067.16666667 494.333333333 2134 487.666666667 2218 501 c 1
 2220 686 l 2
 2220 746.666666667 2213 787 2199 807 c 0
 2173.66666667 843.666666667 2137 865.166666667 2089 871.5 c 0
1537 0 m 2
 1495.57472023 0 1467 32.7415798084 1467 76 c 0
 1467 99.3333333333 1478.33333333 117.666666667 1501 131 c 0
 1591.13558236 179.154626194 1624.80732408 301.702039245 1554 398 c 0
 1520.66666667 443.333333333 1471 474.333333333 1405 491 c 1
 1403.87762724 282.238666428 1301.01795162 117.020670203 1154.5 38.5 c 0
 975.81698702 -57.2582997739 784.724906956 4.98760855082 669 140 c 1
 627.666666667 71.3333333333 568 25.6666666667 490 3 c 0
 444 -10.3333333333 397.333333333 -12.6666666667 350 -4 c 0
 271.333333333 9.33333333333 207.666666667 48 159 112 c 0
 111 176 92.3333333333 244.666666667 103 318 c 0
 113.666666667 391.333333333 142.666666667 451.333333333 190 498 c 0
 276.666666667 584 401.666666667 631.333333333 565 640 c 1
 583.666666667 719.333333333 614.333333333 785.666666667 657 839 c 0
 744.333333333 948.333333333 849.833333333 1003.83333333 973.5 1005.5 c 0
 1097.16666667 1007.16666667 1204 952.666666667 1294 842 c 0
 1338.66666667 788 1370.33333333 719.666666667 1389 637 c 1
 1510.33333333 618.333333333 1601.16666667 568.833333333 1661.5 488.5 c 0
 1739.81317246 384.226659871 1755.48813494 252.238739637 1698 140 c 1
 2215 140 l 1
 2217 359 l 1
 2010.36799689 334.151847728 1862.1529384 424.078435999 1789 546 c 0
 1735.66666667 636 1729.66666667 728.333333333 1771 823 c 0
 1821.15035794 939.525831692 1954.26637615 1030.49593543 2111 1010 c 0
 2229.89874643 994.451702389 2329.56735776 915.379532321 2351 797.5 c 0
 2357 764.5 2360 727 2360 685 c 2
 2358 544 l 1
 2516.16962538 616.147548421 2639.93300376 757.682554886 2674 953 c 0
 2679.3066648 983.513322577 2710.08371947 1010 2745.5 1010 c 0
 2781.77478545 1010 2813 976.996032435 2813 940 c 2
 2813 70 l 2
 2813 31.645961324 2781.35293841 0 2743 0 c 2
 1537 0 l 2
EndSplineSet
LCarets2: 2 0 0
EndChar

StartChar: k3u1
Encoding: 213 -1 155
Width: 1804
GlyphClass: 3
Flags: HW
LayerCount: 2
Fore
SplineSet
1704 -473 m 0
 1704 -502.906230183 1674.80395623 -543 1648.5 -543 c 0
 1634 -543 1634 -543 1633 -543 c 2
 440 -542 l 2
 277.645498051 -542 193.830543317 -506.493436322 135.5 -417 c 0
 86.8315095773 -342.330535242 92.9399979893 -242.77077186 144 -176 c 0
 208.597093749 -91.6070226832 297.755683081 -63.2722957742 445 -67 c 1
 897 -74 l 2
 1127.91000339 -78.027500059 1252.08984816 -60.1523403212 1381.5 40.5 c 0
 1493.76465414 127.816953221 1574.35613378 276.671801211 1564 469 c 0
 1554.9553626 645.872909179 1471.69235177 789.778755378 1338.5 852 c 0
 1173.5807116 929.042587283 1003.62554883 838.544776693 976 682 c 0
 970 648 967 602.333333333 967 545 c 2
 967 453 l 2
 967 298.615932604 950.064926806 213.331100769 878.5 121.5 c 0
 812.272409144 36.5176931497 698.164838724 -26.4955874986 553.5 -19 c 0
 288.649079067 -5.27715435579 92.8777496372 232.036419515 100.5 490.5 c 0
 108.170564043 750.601853468 260.393141619 938.004922577 456 1017 c 0
 464.666666667 1021 476.166666667 1023 490.5 1023 c 0
 520.266915305 1023 553 988.068853141 553 957.5 c 0
 553 924.340771353 532.421873904 896.997532491 508 888 c 0
 360.761953773 828.106557467 246.812221011 686.97749345 240.5 492 c 0
 235.814937066 347.283611589 321.428531377 214.585274128 433 157 c 0
 518.333333333 112.333333333 599.166666667 106.166666667 675.5 138.5 c 0
 793.946654758 188.671727124 825.130015768 282.831434916 827 453 c 1
 827 545 l 2
 827 688.41354564 839.869378219 767.373175864 900.5 858 c 0
 960.320069623 947.415261963 1062.07900048 1011.61708166 1199 1020 c 0
 1354.68243597 1029.53157771 1487.8878106 941.334627283 1564 850 c 0
 1704.0159252 684.824963244 1751.22671904 407.366075077 1651.5 170 c 0
 1573.04768903 -16.7294674357 1403.58204702 -152.55512109 1185 -196 c 0
 1116.33333333 -210 1019.33333333 -216 894 -214 c 2
 443 -207 l 2
 376.333333333 -205.666666667 331.333333333 -210.333333333 308 -221 c 0
 265.333333333 -241 243.333333333 -267.666666667 242 -301 c 0
 238.666666667 -369 304.666666667 -402.666666667 440 -402 c 2
 1633 -403 l 1
 1634 -403 l 2
 1672.35403868 -403 1704 -434.647061594 1704 -473 c 0
EndSplineSet
LCarets2: 1 0
EndChar

